<svg width="300" height="400" viewBox="0 0 300 400" fill="none" xmlns="http://www.w3.org/2000/svg">
<g id="eggs4">
<rect x="0.5" y="0.5" width="299" height="399" fill="white"/>
<g id="test">
<path id="transaction, poll" d="M32.2051 122.436V120.453H33.6895V117.484H36.4434V120.453H38.1719V122.436H36.4434V128.061C36.4434 128.497 36.4987 128.77 36.6094 128.881C36.7201 128.985 37.0586 129.037 37.625 129.037C37.7096 129.037 37.7975 129.037 37.8887 129.037C37.9863 129.031 38.0807 129.024 38.1719 129.018V131.098L36.8535 131.146C35.5384 131.192 34.64 130.964 34.1582 130.463C33.8457 130.144 33.6895 129.652 33.6895 128.988V122.436H32.2051ZM45.7402 120.102C45.7923 120.102 45.8346 120.105 45.8672 120.111C45.9062 120.111 45.9876 120.115 46.1113 120.121V122.973C45.9355 122.953 45.7793 122.94 45.6426 122.934C45.5059 122.927 45.3952 122.924 45.3105 122.924C44.1908 122.924 43.4388 123.288 43.0547 124.018C42.8398 124.428 42.7324 125.059 42.7324 125.912V131H39.9297V120.355H42.5859V122.211C43.0156 121.501 43.39 121.016 43.709 120.756C44.2298 120.32 44.9069 120.102 45.7402 120.102ZM53.6211 125.824C53.4453 125.935 53.2663 126.026 53.084 126.098C52.9082 126.163 52.6641 126.225 52.3516 126.283L51.7266 126.4C51.1406 126.505 50.7207 126.632 50.4668 126.781C50.0371 127.035 49.8223 127.429 49.8223 127.963C49.8223 128.438 49.9525 128.783 50.2129 128.998C50.4798 129.206 50.8021 129.311 51.1797 129.311C51.7786 129.311 52.3288 129.135 52.8301 128.783C53.3379 128.432 53.6016 127.79 53.6211 126.859V125.824ZM51.9316 124.525C52.446 124.46 52.8138 124.379 53.0352 124.281C53.4323 124.112 53.6309 123.848 53.6309 123.49C53.6309 123.054 53.4779 122.755 53.1719 122.592C52.8724 122.423 52.4297 122.338 51.8438 122.338C51.1862 122.338 50.7207 122.501 50.4473 122.826C50.252 123.067 50.1217 123.393 50.0566 123.803H47.3711C47.4297 122.872 47.6901 122.107 48.1523 121.508C48.888 120.57 50.151 120.102 51.9414 120.102C53.1068 120.102 54.1419 120.333 55.0469 120.795C55.9518 121.257 56.4043 122.13 56.4043 123.412V128.295C56.4043 128.633 56.4108 129.044 56.4238 129.525C56.4434 129.89 56.4987 130.137 56.5898 130.268C56.681 130.398 56.8177 130.505 57 130.59V131H53.9727C53.888 130.785 53.8294 130.583 53.7969 130.395C53.7643 130.206 53.7383 129.991 53.7188 129.75C53.3346 130.167 52.8919 130.521 52.3906 130.814C51.7917 131.16 51.1146 131.332 50.3594 131.332C49.3958 131.332 48.5983 131.059 47.9668 130.512C47.3418 129.958 47.0293 129.177 47.0293 128.168C47.0293 126.859 47.5339 125.912 48.543 125.326C49.0964 125.007 49.9102 124.779 50.9844 124.643L51.9316 124.525ZM64.7832 120.102C65.8835 120.102 66.7819 120.391 67.4785 120.971C68.1816 121.544 68.5332 122.497 68.5332 123.832V131H65.6816V124.525C65.6816 123.965 65.6068 123.536 65.457 123.236C65.1836 122.689 64.6628 122.416 63.8945 122.416C62.9505 122.416 62.3027 122.816 61.9512 123.617C61.7689 124.04 61.6777 124.581 61.6777 125.238V131H58.9043V120.375H61.5898V121.928C61.9479 121.381 62.2865 120.987 62.6055 120.746C63.1784 120.316 63.9043 120.102 64.7832 120.102ZM73.2793 127.602C73.3379 128.096 73.4648 128.448 73.6602 128.656C74.0052 129.027 74.6432 129.213 75.5742 129.213C76.1211 129.213 76.554 129.132 76.873 128.969C77.1986 128.806 77.3613 128.562 77.3613 128.236C77.3613 127.924 77.2311 127.686 76.9707 127.523C76.7103 127.361 75.7435 127.081 74.0703 126.684C72.8659 126.384 72.0163 126.01 71.5215 125.561C71.0267 125.118 70.7793 124.48 70.7793 123.646C70.7793 122.663 71.1634 121.82 71.9316 121.117C72.7064 120.408 73.7936 120.053 75.1934 120.053C76.5215 120.053 77.6022 120.32 78.4355 120.854C79.2754 121.381 79.7572 122.296 79.8809 123.598H77.0977C77.0586 123.24 76.9577 122.956 76.7949 122.748C76.4889 122.37 75.9681 122.182 75.2324 122.182C74.627 122.182 74.194 122.276 73.9336 122.465C73.6797 122.654 73.5527 122.875 73.5527 123.129C73.5527 123.448 73.6895 123.679 73.9629 123.822C74.2363 123.972 75.2031 124.229 76.8633 124.594C77.9701 124.854 78.8001 125.248 79.3535 125.775C79.9004 126.309 80.1738 126.977 80.1738 127.777C80.1738 128.832 79.7799 129.695 78.9922 130.365C78.2109 131.029 77 131.361 75.3594 131.361C73.6862 131.361 72.4492 131.01 71.6484 130.307C70.8542 129.597 70.457 128.695 70.457 127.602H73.2793ZM88.1133 125.824C87.9375 125.935 87.7585 126.026 87.5762 126.098C87.4004 126.163 87.1562 126.225 86.8438 126.283L86.2188 126.4C85.6328 126.505 85.2129 126.632 84.959 126.781C84.5293 127.035 84.3145 127.429 84.3145 127.963C84.3145 128.438 84.4447 128.783 84.7051 128.998C84.972 129.206 85.2943 129.311 85.6719 129.311C86.2708 129.311 86.821 129.135 87.3223 128.783C87.8301 128.432 88.0938 127.79 88.1133 126.859V125.824ZM86.4238 124.525C86.9382 124.46 87.306 124.379 87.5273 124.281C87.9245 124.112 88.123 123.848 88.123 123.49C88.123 123.054 87.9701 122.755 87.6641 122.592C87.3646 122.423 86.9219 122.338 86.3359 122.338C85.6784 122.338 85.2129 122.501 84.9395 122.826C84.7441 123.067 84.6139 123.393 84.5488 123.803H81.8633C81.9219 122.872 82.1823 122.107 82.6445 121.508C83.3802 120.57 84.6432 120.102 86.4336 120.102C87.599 120.102 88.6341 120.333 89.5391 120.795C90.444 121.257 90.8965 122.13 90.8965 123.412V128.295C90.8965 128.633 90.903 129.044 90.916 129.525C90.9355 129.89 90.9909 130.137 91.082 130.268C91.1732 130.398 91.3099 130.505 91.4922 130.59V131H88.4648C88.3802 130.785 88.3216 130.583 88.2891 130.395C88.2565 130.206 88.2305 129.991 88.2109 129.75C87.8268 130.167 87.3841 130.521 86.8828 130.814C86.2839 131.16 85.6068 131.332 84.8516 131.332C83.888 131.332 83.0905 131.059 82.459 130.512C81.834 129.958 81.5215 129.177 81.5215 128.168C81.5215 126.859 82.026 125.912 83.0352 125.326C83.5885 125.007 84.4023 124.779 85.4766 124.643L86.4238 124.525ZM99.7344 124.174C99.6823 123.777 99.5488 123.419 99.334 123.1C99.0215 122.67 98.5365 122.455 97.8789 122.455C96.9414 122.455 96.3001 122.921 95.9551 123.852C95.7728 124.346 95.6816 125.004 95.6816 125.824C95.6816 126.605 95.7728 127.234 95.9551 127.709C96.2871 128.594 96.9121 129.037 97.8301 129.037C98.4811 129.037 98.9434 128.861 99.2168 128.51C99.4902 128.158 99.6562 127.702 99.7148 127.143H102.557C102.492 127.989 102.186 128.79 101.639 129.545C100.766 130.762 99.474 131.371 97.7617 131.371C96.0495 131.371 94.7897 130.863 93.9824 129.848C93.1751 128.832 92.7715 127.514 92.7715 125.893C92.7715 124.063 93.2174 122.641 94.1094 121.625C95.0013 120.609 96.2318 120.102 97.8008 120.102C99.1354 120.102 100.226 120.401 101.072 121C101.925 121.599 102.43 122.657 102.586 124.174H99.7344ZM103.416 122.436V120.453H104.9V117.484H107.654V120.453H109.383V122.436H107.654V128.061C107.654 128.497 107.71 128.77 107.82 128.881C107.931 128.985 108.27 129.037 108.836 129.037C108.921 129.037 109.008 129.037 109.1 129.037C109.197 129.031 109.292 129.024 109.383 129.018V131.098L108.064 131.146C106.749 131.192 105.851 130.964 105.369 130.463C105.057 130.144 104.9 129.652 104.9 128.988V122.436H103.416ZM114.031 119.086H111.209V116.518H114.031V119.086ZM111.209 120.355H114.031V131H111.209V120.355ZM121.512 129.037C122.326 129.037 122.951 128.747 123.387 128.168C123.823 127.589 124.041 126.765 124.041 125.697C124.041 124.63 123.823 123.809 123.387 123.236C122.951 122.657 122.326 122.367 121.512 122.367C120.698 122.367 120.07 122.657 119.627 123.236C119.191 123.809 118.973 124.63 118.973 125.697C118.973 126.765 119.191 127.589 119.627 128.168C120.07 128.747 120.698 129.037 121.512 129.037ZM126.961 125.697C126.961 127.26 126.512 128.598 125.613 129.711C124.715 130.818 123.351 131.371 121.521 131.371C119.692 131.371 118.328 130.818 117.43 129.711C116.531 128.598 116.082 127.26 116.082 125.697C116.082 124.161 116.531 122.829 117.43 121.703C118.328 120.577 119.692 120.014 121.521 120.014C123.351 120.014 124.715 120.577 125.613 121.703C126.512 122.829 126.961 124.161 126.961 125.697ZM134.861 120.102C135.962 120.102 136.86 120.391 137.557 120.971C138.26 121.544 138.611 122.497 138.611 123.832V131H135.76V124.525C135.76 123.965 135.685 123.536 135.535 123.236C135.262 122.689 134.741 122.416 133.973 122.416C133.029 122.416 132.381 122.816 132.029 123.617C131.847 124.04 131.756 124.581 131.756 125.238V131H128.982V120.375H131.668V121.928C132.026 121.381 132.365 120.987 132.684 120.746C133.257 120.316 133.982 120.102 134.861 120.102ZM141.043 133.314C141.603 133.158 142.013 132.898 142.273 132.533C142.54 132.169 142.693 131.658 142.732 131H141.043V128.09H144.051V130.609C144.051 131.052 143.992 131.514 143.875 131.996C143.758 132.478 143.54 132.895 143.221 133.246C142.876 133.624 142.469 133.907 142 134.096C141.538 134.291 141.219 134.389 141.043 134.389V133.314ZM40.6328 148.678C40.6328 147.857 40.444 147.132 40.0664 146.5C39.6953 145.868 39.0898 145.553 38.25 145.553C37.2409 145.553 36.5475 146.031 36.1699 146.988C35.9746 147.496 35.877 148.141 35.877 148.922C35.877 150.159 36.2057 151.028 36.8633 151.529C37.2539 151.822 37.7161 151.969 38.25 151.969C39.0247 151.969 39.6139 151.669 40.0176 151.07C40.4277 150.471 40.6328 149.674 40.6328 148.678ZM39.0508 143.121C40.2943 143.121 41.3457 143.58 42.2051 144.498C43.071 145.416 43.5039 146.764 43.5039 148.541C43.5039 150.416 43.0807 151.845 42.2344 152.828C41.3945 153.811 40.3105 154.303 38.9824 154.303C38.1361 154.303 37.4329 154.091 36.873 153.668C36.5671 153.434 36.2676 153.092 35.9746 152.643V158.189H33.2207V143.355H35.8867V144.928C36.1862 144.465 36.5052 144.101 36.8438 143.834C37.4622 143.359 38.1979 143.121 39.0508 143.121ZM50.3008 152.037C51.1146 152.037 51.7396 151.747 52.1758 151.168C52.612 150.589 52.8301 149.765 52.8301 148.697C52.8301 147.63 52.612 146.809 52.1758 146.236C51.7396 145.657 51.1146 145.367 50.3008 145.367C49.487 145.367 48.8587 145.657 48.416 146.236C47.9798 146.809 47.7617 147.63 47.7617 148.697C47.7617 149.765 47.9798 150.589 48.416 151.168C48.8587 151.747 49.487 152.037 50.3008 152.037ZM55.75 148.697C55.75 150.26 55.3008 151.598 54.4023 152.711C53.5039 153.818 52.14 154.371 50.3105 154.371C48.4811 154.371 47.1172 153.818 46.2188 152.711C45.3203 151.598 44.8711 150.26 44.8711 148.697C44.8711 147.161 45.3203 145.829 46.2188 144.703C47.1172 143.577 48.4811 143.014 50.3105 143.014C52.14 143.014 53.5039 143.577 54.4023 144.703C55.3008 145.829 55.75 147.161 55.75 148.697ZM60.5938 154H57.8105V139.605H60.5938V154ZM66.1602 154H63.377V139.605H66.1602V154Z" fill="#BD1F1F"/>
<path id="pending:" d="M41.6328 84.6777C41.6328 83.8574 41.444 83.1315 41.0664 82.5C40.6953 81.8685 40.0898 81.5527 39.25 81.5527C38.2409 81.5527 37.5475 82.0312 37.1699 82.9883C36.9746 83.4961 36.877 84.1406 36.877 84.9219C36.877 86.1589 37.2057 87.028 37.8633 87.5293C38.2539 87.8223 38.7161 87.9688 39.25 87.9688C40.0247 87.9688 40.6139 87.6693 41.0176 87.0703C41.4277 86.4714 41.6328 85.6738 41.6328 84.6777ZM40.0508 79.1211C41.2943 79.1211 42.3457 79.5801 43.2051 80.498C44.071 81.416 44.5039 82.7637 44.5039 84.541C44.5039 86.416 44.0807 87.8451 43.2344 88.8281C42.3945 89.8112 41.3105 90.3027 39.9824 90.3027C39.1361 90.3027 38.4329 90.0911 37.873 89.668C37.5671 89.4336 37.2676 89.0918 36.9746 88.6426V94.1895H34.2207V79.3555H36.8867V80.9277C37.1862 80.4655 37.5052 80.1009 37.8438 79.834C38.4622 79.3587 39.1979 79.1211 40.0508 79.1211ZM50.7246 81.3672C50.0801 81.3672 49.5788 81.569 49.2207 81.9727C48.8691 82.3763 48.6478 82.9232 48.5566 83.6133H52.8828C52.8372 82.8776 52.6126 82.321 52.209 81.9434C51.8118 81.5592 51.3171 81.3672 50.7246 81.3672ZM50.7246 79.0723C51.61 79.0723 52.4076 79.2383 53.1172 79.5703C53.8268 79.9023 54.4128 80.4264 54.875 81.1426C55.2917 81.7741 55.5618 82.5065 55.6855 83.3398C55.7572 83.8281 55.7865 84.5312 55.7734 85.4492H48.4883C48.5273 86.5169 48.8626 87.2656 49.4941 87.6953C49.8783 87.9622 50.3405 88.0957 50.8809 88.0957C51.4538 88.0957 51.9193 87.9329 52.2773 87.6074C52.4727 87.4316 52.6452 87.1875 52.7949 86.875H55.6367C55.5651 87.5065 55.2363 88.1478 54.6504 88.7988C53.7389 89.834 52.4629 90.3516 50.8223 90.3516C49.4681 90.3516 48.2734 89.9154 47.2383 89.043C46.2031 88.1706 45.6855 86.7513 45.6855 84.7852C45.6855 82.9427 46.151 81.5299 47.082 80.5469C48.0195 79.5638 49.2337 79.0723 50.7246 79.0723ZM63.5566 79.1016C64.6569 79.1016 65.5553 79.3913 66.252 79.9707C66.9551 80.5436 67.3066 81.4974 67.3066 82.832V90H64.4551V83.5254C64.4551 82.9655 64.3802 82.5358 64.2305 82.2363C63.957 81.6895 63.4362 81.416 62.668 81.416C61.724 81.416 61.0762 81.8164 60.7246 82.6172C60.5423 83.0404 60.4512 83.5807 60.4512 84.2383V90H57.6777V79.375H60.3633V80.9277C60.7214 80.3809 61.0599 79.987 61.3789 79.7461C61.9518 79.3164 62.6777 79.1016 63.5566 79.1016ZM73.8105 79.1016C74.4551 79.1016 75.028 79.2448 75.5293 79.5312C76.0306 79.8112 76.4375 80.2018 76.75 80.7031V75.625H79.5723V90H76.8672V88.5254C76.4701 89.1569 76.0176 89.6159 75.5098 89.9023C75.002 90.1888 74.3704 90.332 73.6152 90.332C72.3717 90.332 71.3236 89.8307 70.4707 88.8281C69.6243 87.819 69.2012 86.5267 69.2012 84.9512C69.2012 83.1348 69.6178 81.7057 70.4512 80.6641C71.291 79.6224 72.4108 79.1016 73.8105 79.1016ZM74.416 87.9883C75.2038 87.9883 75.8027 87.6953 76.2129 87.1094C76.623 86.5234 76.8281 85.765 76.8281 84.834C76.8281 83.5319 76.4993 82.6009 75.8418 82.041C75.4382 81.7025 74.9694 81.5332 74.4355 81.5332C73.6217 81.5332 73.0228 81.8424 72.6387 82.4609C72.2611 83.0729 72.0723 83.8346 72.0723 84.7461C72.0723 85.7292 72.2643 86.5169 72.6484 87.1094C73.0391 87.6953 73.6283 87.9883 74.416 87.9883ZM84.9727 78.0859H82.1504V75.5176H84.9727V78.0859ZM82.1504 79.3555H84.9727V90H82.1504V79.3555ZM93.5762 79.1016C94.6764 79.1016 95.5749 79.3913 96.2715 79.9707C96.9746 80.5436 97.3262 81.4974 97.3262 82.832V90H94.4746V83.5254C94.4746 82.9655 94.3997 82.5358 94.25 82.2363C93.9766 81.6895 93.4557 81.416 92.6875 81.416C91.7435 81.416 91.0957 81.8164 90.7441 82.6172C90.5618 83.0404 90.4707 83.5807 90.4707 84.2383V90H87.6973V79.375H90.3828V80.9277C90.7409 80.3809 91.0794 79.987 91.3984 79.7461C91.9714 79.3164 92.6973 79.1016 93.5762 79.1016ZM104.475 87.7148C105.126 87.7148 105.676 87.4707 106.125 86.9824C106.574 86.4876 106.799 85.7031 106.799 84.6289C106.799 83.6198 106.584 82.8516 106.154 82.3242C105.731 81.7969 105.161 81.5332 104.445 81.5332C103.469 81.5332 102.795 81.9922 102.424 82.9102C102.229 83.3984 102.131 84.0007 102.131 84.7168C102.131 85.3353 102.235 85.8854 102.443 86.3672C102.821 87.2656 103.498 87.7148 104.475 87.7148ZM103.781 79.1016C104.315 79.1016 104.781 79.1829 105.178 79.3457C105.855 79.6257 106.402 80.14 106.818 80.8887V79.3555H109.523V89.4531C109.523 90.8268 109.292 91.862 108.83 92.5586C108.036 93.7565 106.512 94.3555 104.26 94.3555C102.899 94.3555 101.789 94.0885 100.93 93.5547C100.07 93.0208 99.5951 92.2233 99.5039 91.1621H102.531C102.609 91.4876 102.736 91.722 102.912 91.8652C103.212 92.1191 103.716 92.2461 104.426 92.2461C105.428 92.2461 106.099 91.9108 106.438 91.2402C106.659 90.8105 106.77 90.0879 106.77 89.0723V88.3887C106.503 88.8444 106.216 89.1862 105.91 89.4141C105.357 89.8372 104.637 90.0488 103.752 90.0488C102.385 90.0488 101.291 89.5703 100.471 88.6133C99.6569 87.6497 99.25 86.3477 99.25 84.707C99.25 83.125 99.6439 81.7969 100.432 80.7227C101.219 79.6419 102.336 79.1016 103.781 79.1016ZM113.098 79.7754H116.057V82.6855H113.098V79.7754ZM113.098 87.0898H116.057V90H113.098V87.0898Z" fill="#BD1F1F"/>
</g>
<rect x="0.5" y="0.5" width="299" height="399" stroke="#CCCCCC"/>
</g>
</svg>
