<svg width="360" height="352" viewBox="0 0 360 352" fill="none" xmlns="http://www.w3.org/2000/svg">
<g id="story1-4">
<g id="Group 12">
<line id="Line 1" x1="25.2929" y1="331.293" x2="337.293" y2="19.2929" stroke="#999999" stroke-width="2" stroke-dasharray="5 2"/>
<g id="survey-1">
<g id="Frame 12" clip-path="url(#clip0)">
<rect width="140" height="111" transform="translate(20 20)" fill="#EEEEEE"/>
<rect id="Rectangle 7" x="30" y="30" width="113" height="10" fill="#666666"/>
<rect id="Rectangle 14" x="30" y="41" width="120" height="10" fill="#666666"/>
<rect id="Rectangle 9" x="30" y="52" width="55" height="10" fill="#666666"/>
<rect id="Rectangle 20" x="30" y="63" width="55" height="10" fill="#666666"/>
<rect id="Rectangle 11" x="30" y="74" width="100" height="3" fill="#EEEEEE"/>
<g id="Frame 22">
<rect x="30" y="78" width="120" height="30" rx="3" fill="#666666"/>
<g id="ok">
<path id="Vector" d="M91.6451 88.3346V85.2863C91.6451 84.6799 91.4042 84.0984 90.9755 83.6696C90.5467 83.2409 89.9652 83 89.3588 83L86.3105 89.8588L84.0242 94.0503L86.3105 98.2419H94.9069C95.2744 98.246 95.6311 98.1172 95.9112 97.8791C96.1913 97.641 96.3759 97.3097 96.4311 96.9463L97.4827 90.0875C97.5159 89.869 97.5012 89.646 97.4396 89.4338C97.378 89.2216 97.271 89.0253 97.126 88.8586C96.981 88.6919 96.8015 88.5587 96.5999 88.4682C96.3983 88.3777 96.1795 88.3321 95.9586 88.3346H91.6451ZM86.3105 98.2419H84.0242C83.6199 98.2419 83.2323 98.0813 82.9464 97.7954C82.6606 97.5096 82.5 97.1219 82.5 96.7177V91.383C82.5 90.9788 82.6606 90.5911 82.9464 90.3053C83.2323 90.0194 83.6199 89.8588 84.0242 89.8588H86.3105" fill="white"/>
</g>
</g>
<rect id="Rectangle 16" x="95" y="109" width="55" height="3" fill="#EEEEEE"/>
<rect id="Rectangle 17" x="30" y="113" width="55" height="8" fill="#999999"/>
</g>
<path id="Vector_2" d="M76.875 131L90 146L103.125 131L76.875 131Z" fill="#EEEEEE"/>
</g>
<g id="survey-2" clip-path="url(#clip1)">
<g id="Frame 12_2" clip-path="url(#clip2)">
<rect width="140" height="111" transform="translate(200 90)" fill="#EEEEEE"/>
<rect id="Rectangle 7_2" x="210" y="100" width="113" height="10" fill="#666666"/>
<rect id="Rectangle 14_2" x="210" y="111" width="120" height="10" fill="#666666"/>
<rect id="Rectangle 9_2" x="210" y="122" width="55" height="10" fill="#666666"/>
<rect id="Rectangle 20_2" x="210" y="133" width="55" height="10" fill="#666666"/>
<rect id="Rectangle 11_2" x="210" y="144" width="100" height="3" fill="#EEEEEE"/>
<g id="Frame 22_2">
<rect x="210" y="148" width="120" height="30" rx="3" fill="#666666"/>
<g id="ok_2">
<path id="Vector_3" d="M271.645 158.335V155.286C271.645 154.68 271.404 154.098 270.975 153.67C270.547 153.241 269.965 153 269.359 153L266.31 159.859L264.024 164.05L266.31 168.242H274.907C275.274 168.246 275.631 168.117 275.911 167.879C276.191 167.641 276.376 167.31 276.431 166.946L277.483 160.088C277.516 159.869 277.501 159.646 277.44 159.434C277.378 159.222 277.271 159.025 277.126 158.859C276.981 158.692 276.801 158.559 276.6 158.468C276.398 158.378 276.179 158.332 275.959 158.335H271.645ZM266.31 168.242H264.024C263.62 168.242 263.232 168.081 262.946 167.795C262.661 167.51 262.5 167.122 262.5 166.718V161.383C262.5 160.979 262.661 160.591 262.946 160.305C263.232 160.019 263.62 159.859 264.024 159.859H266.31" fill="white"/>
</g>
</g>
<rect id="Rectangle 16_2" x="275" y="179" width="55" height="3" fill="#EEEEEE"/>
<rect id="Rectangle 17_2" x="210" y="183" width="55" height="8" fill="#999999"/>
</g>
<path id="Vector_4" d="M256.875 201L270 216L283.125 201L256.875 201Z" fill="#EEEEEE"/>
</g>
</g>
</g>
<defs>
<clipPath id="clip0">
<rect width="140" height="111" fill="white" transform="translate(20 20)"/>
</clipPath>
<clipPath id="clip1">
<rect width="140" height="126" fill="white" transform="translate(200 90)"/>
</clipPath>
<clipPath id="clip2">
<rect width="140" height="111" fill="white" transform="translate(200 90)"/>
</clipPath>
</defs>
</svg>
