<svg width="350" height="531" viewBox="0 0 350 531" fill="none" xmlns="http://www.w3.org/2000/svg">
<g id="story1-3">
<g id="talk-right">
<g id="Frame 12" clip-path="url(#clip0)">
<rect width="245" height="67" transform="translate(20 20)" fill="#EEEEEE"/>
<rect id="Rectangle 7" x="40" y="30" width="215" height="10" fill="#666666"/>
<rect id="Rectangle 14" x="40" y="41" width="215" height="10" fill="#666666"/>
<rect id="Rectangle 9" x="190" y="52" width="65" height="10" fill="#666666"/>
<rect id="Rectangle 11" x="30" y="63" width="225" height="3" fill="#EEEEEE"/>
<g id="Frame 15">
<rect id="Rectangle 13" x="150" y="67" width="50" height="10" fill="#CCCCCC"/>
<rect id="Rectangle 16" x="205" y="67" width="50" height="10" fill="#CCCCCC"/>
</g>
</g>
<g id="Frame 15_2">
<path id="Vector" d="M265 53.75L275 45L265 36.25V53.75Z" fill="#EEEEEE"/>
<g id="avatar">
<rect width="50" height="50" transform="translate(280 20)" fill="#CCCCCC"/>
<path id="avatar image" d="M289.895 41.3301C289.895 41.6348 290.006 41.875 290.229 42.0508C290.451 42.2266 290.715 42.3145 291.02 42.3145C291.391 42.3145 291.75 42.2285 292.098 42.0566C292.684 41.7715 292.977 41.3047 292.977 40.6562V39.8066C292.848 39.8887 292.682 39.957 292.479 40.0117C292.275 40.0664 292.076 40.1055 291.881 40.1289L291.242 40.2109C290.859 40.2617 290.572 40.3418 290.381 40.4512C290.057 40.6348 289.895 40.9277 289.895 41.3301ZM292.449 39.1973C292.691 39.166 292.854 39.0645 292.936 38.8926C292.982 38.7988 293.006 38.6641 293.006 38.4883C293.006 38.1289 292.877 37.8691 292.619 37.709C292.365 37.5449 292 37.4629 291.523 37.4629C290.973 37.4629 290.582 37.6113 290.352 37.9082C290.223 38.0723 290.139 38.3164 290.1 38.6406H289.115C289.135 37.8672 289.385 37.3301 289.865 37.0293C290.35 36.7246 290.91 36.5723 291.547 36.5723C292.285 36.5723 292.885 36.7129 293.346 36.9941C293.803 37.2754 294.031 37.7129 294.031 38.3066V41.9219C294.031 42.0312 294.053 42.1191 294.096 42.1855C294.143 42.252 294.238 42.2852 294.383 42.2852C294.43 42.2852 294.482 42.2832 294.541 42.2793C294.6 42.2715 294.662 42.2617 294.729 42.25V43.0293C294.564 43.0762 294.439 43.1055 294.354 43.1172C294.268 43.1289 294.15 43.1348 294.002 43.1348C293.639 43.1348 293.375 43.0059 293.211 42.748C293.125 42.6113 293.064 42.418 293.029 42.168C292.814 42.4492 292.506 42.6934 292.104 42.9004C291.701 43.1074 291.258 43.2109 290.773 43.2109C290.191 43.2109 289.715 43.0352 289.344 42.6836C288.977 42.3281 288.793 41.8848 288.793 41.3535C288.793 40.7715 288.975 40.3203 289.338 40C289.701 39.6797 290.178 39.4824 290.768 39.4082L292.449 39.1973ZM296.281 36.7246L297.957 41.834L299.709 36.7246H300.863L298.496 43H297.371L295.057 36.7246H296.281ZM302.574 41.3301C302.574 41.6348 302.686 41.875 302.908 42.0508C303.131 42.2266 303.395 42.3145 303.699 42.3145C304.07 42.3145 304.43 42.2285 304.777 42.0566C305.363 41.7715 305.656 41.3047 305.656 40.6562V39.8066C305.527 39.8887 305.361 39.957 305.158 40.0117C304.955 40.0664 304.756 40.1055 304.561 40.1289L303.922 40.2109C303.539 40.2617 303.252 40.3418 303.061 40.4512C302.736 40.6348 302.574 40.9277 302.574 41.3301ZM305.129 39.1973C305.371 39.166 305.533 39.0645 305.615 38.8926C305.662 38.7988 305.686 38.6641 305.686 38.4883C305.686 38.1289 305.557 37.8691 305.299 37.709C305.045 37.5449 304.68 37.4629 304.203 37.4629C303.652 37.4629 303.262 37.6113 303.031 37.9082C302.902 38.0723 302.818 38.3164 302.779 38.6406H301.795C301.814 37.8672 302.064 37.3301 302.545 37.0293C303.029 36.7246 303.59 36.5723 304.227 36.5723C304.965 36.5723 305.564 36.7129 306.025 36.9941C306.482 37.2754 306.711 37.7129 306.711 38.3066V41.9219C306.711 42.0312 306.732 42.1191 306.775 42.1855C306.822 42.252 306.918 42.2852 307.062 42.2852C307.109 42.2852 307.162 42.2832 307.221 42.2793C307.279 42.2715 307.342 42.2617 307.408 42.25V43.0293C307.244 43.0762 307.119 43.1055 307.033 43.1172C306.947 43.1289 306.83 43.1348 306.682 43.1348C306.318 43.1348 306.055 43.0059 305.891 42.748C305.805 42.6113 305.744 42.418 305.709 42.168C305.494 42.4492 305.186 42.6934 304.783 42.9004C304.381 43.1074 303.938 43.2109 303.453 43.2109C302.871 43.2109 302.395 43.0352 302.023 42.6836C301.656 42.3281 301.473 41.8848 301.473 41.3535C301.473 40.7715 301.654 40.3203 302.018 40C302.381 39.6797 302.857 39.4824 303.447 39.4082L305.129 39.1973ZM308.656 34.9727H309.723V36.7246H310.725V37.5859H309.723V41.6816C309.723 41.9004 309.797 42.0469 309.945 42.1211C310.027 42.1641 310.164 42.1855 310.355 42.1855C310.406 42.1855 310.461 42.1855 310.52 42.1855C310.578 42.1816 310.646 42.1758 310.725 42.168V43C310.604 43.0352 310.477 43.0605 310.344 43.0762C310.215 43.0918 310.074 43.0996 309.922 43.0996C309.43 43.0996 309.096 42.9746 308.92 42.7246C308.744 42.4707 308.656 42.1426 308.656 41.7402V37.5859H307.807V36.7246H308.656V34.9727ZM312.594 41.3301C312.594 41.6348 312.705 41.875 312.928 42.0508C313.15 42.2266 313.414 42.3145 313.719 42.3145C314.09 42.3145 314.449 42.2285 314.797 42.0566C315.383 41.7715 315.676 41.3047 315.676 40.6562V39.8066C315.547 39.8887 315.381 39.957 315.178 40.0117C314.975 40.0664 314.775 40.1055 314.58 40.1289L313.941 40.2109C313.559 40.2617 313.271 40.3418 313.08 40.4512C312.756 40.6348 312.594 40.9277 312.594 41.3301ZM315.148 39.1973C315.391 39.166 315.553 39.0645 315.635 38.8926C315.682 38.7988 315.705 38.6641 315.705 38.4883C315.705 38.1289 315.576 37.8691 315.318 37.709C315.064 37.5449 314.699 37.4629 314.223 37.4629C313.672 37.4629 313.281 37.6113 313.051 37.9082C312.922 38.0723 312.838 38.3164 312.799 38.6406H311.814C311.834 37.8672 312.084 37.3301 312.564 37.0293C313.049 36.7246 313.609 36.5723 314.246 36.5723C314.984 36.5723 315.584 36.7129 316.045 36.9941C316.502 37.2754 316.73 37.7129 316.73 38.3066V41.9219C316.73 42.0312 316.752 42.1191 316.795 42.1855C316.842 42.252 316.938 42.2852 317.082 42.2852C317.129 42.2852 317.182 42.2832 317.24 42.2793C317.299 42.2715 317.361 42.2617 317.428 42.25V43.0293C317.264 43.0762 317.139 43.1055 317.053 43.1172C316.967 43.1289 316.85 43.1348 316.701 43.1348C316.338 43.1348 316.074 43.0059 315.91 42.748C315.824 42.6113 315.764 42.418 315.729 42.168C315.514 42.4492 315.205 42.6934 314.803 42.9004C314.4 43.1074 313.957 43.2109 313.473 43.2109C312.891 43.2109 312.414 43.0352 312.043 42.6836C311.676 42.3281 311.492 41.8848 311.492 41.3535C311.492 40.7715 311.674 40.3203 312.037 40C312.4 39.6797 312.877 39.4824 313.467 39.4082L315.148 39.1973ZM318.494 36.7246H319.496V37.8086C319.578 37.5977 319.779 37.3418 320.1 37.041C320.42 36.7363 320.789 36.584 321.207 36.584C321.227 36.584 321.26 36.5859 321.307 36.5898C321.354 36.5938 321.434 36.6016 321.547 36.6133V37.7266C321.484 37.7148 321.426 37.707 321.371 37.7031C321.32 37.6992 321.264 37.6973 321.201 37.6973C320.67 37.6973 320.262 37.8691 319.977 38.2129C319.691 38.5527 319.549 38.9453 319.549 39.3906V43H318.494V36.7246ZM289.42 48.7539H290.492V55H289.42V48.7539ZM289.42 46.3926H290.492V47.5879H289.42V46.3926ZM292.092 48.7246H293.135V49.6152C293.385 49.3066 293.611 49.082 293.814 48.9414C294.162 48.7031 294.557 48.584 294.998 48.584C295.498 48.584 295.9 48.707 296.205 48.9531C296.377 49.0938 296.533 49.3008 296.674 49.5742C296.908 49.2383 297.184 48.9902 297.5 48.8301C297.816 48.666 298.172 48.584 298.566 48.584C299.41 48.584 299.984 48.8887 300.289 49.498C300.453 49.8262 300.535 50.2676 300.535 50.8223V55H299.439V50.6406C299.439 50.2227 299.334 49.9355 299.123 49.7793C298.916 49.623 298.662 49.5449 298.361 49.5449C297.947 49.5449 297.59 49.6836 297.289 49.9609C296.992 50.2383 296.844 50.7012 296.844 51.3496V55H295.771V50.9043C295.771 50.4785 295.721 50.168 295.619 49.9727C295.459 49.6797 295.16 49.5332 294.723 49.5332C294.324 49.5332 293.961 49.6875 293.633 49.9961C293.309 50.3047 293.146 50.8633 293.146 51.6719V55H292.092V48.7246ZM302.896 53.3301C302.896 53.6348 303.008 53.875 303.23 54.0508C303.453 54.2266 303.717 54.3145 304.021 54.3145C304.393 54.3145 304.752 54.2285 305.1 54.0566C305.686 53.7715 305.979 53.3047 305.979 52.6562V51.8066C305.85 51.8887 305.684 51.957 305.48 52.0117C305.277 52.0664 305.078 52.1055 304.883 52.1289L304.244 52.2109C303.861 52.2617 303.574 52.3418 303.383 52.4512C303.059 52.6348 302.896 52.9277 302.896 53.3301ZM305.451 51.1973C305.693 51.166 305.855 51.0645 305.938 50.8926C305.984 50.7988 306.008 50.6641 306.008 50.4883C306.008 50.1289 305.879 49.8691 305.621 49.709C305.367 49.5449 305.002 49.4629 304.525 49.4629C303.975 49.4629 303.584 49.6113 303.354 49.9082C303.225 50.0723 303.141 50.3164 303.102 50.6406H302.117C302.137 49.8672 302.387 49.3301 302.867 49.0293C303.352 48.7246 303.912 48.5723 304.549 48.5723C305.287 48.5723 305.887 48.7129 306.348 48.9941C306.805 49.2754 307.033 49.7129 307.033 50.3066V53.9219C307.033 54.0312 307.055 54.1191 307.098 54.1855C307.145 54.252 307.24 54.2852 307.385 54.2852C307.432 54.2852 307.484 54.2832 307.543 54.2793C307.602 54.2715 307.664 54.2617 307.73 54.25V55.0293C307.566 55.0762 307.441 55.1055 307.355 55.1172C307.27 55.1289 307.152 55.1348 307.004 55.1348C306.641 55.1348 306.377 55.0059 306.213 54.748C306.127 54.6113 306.066 54.418 306.031 54.168C305.816 54.4492 305.508 54.6934 305.105 54.9004C304.703 55.1074 304.26 55.2109 303.775 55.2109C303.193 55.2109 302.717 55.0352 302.346 54.6836C301.979 54.3281 301.795 53.8848 301.795 53.3535C301.795 52.7715 301.977 52.3203 302.34 52C302.703 51.6797 303.18 51.4824 303.77 51.4082L305.451 51.1973ZM310.982 48.6133C311.475 48.6133 311.904 48.7344 312.271 48.9766C312.471 49.1133 312.674 49.3125 312.881 49.5742V48.7832H313.854V54.4902C313.854 55.2871 313.736 55.916 313.502 56.377C313.064 57.2285 312.238 57.6543 311.023 57.6543C310.348 57.6543 309.779 57.502 309.318 57.1973C308.857 56.8965 308.6 56.4238 308.545 55.7793H309.617C309.668 56.0605 309.77 56.2773 309.922 56.4297C310.16 56.6641 310.535 56.7812 311.047 56.7812C311.855 56.7812 312.385 56.4961 312.635 55.9258C312.783 55.5898 312.852 54.9902 312.84 54.127C312.629 54.4473 312.375 54.6855 312.078 54.8418C311.781 54.998 311.389 55.0762 310.9 55.0762C310.221 55.0762 309.625 54.8359 309.113 54.3555C308.605 53.8711 308.352 53.0723 308.352 51.959C308.352 50.9082 308.607 50.0879 309.119 49.498C309.635 48.9082 310.256 48.6133 310.982 48.6133ZM312.881 51.8359C312.881 51.0586 312.721 50.4824 312.4 50.1074C312.08 49.7324 311.672 49.5449 311.176 49.5449C310.434 49.5449 309.926 49.8926 309.652 50.5879C309.508 50.959 309.436 51.4453 309.436 52.0469C309.436 52.7539 309.578 53.293 309.863 53.6641C310.152 54.0312 310.539 54.2148 311.023 54.2148C311.781 54.2148 312.314 53.873 312.623 53.1895C312.795 52.8027 312.881 52.3516 312.881 51.8359ZM318.061 48.584C318.506 48.584 318.938 48.6895 319.355 48.9004C319.773 49.1074 320.092 49.377 320.311 49.709C320.521 50.0254 320.662 50.3945 320.732 50.8164C320.795 51.1055 320.826 51.5664 320.826 52.1992H316.227C316.246 52.8359 316.396 53.3477 316.678 53.7344C316.959 54.1172 317.395 54.3086 317.984 54.3086C318.535 54.3086 318.975 54.127 319.303 53.7637C319.49 53.5527 319.623 53.3086 319.701 53.0312H320.738C320.711 53.2617 320.619 53.5195 320.463 53.8047C320.311 54.0859 320.139 54.3164 319.947 54.4961C319.627 54.8086 319.23 55.0195 318.758 55.1289C318.504 55.1914 318.217 55.2227 317.896 55.2227C317.115 55.2227 316.453 54.9395 315.91 54.373C315.367 53.8027 315.096 53.0059 315.096 51.9824C315.096 50.9746 315.369 50.1562 315.916 49.5273C316.463 48.8984 317.178 48.584 318.061 48.584ZM319.742 51.3613C319.699 50.9043 319.6 50.5391 319.443 50.2656C319.154 49.7578 318.672 49.5039 317.996 49.5039C317.512 49.5039 317.105 49.6797 316.777 50.0312C316.449 50.3789 316.275 50.8223 316.256 51.3613H319.742Z" fill="#CCCCCC"/>
</g>
</g>
</g>
<g id="talk-left">
<g id="Frame 14" clip-path="url(#clip1)">
<g id="avatar_2">
<rect width="50" height="50" transform="translate(20 102)" fill="#CCCCCC"/>
<path id="avatar image_2" d="M29.8945 123.33C29.8945 123.635 30.0059 123.875 30.2285 124.051C30.4512 124.227 30.7148 124.314 31.0195 124.314C31.3906 124.314 31.75 124.229 32.0977 124.057C32.6836 123.771 32.9766 123.305 32.9766 122.656V121.807C32.8477 121.889 32.6816 121.957 32.4785 122.012C32.2754 122.066 32.0762 122.105 31.8809 122.129L31.2422 122.211C30.8594 122.262 30.5723 122.342 30.3809 122.451C30.0566 122.635 29.8945 122.928 29.8945 123.33ZM32.4492 121.197C32.6914 121.166 32.8535 121.064 32.9355 120.893C32.9824 120.799 33.0059 120.664 33.0059 120.488C33.0059 120.129 32.877 119.869 32.6191 119.709C32.3652 119.545 32 119.463 31.5234 119.463C30.9727 119.463 30.582 119.611 30.3516 119.908C30.2227 120.072 30.1387 120.316 30.0996 120.641H29.1152C29.1348 119.867 29.3848 119.33 29.8652 119.029C30.3496 118.725 30.9102 118.572 31.5469 118.572C32.2852 118.572 32.8848 118.713 33.3457 118.994C33.8027 119.275 34.0312 119.713 34.0312 120.307V123.922C34.0312 124.031 34.0527 124.119 34.0957 124.186C34.1426 124.252 34.2383 124.285 34.3828 124.285C34.4297 124.285 34.4824 124.283 34.541 124.279C34.5996 124.271 34.6621 124.262 34.7285 124.25V125.029C34.5645 125.076 34.4395 125.105 34.3535 125.117C34.2676 125.129 34.1504 125.135 34.002 125.135C33.6387 125.135 33.375 125.006 33.2109 124.748C33.125 124.611 33.0645 124.418 33.0293 124.168C32.8145 124.449 32.5059 124.693 32.1035 124.9C31.7012 125.107 31.2578 125.211 30.7734 125.211C30.1914 125.211 29.7148 125.035 29.3438 124.684C28.9766 124.328 28.793 123.885 28.793 123.354C28.793 122.771 28.9746 122.32 29.3379 122C29.7012 121.68 30.1777 121.482 30.7676 121.408L32.4492 121.197ZM36.2812 118.725L37.957 123.834L39.709 118.725H40.8633L38.4961 125H37.3711L35.0566 118.725H36.2812ZM42.5742 123.33C42.5742 123.635 42.6855 123.875 42.9082 124.051C43.1309 124.227 43.3945 124.314 43.6992 124.314C44.0703 124.314 44.4297 124.229 44.7773 124.057C45.3633 123.771 45.6562 123.305 45.6562 122.656V121.807C45.5273 121.889 45.3613 121.957 45.1582 122.012C44.9551 122.066 44.7559 122.105 44.5605 122.129L43.9219 122.211C43.5391 122.262 43.252 122.342 43.0605 122.451C42.7363 122.635 42.5742 122.928 42.5742 123.33ZM45.1289 121.197C45.3711 121.166 45.5332 121.064 45.6152 120.893C45.6621 120.799 45.6855 120.664 45.6855 120.488C45.6855 120.129 45.5566 119.869 45.2988 119.709C45.0449 119.545 44.6797 119.463 44.2031 119.463C43.6523 119.463 43.2617 119.611 43.0312 119.908C42.9023 120.072 42.8184 120.316 42.7793 120.641H41.7949C41.8145 119.867 42.0645 119.33 42.5449 119.029C43.0293 118.725 43.5898 118.572 44.2266 118.572C44.9648 118.572 45.5645 118.713 46.0254 118.994C46.4824 119.275 46.7109 119.713 46.7109 120.307V123.922C46.7109 124.031 46.7324 124.119 46.7754 124.186C46.8223 124.252 46.918 124.285 47.0625 124.285C47.1094 124.285 47.1621 124.283 47.2207 124.279C47.2793 124.271 47.3418 124.262 47.4082 124.25V125.029C47.2441 125.076 47.1191 125.105 47.0332 125.117C46.9473 125.129 46.8301 125.135 46.6816 125.135C46.3184 125.135 46.0547 125.006 45.8906 124.748C45.8047 124.611 45.7441 124.418 45.709 124.168C45.4941 124.449 45.1855 124.693 44.7832 124.9C44.3809 125.107 43.9375 125.211 43.4531 125.211C42.8711 125.211 42.3945 125.035 42.0234 124.684C41.6562 124.328 41.4727 123.885 41.4727 123.354C41.4727 122.771 41.6543 122.32 42.0176 122C42.3809 121.68 42.8574 121.482 43.4473 121.408L45.1289 121.197ZM48.6562 116.973H49.7227V118.725H50.7246V119.586H49.7227V123.682C49.7227 123.9 49.7969 124.047 49.9453 124.121C50.0273 124.164 50.1641 124.186 50.3555 124.186C50.4062 124.186 50.4609 124.186 50.5195 124.186C50.5781 124.182 50.6465 124.176 50.7246 124.168V125C50.6035 125.035 50.4766 125.061 50.3438 125.076C50.2148 125.092 50.0742 125.1 49.9219 125.1C49.4297 125.1 49.0957 124.975 48.9199 124.725C48.7441 124.471 48.6562 124.143 48.6562 123.74V119.586H47.8066V118.725H48.6562V116.973ZM52.5938 123.33C52.5938 123.635 52.7051 123.875 52.9277 124.051C53.1504 124.227 53.4141 124.314 53.7188 124.314C54.0898 124.314 54.4492 124.229 54.7969 124.057C55.3828 123.771 55.6758 123.305 55.6758 122.656V121.807C55.5469 121.889 55.3809 121.957 55.1777 122.012C54.9746 122.066 54.7754 122.105 54.5801 122.129L53.9414 122.211C53.5586 122.262 53.2715 122.342 53.0801 122.451C52.7559 122.635 52.5938 122.928 52.5938 123.33ZM55.1484 121.197C55.3906 121.166 55.5527 121.064 55.6348 120.893C55.6816 120.799 55.7051 120.664 55.7051 120.488C55.7051 120.129 55.5762 119.869 55.3184 119.709C55.0645 119.545 54.6992 119.463 54.2227 119.463C53.6719 119.463 53.2812 119.611 53.0508 119.908C52.9219 120.072 52.8379 120.316 52.7988 120.641H51.8145C51.834 119.867 52.084 119.33 52.5645 119.029C53.0488 118.725 53.6094 118.572 54.2461 118.572C54.9844 118.572 55.584 118.713 56.0449 118.994C56.502 119.275 56.7305 119.713 56.7305 120.307V123.922C56.7305 124.031 56.752 124.119 56.7949 124.186C56.8418 124.252 56.9375 124.285 57.082 124.285C57.1289 124.285 57.1816 124.283 57.2402 124.279C57.2988 124.271 57.3613 124.262 57.4277 124.25V125.029C57.2637 125.076 57.1387 125.105 57.0527 125.117C56.9668 125.129 56.8496 125.135 56.7012 125.135C56.3379 125.135 56.0742 125.006 55.9102 124.748C55.8242 124.611 55.7637 124.418 55.7285 124.168C55.5137 124.449 55.2051 124.693 54.8027 124.9C54.4004 125.107 53.957 125.211 53.4727 125.211C52.8906 125.211 52.4141 125.035 52.043 124.684C51.6758 124.328 51.4922 123.885 51.4922 123.354C51.4922 122.771 51.6738 122.32 52.0371 122C52.4004 121.68 52.877 121.482 53.4668 121.408L55.1484 121.197ZM58.4941 118.725H59.4961V119.809C59.5781 119.598 59.7793 119.342 60.0996 119.041C60.4199 118.736 60.7891 118.584 61.207 118.584C61.2266 118.584 61.2598 118.586 61.3066 118.59C61.3535 118.594 61.4336 118.602 61.5469 118.613V119.727C61.4844 119.715 61.4258 119.707 61.3711 119.703C61.3203 119.699 61.2637 119.697 61.2012 119.697C60.6699 119.697 60.2617 119.869 59.9766 120.213C59.6914 120.553 59.5488 120.945 59.5488 121.391V125H58.4941V118.725ZM29.4199 130.754H30.4922V137H29.4199V130.754ZM29.4199 128.393H30.4922V129.588H29.4199V128.393ZM32.0918 130.725H33.1348V131.615C33.3848 131.307 33.6113 131.082 33.8145 130.941C34.1621 130.703 34.5566 130.584 34.998 130.584C35.498 130.584 35.9004 130.707 36.2051 130.953C36.377 131.094 36.5332 131.301 36.6738 131.574C36.9082 131.238 37.1836 130.99 37.5 130.83C37.8164 130.666 38.1719 130.584 38.5664 130.584C39.4102 130.584 39.9844 130.889 40.2891 131.498C40.4531 131.826 40.5352 132.268 40.5352 132.822V137H39.4395V132.641C39.4395 132.223 39.334 131.936 39.123 131.779C38.916 131.623 38.6621 131.545 38.3613 131.545C37.9473 131.545 37.5898 131.684 37.2891 131.961C36.9922 132.238 36.8438 132.701 36.8438 133.35V137H35.7715V132.904C35.7715 132.479 35.7207 132.168 35.6191 131.973C35.459 131.68 35.1602 131.533 34.7227 131.533C34.3242 131.533 33.9609 131.688 33.6328 131.996C33.3086 132.305 33.1465 132.863 33.1465 133.672V137H32.0918V130.725ZM42.8965 135.33C42.8965 135.635 43.0078 135.875 43.2305 136.051C43.4531 136.227 43.7168 136.314 44.0215 136.314C44.3926 136.314 44.752 136.229 45.0996 136.057C45.6855 135.771 45.9785 135.305 45.9785 134.656V133.807C45.8496 133.889 45.6836 133.957 45.4805 134.012C45.2773 134.066 45.0781 134.105 44.8828 134.129L44.2441 134.211C43.8613 134.262 43.5742 134.342 43.3828 134.451C43.0586 134.635 42.8965 134.928 42.8965 135.33ZM45.4512 133.197C45.6934 133.166 45.8555 133.064 45.9375 132.893C45.9844 132.799 46.0078 132.664 46.0078 132.488C46.0078 132.129 45.8789 131.869 45.6211 131.709C45.3672 131.545 45.002 131.463 44.5254 131.463C43.9746 131.463 43.584 131.611 43.3535 131.908C43.2246 132.072 43.1406 132.316 43.1016 132.641H42.1172C42.1367 131.867 42.3867 131.33 42.8672 131.029C43.3516 130.725 43.9121 130.572 44.5488 130.572C45.2871 130.572 45.8867 130.713 46.3477 130.994C46.8047 131.275 47.0332 131.713 47.0332 132.307V135.922C47.0332 136.031 47.0547 136.119 47.0977 136.186C47.1445 136.252 47.2402 136.285 47.3848 136.285C47.4316 136.285 47.4844 136.283 47.543 136.279C47.6016 136.271 47.6641 136.262 47.7305 136.25V137.029C47.5664 137.076 47.4414 137.105 47.3555 137.117C47.2695 137.129 47.1523 137.135 47.0039 137.135C46.6406 137.135 46.377 137.006 46.2129 136.748C46.127 136.611 46.0664 136.418 46.0312 136.168C45.8164 136.449 45.5078 136.693 45.1055 136.9C44.7031 137.107 44.2598 137.211 43.7754 137.211C43.1934 137.211 42.7168 137.035 42.3457 136.684C41.9785 136.328 41.7949 135.885 41.7949 135.354C41.7949 134.771 41.9766 134.32 42.3398 134C42.7031 133.68 43.1797 133.482 43.7695 133.408L45.4512 133.197ZM50.9824 130.613C51.4746 130.613 51.9043 130.734 52.2715 130.977C52.4707 131.113 52.6738 131.312 52.8809 131.574V130.783H53.8535V136.49C53.8535 137.287 53.7363 137.916 53.502 138.377C53.0645 139.229 52.2383 139.654 51.0234 139.654C50.3477 139.654 49.7793 139.502 49.3184 139.197C48.8574 138.896 48.5996 138.424 48.5449 137.779H49.6172C49.668 138.061 49.7695 138.277 49.9219 138.43C50.1602 138.664 50.5352 138.781 51.0469 138.781C51.8555 138.781 52.3848 138.496 52.6348 137.926C52.7832 137.59 52.8516 136.99 52.8398 136.127C52.6289 136.447 52.375 136.686 52.0781 136.842C51.7812 136.998 51.3887 137.076 50.9004 137.076C50.2207 137.076 49.625 136.836 49.1133 136.355C48.6055 135.871 48.3516 135.072 48.3516 133.959C48.3516 132.908 48.6074 132.088 49.1191 131.498C49.6348 130.908 50.2559 130.613 50.9824 130.613ZM52.8809 133.836C52.8809 133.059 52.7207 132.482 52.4004 132.107C52.0801 131.732 51.6719 131.545 51.1758 131.545C50.4336 131.545 49.9258 131.893 49.6523 132.588C49.5078 132.959 49.4355 133.445 49.4355 134.047C49.4355 134.754 49.5781 135.293 49.8633 135.664C50.1523 136.031 50.5391 136.215 51.0234 136.215C51.7812 136.215 52.3145 135.873 52.623 135.189C52.7949 134.803 52.8809 134.352 52.8809 133.836ZM58.0605 130.584C58.5059 130.584 58.9375 130.689 59.3555 130.9C59.7734 131.107 60.0918 131.377 60.3105 131.709C60.5215 132.025 60.6621 132.395 60.7324 132.816C60.7949 133.105 60.8262 133.566 60.8262 134.199H56.2266C56.2461 134.836 56.3965 135.348 56.6777 135.734C56.959 136.117 57.3945 136.309 57.9844 136.309C58.5352 136.309 58.9746 136.127 59.3027 135.764C59.4902 135.553 59.623 135.309 59.7012 135.031H60.7383C60.7109 135.262 60.6191 135.52 60.4629 135.805C60.3105 136.086 60.1387 136.316 59.9473 136.496C59.627 136.809 59.2305 137.02 58.7578 137.129C58.5039 137.191 58.2168 137.223 57.8965 137.223C57.1152 137.223 56.4531 136.939 55.9102 136.373C55.3672 135.803 55.0957 135.006 55.0957 133.982C55.0957 132.975 55.3691 132.156 55.916 131.527C56.4629 130.898 57.1777 130.584 58.0605 130.584ZM59.7422 133.361C59.6992 132.904 59.5996 132.539 59.4434 132.266C59.1543 131.758 58.6719 131.504 57.9961 131.504C57.5117 131.504 57.1055 131.68 56.7773 132.031C56.4492 132.379 56.2754 132.822 56.2559 133.361H59.7422Z" fill="#CCCCCC"/>
</g>
<path id="Vector_2" d="M85 118.25L75 127L85 135.75L85 118.25Z" fill="#EEEEEE"/>
</g>
<g id="Frame 12_2" clip-path="url(#clip2)">
<rect width="245" height="67" transform="translate(85 102)" fill="#EEEEEE"/>
<rect id="Rectangle 7_2" x="95" y="112" width="215" height="10" fill="#666666"/>
<rect id="Rectangle 12" x="95" y="123" width="223" height="10" fill="#666666"/>
<rect id="Rectangle 15" x="95" y="134" width="206" height="10" fill="#666666"/>
<rect id="Rectangle 11_2" x="95" y="145" width="225" height="3" fill="#EEEEEE"/>
<g id="Frame 15_3">
<rect id="Rectangle 13_2" x="95" y="149" width="50" height="10" fill="#CCCCCC"/>
<rect id="Rectangle 16_2" x="150" y="149" width="50" height="10" fill="#CCCCCC"/>
</g>
</g>
</g>
<g id="location">
<rect width="310" height="327" transform="translate(20 184)" fill="#EEEEEE"/>
<g id="Frame 16">
<g id="ok">
<path id="Vector_3" d="M48.2902 204.669V198.573C48.2902 197.36 47.8085 196.197 46.951 195.339C46.0934 194.482 44.9304 194 43.7177 194L37.6209 207.718L33.0484 216.101L37.6209 224.484H54.8137C55.5489 224.492 56.2623 224.234 56.8225 223.758C57.3827 223.282 57.7519 222.619 57.8621 221.893L59.9655 208.175C60.0318 207.738 60.0023 207.292 59.8791 206.868C59.7559 206.443 59.5419 206.051 59.2519 205.717C58.962 205.384 58.603 205.117 58.1998 204.936C57.7967 204.755 57.359 204.664 56.9171 204.669H48.2902ZM37.6209 224.484H33.0484C32.2399 224.484 31.4645 224.163 30.8928 223.591C30.3212 223.019 30 222.244 30 221.435V210.766C30 209.958 30.3212 209.182 30.8928 208.611C31.4645 208.039 32.2399 207.718 33.0484 207.718H37.6209" fill="#666666"/>
</g>
<g id="Frame 13">
<path id="Rectangle 9_2" d="M70 194H158V206H70V194Z" fill="#666666"/>
<rect id="Rectangle 10" x="70" y="207" width="250" height="3" fill="#EEEEEE"/>
<rect id="Rectangle 7_3" x="70" y="211" width="224" height="10" fill="#999999"/>
<rect id="Rectangle 9_3" x="70" y="222" width="76" height="10" fill="#999999"/>
<g id="Frame 17">
<g id="Frame 2">
<rect x="70" y="243" width="68" height="23" rx="11.5" fill="#666666"/>
<path id="#pickup" d="M87.9834 255.227L88.3789 253.801H87.5684L87.1875 255.227H87.9834ZM85.2197 255.227H86.2109L86.5967 253.801H85.6006L85.8203 252.98H86.8164L87.3486 251.013H88.3203L87.7881 252.98H88.5986L89.1162 251.013H90.0879L89.5703 252.98H90.5518L90.332 253.801H89.3506L88.9551 255.227H89.9512L89.7314 256.047H88.7354L88.2129 258H87.2412L87.7637 256.047H86.9629L86.4307 258H85.459L85.9912 256.047H85L85.2197 255.227ZM94.8828 255.339C94.8828 254.929 94.7884 254.566 94.5996 254.25C94.4141 253.934 94.1113 253.776 93.6914 253.776C93.1868 253.776 92.8402 254.016 92.6514 254.494C92.5537 254.748 92.5049 255.07 92.5049 255.461C92.5049 256.079 92.6693 256.514 92.998 256.765C93.1934 256.911 93.4245 256.984 93.6914 256.984C94.0788 256.984 94.3734 256.835 94.5752 256.535C94.7803 256.236 94.8828 255.837 94.8828 255.339ZM94.0918 252.561C94.7135 252.561 95.2393 252.79 95.6689 253.249C96.1019 253.708 96.3184 254.382 96.3184 255.271C96.3184 256.208 96.1068 256.923 95.6836 257.414C95.2637 257.906 94.7217 258.151 94.0576 258.151C93.6344 258.151 93.2829 258.046 93.0029 257.834C92.8499 257.717 92.7002 257.546 92.5537 257.321V260.095H91.1768V252.678H92.5098V253.464C92.6595 253.233 92.819 253.05 92.9883 252.917C93.2975 252.679 93.6654 252.561 94.0918 252.561ZM98.7598 252.043H97.3486V250.759H98.7598V252.043ZM97.3486 252.678H98.7598V258H97.3486V252.678ZM103.291 254.587C103.265 254.388 103.198 254.209 103.091 254.05C102.935 253.835 102.692 253.728 102.363 253.728C101.895 253.728 101.574 253.96 101.401 254.426C101.31 254.673 101.265 255.002 101.265 255.412C101.265 255.803 101.31 256.117 101.401 256.354C101.567 256.797 101.88 257.019 102.339 257.019C102.664 257.019 102.896 256.931 103.032 256.755C103.169 256.579 103.252 256.351 103.281 256.071H104.702C104.67 256.494 104.517 256.895 104.243 257.272C103.807 257.881 103.161 258.186 102.305 258.186C101.449 258.186 100.819 257.932 100.415 257.424C100.011 256.916 99.8096 256.257 99.8096 255.446C99.8096 254.532 100.033 253.82 100.479 253.312C100.924 252.805 101.54 252.551 102.324 252.551C102.992 252.551 103.537 252.701 103.96 253C104.386 253.299 104.639 253.828 104.717 254.587H103.291ZM105.664 250.827H107.031V254.704L108.765 252.702H110.488L108.628 254.738L110.562 258H108.882L107.607 255.725L107.031 256.325V258H105.664V250.827ZM112.632 252.678V255.886C112.632 256.188 112.668 256.416 112.739 256.569C112.866 256.84 113.115 256.975 113.486 256.975C113.962 256.975 114.287 256.783 114.463 256.398C114.554 256.19 114.6 255.915 114.6 255.573V252.678H116.011V258H114.658V257.248C114.645 257.264 114.613 257.313 114.561 257.395C114.508 257.476 114.447 257.548 114.375 257.609C114.157 257.805 113.945 257.938 113.74 258.01C113.538 258.081 113.301 258.117 113.027 258.117C112.24 258.117 111.709 257.834 111.436 257.268C111.283 256.955 111.206 256.494 111.206 255.886V252.678H112.632ZM121.025 255.339C121.025 254.929 120.931 254.566 120.742 254.25C120.557 253.934 120.254 253.776 119.834 253.776C119.329 253.776 118.983 254.016 118.794 254.494C118.696 254.748 118.647 255.07 118.647 255.461C118.647 256.079 118.812 256.514 119.141 256.765C119.336 256.911 119.567 256.984 119.834 256.984C120.221 256.984 120.516 256.835 120.718 256.535C120.923 256.236 121.025 255.837 121.025 255.339ZM120.234 252.561C120.856 252.561 121.382 252.79 121.812 253.249C122.244 253.708 122.461 254.382 122.461 255.271C122.461 256.208 122.249 256.923 121.826 257.414C121.406 257.906 120.864 258.151 120.2 258.151C119.777 258.151 119.425 258.046 119.146 257.834C118.993 257.717 118.843 257.546 118.696 257.321V260.095H117.319V252.678H118.652V253.464C118.802 253.233 118.962 253.05 119.131 252.917C119.44 252.679 119.808 252.561 120.234 252.561Z" fill="white"/>
</g>
<path id="Rectangle 11_3" d="M148 249.5H188V259.5H148V249.5Z" fill="#999999"/>
<path id="Rectangle 12_2" d="M198 249.5H221V259.5H198V249.5Z" fill="#999999"/>
<path id="Rectangle 13_3" d="M231 249.5H275V259.5H231V249.5Z" fill="#999999"/>
</g>
</g>
</g>
<g id="Group 10">
<g id="Group 11">
<path id="Vector 5" d="M158 411.5L238 334L199 311.5" stroke="#999999" stroke-width="3"/>
<g id="Group 9">
<circle id="Ellipse" opacity="0.2" cx="198.5" cy="311" r="16" fill="#999999"/>
<circle id="Ellipse_2" cx="199" cy="310.5" r="7.5" fill="#999999"/>
</g>
<g id="Group 6">
<g id="Oval 5" filter="url(#filter0_d)">
<path fill-rule="evenodd" clip-rule="evenodd" d="M147.5 442C158.546 442 167.5 433.046 167.5 422C167.5 410.954 158.546 402 147.5 402C136.454 402 127.5 410.954 127.5 422C127.5 433.046 136.454 442 147.5 442Z" fill="#999999"/>
</g>
<g id="navigation">
<path id="Shape" fill-rule="evenodd" clip-rule="evenodd" d="M141.5 421.684L153.5 416L147.816 428L146.553 422.947L141.5 421.684V421.684Z" stroke="white" stroke-width="1.5" stroke-linecap="round" stroke-linejoin="round"/>
</g>
</g>
</g>
<g id="talk-right_2" clip-path="url(#clip3)">
<g id="Frame 12_3" clip-path="url(#clip4)">
<rect width="82" height="52" transform="translate(83.5 286)" fill="white"/>
<rect id="Rectangle 7_4" x="97.5" y="296" width="58" height="10" fill="#999999"/>
<rect id="Rectangle 14_2" x="93.5" y="307" width="62" height="10" fill="#999999"/>
<rect id="Rectangle 9_4" x="136.5" y="318" width="19" height="10" fill="#999999"/>
</g>
<path id="Vector_4" d="M165.5 320.75L175.5 312L165.5 303.25V320.75Z" fill="white"/>
</g>
<g id="talk-right_3" clip-path="url(#clip5)">
<g id="Frame 12_4" clip-path="url(#clip6)">
<rect width="82" height="52" transform="matrix(-1 0 0 1 266.5 395)" fill="white"/>
<rect id="Rectangle 7_5" width="58" height="10" transform="matrix(-1 0 0 1 252.5 405)" fill="#999999"/>
<rect id="Rectangle 14_3" width="62" height="10" transform="matrix(-1 0 0 1 256.5 416)" fill="#999999"/>
<rect id="Rectangle 9_5" width="19" height="10" transform="matrix(-1 0 0 1 213.5 427)" fill="#999999"/>
</g>
<path id="Vector_5" d="M184.5 429.75L174.5 421L184.5 412.25V429.75Z" fill="white"/>
</g>
</g>
<rect id="Rectangle 17" x="293" y="457" width="27" height="3" fill="#EEEEEE"/>
<g id="Frame 20">
<rect x="30" y="470" width="290" height="31" rx="3" fill="#666666"/>
<path id="I Accept" d="M157.856 489H156.362V481.803H157.856V489ZM163.643 486.28H165.469L164.57 483.448L163.643 486.28ZM163.735 481.803H165.435L167.983 489H166.353L165.889 487.521H163.237L162.739 489H161.167L163.735 481.803ZM171.968 485.587C171.942 485.388 171.875 485.209 171.768 485.05C171.611 484.835 171.369 484.728 171.04 484.728C170.571 484.728 170.251 484.96 170.078 485.426C169.987 485.673 169.941 486.002 169.941 486.412C169.941 486.803 169.987 487.117 170.078 487.354C170.244 487.797 170.557 488.019 171.016 488.019C171.341 488.019 171.572 487.931 171.709 487.755C171.846 487.579 171.929 487.351 171.958 487.071H173.379C173.346 487.494 173.193 487.895 172.92 488.272C172.484 488.881 171.838 489.186 170.981 489.186C170.125 489.186 169.495 488.932 169.092 488.424C168.688 487.916 168.486 487.257 168.486 486.446C168.486 485.532 168.709 484.82 169.155 484.312C169.601 483.805 170.216 483.551 171.001 483.551C171.668 483.551 172.214 483.701 172.637 484C173.063 484.299 173.315 484.828 173.394 485.587H171.968ZM177.534 485.587C177.508 485.388 177.441 485.209 177.334 485.05C177.178 484.835 176.935 484.728 176.606 484.728C176.138 484.728 175.817 484.96 175.645 485.426C175.553 485.673 175.508 486.002 175.508 486.412C175.508 486.803 175.553 487.117 175.645 487.354C175.811 487.797 176.123 488.019 176.582 488.019C176.908 488.019 177.139 487.931 177.275 487.755C177.412 487.579 177.495 487.351 177.524 487.071H178.945C178.913 487.494 178.76 487.895 178.486 488.272C178.05 488.881 177.404 489.186 176.548 489.186C175.692 489.186 175.062 488.932 174.658 488.424C174.255 487.916 174.053 487.257 174.053 486.446C174.053 485.532 174.276 484.82 174.722 484.312C175.168 483.805 175.783 483.551 176.567 483.551C177.235 483.551 177.78 483.701 178.203 484C178.63 484.299 178.882 484.828 178.96 485.587H177.534ZM182.021 484.684C181.699 484.684 181.449 484.785 181.27 484.986C181.094 485.188 180.983 485.462 180.938 485.807H183.101C183.078 485.439 182.965 485.16 182.764 484.972C182.565 484.78 182.318 484.684 182.021 484.684ZM182.021 483.536C182.464 483.536 182.863 483.619 183.218 483.785C183.573 483.951 183.866 484.213 184.097 484.571C184.305 484.887 184.44 485.253 184.502 485.67C184.538 485.914 184.552 486.266 184.546 486.725H180.903C180.923 487.258 181.09 487.633 181.406 487.848C181.598 487.981 181.829 488.048 182.1 488.048C182.386 488.048 182.619 487.966 182.798 487.804C182.896 487.716 182.982 487.594 183.057 487.438H184.478C184.442 487.753 184.277 488.074 183.984 488.399C183.529 488.917 182.891 489.176 182.07 489.176C181.393 489.176 180.796 488.958 180.278 488.521C179.761 488.085 179.502 487.376 179.502 486.393C179.502 485.471 179.735 484.765 180.2 484.273C180.669 483.782 181.276 483.536 182.021 483.536ZM189.155 486.339C189.155 485.929 189.061 485.566 188.872 485.25C188.687 484.934 188.384 484.776 187.964 484.776C187.459 484.776 187.113 485.016 186.924 485.494C186.826 485.748 186.777 486.07 186.777 486.461C186.777 487.079 186.942 487.514 187.271 487.765C187.466 487.911 187.697 487.984 187.964 487.984C188.351 487.984 188.646 487.835 188.848 487.535C189.053 487.236 189.155 486.837 189.155 486.339ZM188.364 483.561C188.986 483.561 189.512 483.79 189.941 484.249C190.374 484.708 190.591 485.382 190.591 486.271C190.591 487.208 190.379 487.923 189.956 488.414C189.536 488.906 188.994 489.151 188.33 489.151C187.907 489.151 187.555 489.046 187.275 488.834C187.122 488.717 186.973 488.546 186.826 488.321V491.095H185.449V483.678H186.782V484.464C186.932 484.233 187.091 484.05 187.261 483.917C187.57 483.679 187.938 483.561 188.364 483.561ZM191.055 484.718V483.727H191.797V482.242H193.174V483.727H194.038V484.718H193.174V487.53C193.174 487.748 193.201 487.885 193.257 487.94C193.312 487.993 193.481 488.019 193.765 488.019C193.807 488.019 193.851 488.019 193.896 488.019C193.945 488.015 193.993 488.012 194.038 488.009V489.049L193.379 489.073C192.721 489.096 192.272 488.982 192.031 488.731C191.875 488.572 191.797 488.326 191.797 487.994V484.718H191.055Z" fill="white"/>
</g>
</g>
</g>
<defs>
<filter id="filter0_d" x="107.5" y="387" width="80" height="80" filterUnits="userSpaceOnUse" color-interpolation-filters="sRGB">
<feFlood flood-opacity="0" result="BackgroundImageFix"/>
<feColorMatrix in="SourceAlpha" type="matrix" values="0 0 0 0 0 0 0 0 0 0 0 0 0 0 0 0 0 0 127 0"/>
<feOffset dy="5"/>
<feGaussianBlur stdDeviation="10"/>
<feColorMatrix type="matrix" values="0 0 0 0 0.376471 0 0 0 0 0.392157 0 0 0 0 0.439216 0 0 0 0.1 0"/>
<feBlend mode="normal" in2="BackgroundImageFix" result="effect1_dropShadow"/>
<feBlend mode="normal" in="SourceGraphic" in2="effect1_dropShadow" result="shape"/>
</filter>
<clipPath id="clip0">
<rect width="245" height="67" fill="white" transform="translate(20 20)"/>
</clipPath>
<clipPath id="clip1">
<rect width="65" height="50" fill="white" transform="translate(20 102)"/>
</clipPath>
<clipPath id="clip2">
<rect width="245" height="67" fill="white" transform="translate(85 102)"/>
</clipPath>
<clipPath id="clip3">
<rect width="92" height="52" fill="white" transform="translate(83.5 286)"/>
</clipPath>
<clipPath id="clip4">
<rect width="82" height="52" fill="white" transform="translate(83.5 286)"/>
</clipPath>
<clipPath id="clip5">
<rect width="92" height="52" fill="white" transform="matrix(-1 0 0 1 266.5 395)"/>
</clipPath>
<clipPath id="clip6">
<rect width="82" height="52" fill="white" transform="matrix(-1 0 0 1 266.5 395)"/>
</clipPath>
</defs>
</svg>
