<svg width="450" height="463" viewBox="0 0 450 463" fill="none" xmlns="http://www.w3.org/2000/svg">
<g id="story1-4">
<g id="Group 12">
<g id="Group 13">
<path id="Vector 6" d="M162.059 221.393L219 272.466L126.838 357L97.4867 324.713H41.7198L20 205.543L57.5693 197.324L70.4838 149.773L162.059 127.466L200.802 176.19L162.059 221.393Z" fill="white"/>
<path id="Subtract" fill-rule="evenodd" clip-rule="evenodd" d="M164.467 320.648C163.007 314.958 160.177 308.538 152.936 294.39L148.189 285.14L148.372 281.611L148.38 281.459C148.533 278.596 148.614 277.092 148.999 277.01C149.425 276.919 150.223 278.566 151.904 282.036L151.992 282.219C157.378 293.264 163.676 309.299 165.654 316.845C166.475 320.07 166.81 323.538 166.323 324.025C165.867 324.451 165.076 323.021 164.467 320.648ZM112.529 315.019C110.491 314.593 107.722 313.315 105.014 311.581C102.093 309.664 100.389 308.264 96.6771 304.674L93.6345 301.692L93.0868 302.94C92.7826 303.64 91.961 304.735 91.2917 305.404C89.8312 306.804 85.8453 308.812 83.5025 309.329C81.4944 309.755 78.33 309.542 76.474 308.873C75.7133 308.599 74.6484 308.325 74.1007 308.264C73.5226 308.173 72.762 307.838 72.3969 307.504C71.3319 306.5 70.0845 303.731 69.3847 300.779L68.7457 298.102L67.2548 297.919C64.0905 297.554 60.2263 295.09 58.6746 292.443C57.4271 290.313 57.1532 288.426 57.7314 286.357C58.0356 285.384 58.6137 284.045 59.0397 283.406L59.8004 282.25L58.705 280.941C56.7881 278.69 56.5447 276.195 58.0661 274.004C59.1005 272.513 60.5914 272.057 64.273 272.027C67.5895 272.027 69.5672 272.574 71.5754 274.035C72.9445 275.008 74.2833 276.895 74.5267 278.234L74.7093 279.085L76.261 278.659C77.4781 278.355 78.2387 278.325 79.6079 278.599C80.612 278.751 81.4639 278.872 81.5248 278.781C81.5856 278.72 80.4294 276.225 78.969 273.213C77.4781 270.231 75.5308 265.88 74.6484 263.598C73.6444 260.982 72.8533 259.339 72.549 259.247C71.3624 258.882 67.1635 258.487 62.3866 258.304L57.3054 258.091V258.882C57.3054 260.373 58.5529 266.154 59.4657 268.893C59.9829 270.384 60.3176 271.783 60.2567 271.966C60.1046 272.483 56.5447 265.272 55.8145 262.899C55.4494 261.742 55.1147 260.191 55.0538 259.46C54.993 258.73 54.8713 258.091 54.78 258C54.6887 257.909 54.9626 257.483 55.3885 257.026L56.1492 256.205L56.6664 256.874L57.2141 257.544L59.4048 256.965C62.7821 256.083 70.3279 255.049 72.2447 255.231C74.7701 255.444 77.5389 257.148 78.0562 258.791C78.33 259.613 77.7215 260.312 76.7478 260.312C75.9568 260.312 75.8655 260.373 76.1697 260.921C76.3523 261.225 77.3868 263.933 78.4822 266.915C79.5775 269.866 80.7033 272.452 80.9771 272.665C81.2509 272.848 82.2246 273.244 83.1374 273.548C85.9975 274.43 87.0928 275.16 90.4701 278.355C95.4905 283.132 98.0768 284.471 102.336 284.44C104.345 284.44 105.349 284.258 106.9 283.68C111.008 282.098 115.785 279.329 118.432 277.016C122.935 273.031 126.769 265.272 127.195 259.156C127.286 257.787 127.499 256.57 127.621 256.479C127.773 256.387 128.138 256.479 128.473 256.631C131.302 258.152 128.899 269.379 124.426 275.678C120.045 281.793 110.643 287.088 104.101 287.088C100.906 287.088 96.7684 285.353 94.03 282.828L92.2957 281.246L92.813 282.584C93.1781 283.528 93.3302 285.14 93.4215 288.548L93.5128 293.173H92.7217C92.1436 293.173 91.8698 292.929 91.5046 292.108C91.2917 291.53 91.0787 290.617 91.0787 290.069C91.0787 289.522 90.8048 287.757 90.4701 286.175C89.3444 280.728 86.606 276.53 82.7114 274.309C81.7682 273.761 80.9467 273.365 80.9163 273.426C80.8554 273.487 80.9771 274.096 81.1901 274.765C81.5248 275.83 81.5856 275.891 81.6161 275.16C81.6465 274.674 81.7682 274.309 81.9203 274.309C82.2246 274.309 82.5593 276.104 82.5593 277.929C82.5593 279.116 82.7114 279.39 83.7459 280.303C85.1151 281.459 86.2105 283.528 86.18 284.836L86.1496 285.718L85.9366 284.806C85.3889 282.584 83.3504 280.941 80.6729 280.576C77.6911 280.15 75.0135 281.733 73.7356 284.745C72.1839 288.274 71.4232 298.315 72.3664 302.727C73.2488 306.834 74.8614 308.173 78.9081 308.173C81.6769 308.173 83.7155 307.443 86.8798 305.374C90.5006 303.001 92.174 300.749 91.3829 299.289C91.1091 298.741 91.1395 298.65 91.6568 298.65C92.9651 298.65 93.8171 299.228 93.8171 300.08C93.8171 300.81 94.3647 301.297 98.0159 303.913C104.984 308.842 111.221 311.52 115.876 311.49C117.032 311.49 120.136 311.124 122.722 310.668C127.195 309.907 127.469 309.816 128.29 308.903C129.842 307.169 137.661 290.556 141.313 281.307C143.169 276.59 144.081 274.552 144.507 274.126C144.69 273.913 144.994 272.544 145.207 271.083C145.816 266.763 147.702 255.688 148.006 254.471C148.463 252.736 149.193 252.949 149.193 254.805C149.193 257.148 147.733 269.745 147.094 272.878C146.759 274.4 146.424 276.499 146.303 277.503C146.181 278.507 145.877 279.664 145.664 280.09C145.451 280.515 144.66 282.493 143.899 284.501C142.134 289.37 138.513 297.615 136.87 300.627C135.045 304.005 132.093 308.112 129.568 310.79C127.864 312.585 126.982 313.254 125.156 314.106C123.909 314.684 122.448 315.262 121.961 315.384C120.775 315.688 114.477 315.445 112.529 315.019ZM193.494 296.55C193.22 295.79 192.612 293.355 192.125 291.165C191.638 288.974 190.634 285.414 189.934 283.284C185.948 271.327 176.79 258.274 165.502 248.507C163.828 247.046 160.786 244.369 158.777 242.574C154.883 239.044 151.566 236.732 145.603 233.263C143.564 232.046 141.891 231.042 141.891 230.981C141.891 230.86 149.102 233.507 153.574 235.271C157.408 236.793 163.767 240.109 166.384 241.996C169.214 244.004 173.838 248.203 176.82 251.489C185.705 261.286 190.603 270.11 193.524 281.611C195.259 288.366 196.171 296.216 195.563 298.589L195.35 299.289L194.65 298.619C194.255 298.254 193.737 297.311 193.494 296.55ZM138.939 267.767C134.497 259.034 130.755 252.645 127.56 248.385C126.586 247.077 125.886 246.012 125.978 246.012C126.343 246.012 131.454 251.215 134.649 254.836C138.057 258.669 143.412 265.576 143.412 266.093C143.412 266.246 143.138 266.824 142.834 267.371C142.53 267.919 142.165 269.045 142.043 269.866C141.739 272.087 141.586 272.392 141.069 271.692C140.826 271.388 139.883 269.623 138.939 267.767ZM45.7434 252.128C45.7434 251.763 41.4837 247.503 38.3497 244.764C36.7676 243.334 35.7635 242.665 35.2463 242.665C33.8771 242.665 33.6032 240.566 34.8507 239.896C35.1854 239.714 35.7635 239.653 36.1591 239.744C37.437 240.079 39.8711 242.27 41.9096 245.008C44.0395 247.838 46.5953 252.402 46.078 252.402C45.8955 252.402 45.7434 252.28 45.7434 252.128ZM51.6156 248.416C48.147 243.913 42.3965 233.872 42.3965 232.351C42.3965 232.016 42.6703 231.59 43.0354 231.407C44.4959 230.616 45.9868 232.807 50.3377 242.057C51.7982 245.16 53.35 248.355 53.7759 249.146C54.6279 250.728 54.78 251.61 54.1715 251.428C53.9889 251.337 52.8023 249.998 51.6156 248.416ZM76.8087 243.578C77.4476 238.77 77.8432 236.945 78.8168 234.754C79.6992 232.716 80.3077 232.016 81.2205 232.016C82.3159 232.016 82.3463 232.959 81.3118 235.545C80.7945 236.884 79.6992 239.744 78.9081 241.904C76.8391 247.442 76.687 247.807 76.474 247.685C76.3827 247.625 76.5349 245.769 76.8087 243.578ZM68.8066 241.235C68.8674 240.748 68.6849 239.105 68.4414 237.614C67.8938 234.48 67.8025 231.62 68.2589 230.768C68.4414 230.434 68.8978 230.19 69.3238 230.19H70.0845V233.994C70.0845 238.345 69.5672 242.452 69.05 242.27C68.8674 242.209 68.7457 241.752 68.8066 241.235ZM58.8876 240.17C57.062 236.945 55.2668 232.959 54.7191 230.829C54.2019 228.76 54.3845 227.939 55.5407 227.574C56.6664 227.239 57.4575 228.547 58.2182 231.925C59.1918 236.306 60.348 241.235 60.5306 241.844C60.9261 243.061 60.0742 242.209 58.8876 240.17ZM114.659 233.75C113.472 233.507 112.195 233.142 111.769 232.929C110.582 232.32 109.03 230.738 109.03 230.129C109.03 229.308 109.73 229.46 110.734 230.525C112.529 232.411 113.138 232.351 114.416 230.251C115.298 228.699 115.42 228.06 116.18 220.515C116.85 213.973 116.485 211.569 114.903 212.056C114.416 212.208 113.838 213.364 112.529 216.742C110.339 222.371 108.969 224.987 107.448 226.57C105.379 228.699 100.541 230.525 96.7076 230.616C95.7035 230.616 94.7907 230.768 94.6994 230.89C94.4256 231.286 92.6913 230.282 92.1132 229.43C91.7785 228.912 91.6568 228.273 91.7481 227.513L91.9002 226.387L89.1922 226.509C85.9975 226.63 84.324 226.113 82.5289 224.501C80.5511 222.705 80.1252 219.693 81.3118 215.859C82.0116 213.608 82.2854 213.334 83.6546 213.06C85.0238 212.817 85.1455 213.121 84.111 214.186C83.1374 215.22 82.5593 217.35 82.5593 219.845C82.5593 222.553 83.6242 224.166 86.3626 225.535C87.6101 226.174 88.1273 226.296 89.6182 226.144C90.5919 226.052 91.7481 225.748 92.174 225.474C93.1477 224.835 93.4215 225.079 92.7826 225.991C91.9915 227.117 92.174 228.304 93.2694 229.338C94.1213 230.129 94.4256 230.221 95.5514 230.099C97.3769 229.916 102.276 227.421 104.132 225.748C105.531 224.501 106.079 223.588 108.604 218.507C110.186 215.312 111.738 212.36 112.042 211.965C112.529 211.356 112.925 211.204 114.507 211.113C116.546 210.991 117.002 211.204 117.732 212.604C118.584 214.277 118.767 216.498 118.493 222.158C118.219 228.06 117.884 229.338 116.15 231.62C115.481 232.503 115.45 232.655 115.876 232.807C117.763 233.537 124.304 231.012 128.747 227.847C130.755 226.417 131.637 226.265 131.789 227.33C131.911 228.273 129.507 230.221 126.191 231.864C121.84 233.994 118.706 234.511 114.659 233.75ZM142.256 227.756C140.248 227.33 139.152 226.935 138.392 226.326C137.814 225.87 137.327 225.383 137.327 225.292C137.327 225.17 138.483 223.557 139.913 221.701C141.343 219.815 142.438 218.172 142.347 218.02C142.256 217.837 142.378 217.715 142.621 217.715C142.895 217.715 143.108 217.868 143.108 218.02C143.108 218.415 144.629 218.415 146.303 217.989C149.862 217.107 151.962 213.425 152.875 206.579C153.27 203.506 153.088 202.502 151.749 200.159C150.38 197.786 146.729 196.873 143.138 198.09C141.313 198.699 138.848 200.798 137.753 202.715C136.597 204.663 136.505 204.115 137.631 201.894C138.939 199.307 140.674 197.512 143.077 196.326C144.812 195.474 145.39 195.352 147.367 195.352C148.98 195.352 149.923 195.535 150.562 195.9C151.049 196.174 151.688 196.539 151.931 196.691C152.175 196.843 152.783 197.086 153.301 197.208C153.97 197.421 154.396 197.847 154.852 198.79L155.461 200.099L156.495 196.508C157.621 192.522 158.017 188.476 157.469 186.285C157.286 185.555 156.495 183.638 155.735 182.025C154.335 179.013 154.122 178.222 154.7 177.644C155.157 177.187 153.331 174.023 152.266 173.415C151.84 173.171 151.718 173.019 151.992 173.11C152.297 173.202 152.54 173.202 152.54 173.11C152.54 172.745 151.505 170.95 150.897 170.311C150.288 169.611 150.288 169.581 150.806 169.185C151.931 168.364 152.814 169.064 154.426 171.985C155.096 173.202 155.735 174.267 155.887 174.358C156.009 174.419 157.074 174.601 158.291 174.693C162.246 175.058 163.554 174.145 166.262 169.064C167.418 166.873 167.753 166.447 168.392 166.447C169.031 166.447 169.122 166.599 169.214 167.603C169.396 169.916 166.354 174.662 163.98 175.757C162.459 176.457 159.873 176.488 157.865 175.879C157.043 175.636 156.343 175.484 156.313 175.514C156.069 175.757 160.786 184.094 161.242 184.277C161.577 184.399 162.824 184.52 164.041 184.52C169.761 184.581 171.343 181.934 173.382 168.607C173.534 167.786 173.747 167.39 174.173 167.299C174.873 167.116 174.812 166.599 173.838 164.013C173.534 163.191 172.956 161.487 172.591 160.27C171.161 155.493 166.293 149.134 162.246 146.731C156.739 143.475 149.528 142.958 144.416 145.483C140.978 147.157 138.696 151.629 139.304 155.493C139.457 156.619 139.609 156.863 139.974 156.741C140.369 156.589 140.369 156.619 140.096 156.954C139.883 157.228 139.822 158.019 139.943 159.266C140.126 160.818 140.065 161.122 139.67 161.122C139.213 161.122 138.696 160.27 139 159.966C139.092 159.875 139.152 159.966 139.152 160.149C139.152 160.362 139.274 160.514 139.426 160.514C139.578 160.514 139.213 159.327 138.605 157.867C136.201 151.994 137.175 146.944 141.434 142.897C144.386 140.098 147.672 139.033 152.54 139.307C157.591 139.58 162.794 141.741 166.11 144.905C167.844 146.579 170.248 149.682 171.161 151.508C171.617 152.39 171.83 152.603 172.043 152.268C172.53 151.447 173.047 152.573 174.051 156.802C174.812 159.966 175.147 162.187 175.39 165.991C175.725 171.619 175.573 174.51 174.721 177.613C173.534 181.843 172.013 184.064 169.366 185.372C167.358 186.346 164.558 186.468 162.307 185.676C162.16 185.624 162.028 185.572 161.909 185.525C161.566 185.39 161.342 185.302 161.233 185.378C161.03 185.52 161.221 186.227 161.768 188.247C161.873 188.638 161.992 189.077 162.124 189.571C163.402 194.378 162.946 198.212 160.968 199.46C160.451 199.764 160.481 199.673 161.12 198.881C162.429 197.36 162.581 194.926 161.668 190.727C161.333 189.145 160.755 188.537 160.755 189.723C160.755 190.849 158.93 195.352 157.256 198.334C155.978 200.616 155.583 201.62 155.583 202.594C155.552 206.001 154.487 210.9 153.118 213.669C151.475 217.076 148.037 219.237 144.812 218.872L143.534 218.72L144.234 220.788C144.599 221.914 145.025 223.801 145.177 224.926C145.283 225.581 145.379 226.226 145.447 226.681L145.447 226.682C145.495 227.008 145.529 227.236 145.542 227.3C145.664 227.847 145.542 228.365 145.298 228.365C145.177 228.365 143.808 228.091 142.256 227.756ZM94.5169 212.634C93.817 212.33 93.1781 211.874 93.1172 211.63C92.9347 210.869 93.4824 204.571 93.8171 203.354C94.2126 201.955 95.095 201.376 95.7643 202.076C96.4337 202.715 96.4033 204.084 95.7339 203.963C95.3688 203.902 95.1254 204.267 94.8211 205.514C94.5777 206.397 94.4256 207.157 94.4864 207.188C94.5054 207.197 94.5715 207.227 94.6728 207.274C94.8971 207.376 95.2938 207.556 95.7339 207.766L96.8901 208.283L97.1944 207.431C97.3769 206.975 97.4682 205.545 97.4074 204.237C97.3161 202.624 97.3769 201.924 97.5899 201.985C97.7725 202.046 97.9855 202.411 98.0159 202.837C98.0767 203.232 98.2593 203.719 98.4419 203.932C98.8374 204.45 98.4419 209.652 97.8942 211.235C97.4378 212.452 96.8293 213.121 96.099 213.151C95.9469 213.151 95.2167 212.908 94.5169 212.634ZM84.7804 210.961C84.8717 210.565 84.8108 209.987 84.6587 209.652C84.4457 209.166 84.4153 209.226 84.537 209.896C84.8108 211.235 84.2023 210.626 83.6546 208.983C83.2591 207.857 83.2287 207.34 83.5025 206.336C83.9893 204.571 85.2672 202.137 85.6019 202.35C85.8149 202.472 85.7845 202.746 85.6019 203.141C85.3585 203.567 85.3889 204.084 85.7236 205.028C86.2409 206.519 86.3017 206.336 86.819 202.776C87.1537 200.464 87.1537 199.977 86.6973 198.608C85.6932 195.595 83.0765 194.287 81.4944 195.991C81.0684 196.447 80.7337 196.63 80.7337 196.447C80.7337 195.808 82.468 194.287 83.2287 194.257C86.0887 194.105 87.7622 195.352 88.8271 198.334C89.5269 200.312 89.4357 204.084 88.675 205.423C88.3099 206.001 88.036 206.732 88.036 207.005C88.036 207.766 86.3322 211.235 85.8453 211.417C84.963 211.782 84.6283 211.63 84.7804 210.961ZM133.676 199.46C134.619 195.9 137.935 186.589 138.422 186.102C139.791 184.642 139.031 187.441 135.958 195.017C134.71 198.09 133.584 201.194 133.463 201.924C133.31 202.867 133.219 203.05 133.128 202.563C133.067 202.168 133.31 200.768 133.676 199.46ZM76.1393 199.094C75.8655 197.421 75.7133 194.013 75.7133 189.115C75.7133 182.238 75.7742 181.447 76.4436 178.922C77.326 175.605 79.1515 171.193 82.0116 165.595C84.9934 159.784 87.3667 157.532 92.174 155.889C98.2897 153.85 107.144 154.033 112.438 156.315C113.959 156.954 114.051 156.984 116.363 156.498C117.671 156.224 120.501 155.25 122.631 154.337C128.047 151.994 132.002 150.99 133.523 151.599C134.132 151.812 137.935 157.562 137.935 158.232C137.935 158.506 137.631 158.688 137.205 158.688C136.475 158.688 136.171 158.384 133.006 154.642L132.306 153.79L129.933 154.246C128.625 154.489 125.886 155.25 123.817 155.919C120.805 156.893 116.515 157.745 114.416 157.775C114.294 157.775 114.203 157.958 114.203 158.201C114.203 158.901 112.986 158.993 110.095 158.536C100.846 157.076 91.9002 157.441 88.0056 159.479C87.2145 159.875 87.1232 160.057 87.2754 160.757C87.4884 161.853 83.0157 174.845 80.612 180.078C78.0562 185.585 76.9913 190.727 76.9608 197.391C76.9304 199.825 76.8391 201.772 76.7478 201.711C76.6261 201.65 76.3523 200.464 76.1393 199.094ZM124.852 197.604C124.852 197.421 124.974 197.36 125.126 197.451C125.278 197.543 125.491 196.965 125.582 196.174C126.708 188.08 129.69 179.682 132.58 176.549C134.649 174.297 135.288 175.544 133.493 178.192C131.059 181.782 128.503 187.867 126.221 195.595C125.795 197.056 125.308 198.182 125.156 198.09C124.974 197.969 124.852 197.756 124.852 197.604ZM101.515 192.887C101.119 191.336 100.237 190.332 99.2634 190.332C98.594 190.332 97.0727 190.971 95.9469 191.762C95.4601 192.066 95.6426 191.792 96.3729 191.001C98.2897 188.993 100.115 188.719 101.819 190.24C102.884 191.214 103.249 194.835 102.276 194.531C102.063 194.439 101.728 193.709 101.515 192.887ZM118.554 191.336C119.466 185.342 120.744 180.9 122.631 177.096C124.03 174.327 125.035 172.989 125.795 172.989C126.556 172.989 126.525 173.262 125.582 174.54C123.391 177.461 120.288 184.977 119.223 189.967C118.675 192.522 118.249 193.405 118.554 191.336ZM149.132 168.09C148.341 167.907 147.55 167.573 147.337 167.329C147.063 166.995 147.246 166.995 148.159 167.39C150.015 168.181 154.092 167.877 156.282 166.782C159.234 165.352 161.668 161.761 161.668 158.81C161.668 157.958 161.79 157.745 162.185 157.836C163.037 157.988 163.068 160.331 162.246 162.492C160.39 167.451 155.522 169.52 149.132 168.09ZM138.635 159.084C138.757 158.992 138.848 159.084 138.848 159.297C138.848 159.51 138.757 159.601 138.635 159.51C138.544 159.388 138.544 159.205 138.635 159.084ZM139.974 155.037C139.883 154.702 139.943 154.489 140.096 154.611C140.248 154.702 140.369 154.976 140.369 155.22C140.369 155.828 140.156 155.737 139.974 155.037ZM92.2045 299.045C92.0828 298.954 91.9003 298.954 91.7785 299.045C91.6873 299.167 91.7785 299.258 91.9915 299.258C92.2045 299.258 92.2958 299.167 92.2045 299.045ZM69.6585 285.171C68.9587 286.966 68.4719 289.735 68.4415 292.169C68.411 293.934 68.2893 294.998 68.0763 294.998C67.4374 294.998 65.0033 293.234 63.9384 291.986C61.8694 289.552 61.2 287.27 61.9302 285.11C62.2649 284.106 62.5083 283.893 63.3602 283.71C64.8816 283.406 65.3684 282.402 64.4252 281.489C64.1818 281.215 63.6645 281.002 63.269 281.002C62.1432 281.002 59.8308 279.329 59.131 277.99C58.3095 276.377 58.3703 275.343 59.2831 274.43C59.9525 273.761 60.2263 273.67 61.2608 273.852C62.417 274.035 62.9647 273.67 62.0823 273.274C61.8998 273.183 62.6604 273.152 63.8167 273.213C67.8634 273.457 71.5145 276.073 71.8188 278.994C72.0013 280.637 71.5754 281.307 69.6889 282.25C68.3806 282.95 68.1068 284.167 69.2021 284.44C69.6889 284.562 69.8106 284.775 69.6585 285.171Z" fill="black"/>
</g>
<g id="Frame 22">
<rect width="120" height="40" transform="translate(129.5 328.802) rotate(-44.9654)" fill="white"/>
<g id="ok">
<path id="Vector" d="M183.953 296.088L181.798 293.931C181.37 293.502 180.789 293.261 180.182 293.261C179.576 293.26 178.994 293.501 178.565 293.929L181.255 300.936L182.6 305.518L187.179 306.868L193.262 300.793C193.525 300.536 193.686 300.193 193.716 299.826C193.746 299.46 193.642 299.095 193.425 298.799L189.322 293.203C189.191 293.025 189.023 292.877 188.829 292.771C188.636 292.664 188.421 292.601 188.201 292.585C187.98 292.57 187.759 292.603 187.553 292.681C187.346 292.759 187.159 292.882 187.005 293.04L183.953 296.088ZM187.179 306.868L185.562 308.483C185.276 308.769 184.888 308.929 184.484 308.929C184.08 308.929 183.692 308.768 183.406 308.482L179.636 304.707C179.351 304.421 179.19 304.034 179.191 303.629C179.191 303.225 179.352 302.838 179.638 302.552L181.255 300.936" fill="white"/>
</g>
</g>
<path id="Line 3" d="M55.3332 210.745C55.7448 211.114 56.377 211.078 56.7453 210.667L62.7462 203.959C63.1145 203.548 63.0793 202.916 62.6677 202.547C62.2561 202.179 61.624 202.214 61.2557 202.626L55.9215 208.588L49.9594 203.254C49.5478 202.886 48.9156 202.921 48.5474 203.332C48.1791 203.744 48.2143 204.376 48.6259 204.744L55.3332 210.745ZM49.9909 119.91L55.0015 210.055L56.9985 209.944L51.9878 119.799L49.9909 119.91Z" fill="#999999"/>
<g id="Group 14">
<path id="Vector 7" d="M225.835 339.898L168.093 424.024L263.898 443L295.618 412.215H355.886L402.762 316.494L338.757 290.753L324.8 245.414L256.648 233L203.515 298.151L225.835 339.898Z" fill="white"/>
<path id="Subtract_2" fill-rule="evenodd" clip-rule="evenodd" d="M256.335 425.405C254.799 419.401 254.405 414.899 254.62 406.643C254.834 398.567 255.513 393.564 257.121 387.739C257.872 384.987 258.051 384.666 259.015 384.415C260.266 384.058 261.231 384.272 262.267 385.166L263.054 385.809L262.017 389.383C261.481 391.348 260.516 395.172 259.909 397.924C259.337 400.64 258.408 404.678 257.908 406.822C257.121 410.038 256.907 411.932 256.764 417.186C256.585 423.082 256.764 425.226 257.586 428.085C257.765 428.729 257.729 428.872 257.443 428.621C257.229 428.443 256.728 426.978 256.335 425.405ZM206.233 418.615C205.375 411.932 207.555 398.21 210.807 390.026C216.203 376.482 230.355 356.327 244.864 341.496C248.759 337.529 249.474 336.957 250.474 336.957C251.261 336.957 251.761 337.172 252.011 337.636C252.193 337.988 252.309 338.211 252.309 338.434C252.308 338.824 251.952 339.213 250.975 340.281L250.975 340.281C248.509 342.961 230.248 365.975 227.567 369.835C221.456 378.483 218.133 384.415 213.88 394.207C209.02 405.285 206.84 413.255 207.055 419.116C207.126 420.867 207.055 422.225 206.912 422.082C206.769 421.939 206.483 420.402 206.233 418.615ZM299.433 399.996C292.429 398.21 278.206 390.955 269.915 385.023C268.164 383.736 266.592 382.7 266.484 382.7C266.091 382.7 259.516 377.197 259.48 376.804C259.48 376.625 258.694 375.803 257.729 375.017C256.8 374.23 255.084 372.479 253.941 371.086L253.797 370.915C252.644 369.545 250.854 367.419 249.688 366.083C246.007 361.83 246.329 361.973 251.296 366.833C256.55 371.908 257.836 372.908 262.589 375.41C264.34 376.339 265.841 377.232 265.877 377.411C265.948 377.59 266.699 378.054 267.485 378.483C268.307 378.876 271.166 380.627 273.81 382.343C276.455 384.058 280.171 386.309 282.03 387.346C283.888 388.382 286.926 390.276 288.748 391.563C293.108 394.6 297.396 396.316 301.042 396.566C304.901 396.78 305.366 396.602 306.295 394.529C306.688 393.564 307.045 392.528 307.045 392.277C307.045 391.384 309.868 385.738 310.619 385.13C311.62 384.308 311.512 383.308 309.904 378.769C308.368 374.481 307.581 369.585 307.974 366.869C308.582 362.902 311.548 360.651 315.694 361.008C316.944 361.115 318.267 361.294 318.66 361.401C319.267 361.58 319.66 361.115 321.161 358.506C322.305 356.541 323.984 354.361 325.807 352.503C328.559 349.715 334.277 344.855 334.956 344.784C335.027 344.769 335.109 344.755 335.192 344.741L335.193 344.741C335.317 344.719 335.442 344.698 335.527 344.676C335.706 344.641 337.243 344.391 338.958 344.14C345.748 343.14 358.148 345.534 358.148 347.857C358.148 348.679 357.076 349.465 356.004 349.465C355.218 349.465 354.646 349.894 353.431 351.323C351.644 353.468 348.142 358.435 348.142 358.828C348.142 359.007 348.678 359.114 349.286 359.114C350.965 359.114 353.789 360.865 355.933 363.224C357.97 365.439 358.327 366.547 358.077 369.692C357.791 372.98 355.111 376.017 352.002 376.518C350.68 376.696 350.608 376.768 350.823 377.733C351.144 379.091 349.179 385.023 347.785 386.917C346.355 388.918 343.961 389.99 341.066 389.955L338.779 389.919L335.992 392.849C333.383 395.529 333.026 395.815 330.56 396.566C327.594 397.495 323.484 397.674 320.947 396.995C318.91 396.459 316.587 395.101 314.657 393.314C313.299 392.063 313.12 391.992 312.906 392.563C312.12 395.136 310.262 398.174 309.011 398.996C306.545 400.604 303.15 400.961 299.433 399.996ZM299.612 387.703C296.932 386.738 293.144 384.201 290.106 381.306C286.64 377.983 283.138 373.158 278.849 365.797L275.097 359.436L274.454 360.258C274.096 360.722 272.56 363.617 271.023 366.69C269.522 369.763 268.164 372.301 268.021 372.301C267.878 372.336 266.735 371.586 265.448 370.693L263.089 369.084L264.59 366.154C266.52 362.259 268.486 359.4 271.023 356.755C272.166 355.576 272.988 354.504 272.881 354.361C272.738 354.254 272.953 354.147 273.31 354.147C273.703 354.111 274.561 354.004 275.311 353.896C276.348 353.718 276.741 353.825 277.348 354.432C278.349 355.433 278.277 356.112 277.062 357.256L275.99 358.221L281.815 365.01C289.034 373.409 297.933 382.2 300.434 383.415C302.828 384.558 305.401 384.594 306.938 383.486C307.581 383.022 308.117 382.378 308.117 382.021C308.117 381.699 308.332 381.092 308.618 380.735C309.118 380.056 309.154 380.056 309.868 380.699C310.941 381.664 310.833 383.379 309.583 385.094C308.582 386.488 307.117 387.739 305.973 388.168C304.794 388.597 301.542 388.382 299.612 387.703ZM289.32 343.747C282.566 342.139 271.202 336.35 266.913 332.383C265.734 331.275 265.698 330.882 266.735 330.882C267.342 330.882 267.414 330.989 267.092 331.204C265.913 331.918 277.313 337.1 283.638 338.673C290.571 340.424 297.754 340.602 303.186 339.137C306.616 338.208 312.549 335.921 315.622 334.349L317.945 333.169L318.731 330.561C320.232 325.772 320.446 322.162 319.803 312.728C319.482 308.082 319.124 301.757 319.017 298.719C318.767 292.322 318.231 288.856 316.515 282.602C315.05 277.385 314.979 276.563 315.944 276.563C316.301 276.563 316.766 276.777 316.98 277.027C317.445 277.599 321.304 287.176 322.376 290.464C323.699 294.467 324.342 300.113 324.342 307.832C324.377 315.658 323.913 320.018 322.555 324.735C321.519 328.273 320.911 329.596 319.553 331.061C319.017 331.668 318.302 332.848 317.981 333.705C316.944 336.386 315.729 337.601 312.442 339.28C303.079 343.962 295.896 345.355 289.32 343.747ZM365.189 338.458C365.725 337.744 367.833 335.349 369.906 333.205C372.014 331.025 374.837 327.987 376.231 326.451C378.268 324.235 378.947 323.699 379.626 323.806C381.056 323.985 380.948 325.486 379.304 327.559C376.303 331.311 365.403 340.424 364.474 339.923C364.331 339.852 364.653 339.173 365.189 338.458ZM258.194 337.672C255.513 336.457 253.369 334.777 248.938 330.453L244.649 326.236L245.007 328.345C245.793 333.134 242.898 334.706 238.824 331.668C236.752 330.132 235.751 328.774 232.32 323.02C231.915 322.345 231.511 321.669 231.121 321.017C229.755 318.735 228.572 316.758 228.211 316.23C227.174 314.586 226.781 313.193 226.102 309.047C225.459 304.973 225.745 302.865 227.353 299.613C228.89 296.432 232.892 290.428 236.287 286.176C239.718 281.887 246.258 272.096 249.51 266.378L250.127 265.288L250.128 265.287C251.165 263.456 252.202 261.625 252.619 260.91C253.083 260.052 253.869 259.195 254.298 259.016C254.763 258.802 255.442 257.944 255.835 257.158C258.194 252.333 262.732 248.474 268.2 246.651C270.808 245.794 271.666 245.686 276.133 245.686L281.136 245.651L285.961 247.294C291 249.046 297.754 251.94 300.47 253.513C301.327 254.013 302.328 254.835 302.65 255.335C303.186 256.157 303.186 256.264 302.65 256.8C302.623 256.829 302.597 256.856 302.573 256.882C302.482 256.981 302.407 257.062 302.317 257.119C301.884 257.393 301.1 257.11 296.565 255.475L295.681 255.157C289.249 252.834 284.174 251.654 277.741 251.011C270.38 250.296 266.484 250.689 262.732 252.619C259.373 254.335 255.62 258.551 254.763 261.553C253.691 265.234 249.688 272.775 242.612 284.425C238.11 291.858 237.645 292.573 233.285 298.005C231.32 300.47 229.461 303.115 229.104 303.901C228.354 305.616 227.889 310.155 228.211 312.442C228.425 313.729 228.604 314.086 229.14 314.086C229.997 314.086 231.141 315.515 233.464 319.339C236.93 325.129 239.146 328.309 240.754 329.774C241.612 330.596 242.505 331.239 242.72 331.239C243.434 331.239 243.863 329.31 243.613 327.058C243.434 325.414 243.113 324.521 242.362 323.485C241.254 322.055 240.933 320.376 241.79 320.59C242.041 320.661 245.686 324.307 249.903 328.666C256.978 336.1 258.515 337.458 260.409 338.065L261.124 338.315L260.409 338.351C260.016 338.351 259.015 338.065 258.194 337.672ZM306.152 335.528C306.009 335.313 305.687 335.349 305.294 335.599C304.722 335.921 304.043 335.635 300.934 333.634C298.897 332.312 296.074 330.31 294.68 329.203C287.605 323.413 285.175 321.519 282.637 319.661C281.136 318.553 279.886 317.731 279.886 317.838C279.886 318.446 286.604 331.275 287.998 333.276C288.855 334.563 289.499 335.671 289.391 335.778C288.82 336.35 284.138 331.239 281.101 326.737C278.742 323.199 275.561 316.623 275.419 314.944C275.311 313.907 275.419 313.693 276.205 313.478C277.098 313.264 278.099 313.979 278.528 315.122C278.599 315.301 280.743 316.48 283.316 317.767C292.608 322.413 299.29 326.772 302.828 330.453C304.186 331.811 305.258 332.848 305.258 332.705C305.258 331.847 303.686 325.522 303.293 324.7C302.828 323.735 302.828 323.699 303.4 323.914C303.722 324.056 305.33 324.271 306.938 324.378C310.44 324.557 311.87 324.021 315.05 321.233C316.194 320.233 317.23 319.446 317.409 319.446C317.588 319.446 317.909 319.768 318.124 320.161C319.053 321.877 312.978 326.236 309.654 326.236C308.796 326.236 307.188 325.915 306.116 325.522C304.294 324.914 304.151 324.878 304.365 325.45C306.152 329.631 307.832 335.099 307.546 335.599C307.295 335.992 306.402 335.957 306.152 335.528ZM340.745 334.206C340.888 334.098 340.995 334.206 340.995 334.456C340.995 334.706 340.888 334.813 340.745 334.706C340.638 334.563 340.638 334.349 340.745 334.206ZM338.136 333.384C338.136 332.776 337.743 330.561 337.207 328.452C335.92 322.949 335.277 318.339 335.277 314.372C335.277 311.334 335.384 310.762 335.992 310.155C336.885 309.262 337.457 309.262 338.529 310.119L339.387 310.798V321.305C339.387 331.525 339.172 334.456 338.493 334.456C338.279 334.456 338.136 333.955 338.136 333.384ZM339.959 331.597C339.959 331.275 340.102 331.311 340.28 331.776C340.459 332.169 340.602 332.74 340.602 333.026C340.602 333.348 340.459 333.312 340.28 332.848C340.102 332.455 339.959 331.883 339.959 331.597ZM268.2 331.382C268.307 331.275 268.629 331.239 268.879 331.347C269.165 331.454 269.057 331.561 268.664 331.561C268.271 331.597 268.057 331.49 268.2 331.382ZM357.434 329.846C357.434 328.809 358.827 324.485 359.757 322.627C360.864 320.519 364.367 316.123 365.439 315.551C366.511 314.944 367.726 315.337 368.226 316.409C368.762 317.624 367.547 319.482 363.223 324.199C361.258 326.308 359.292 328.595 358.827 329.274C357.863 330.668 357.434 330.846 357.434 329.846ZM348.714 325.45C348.607 324.807 348.392 321.769 348.285 318.732C348.035 312.585 348.464 308.368 349.536 306.939C350.429 305.724 351.859 305.581 352.574 306.653C353.038 307.403 353.002 308.047 352.252 313.014C351.001 321.162 349.786 326.594 349.25 326.594C349.071 326.594 348.821 326.058 348.714 325.45ZM313.138 308.755L313.138 308.754L313.137 308.754L313.109 308.711C312.76 308.179 312.384 307.609 312.013 307.046C308.975 302.329 307.974 302.043 307.01 305.581C306.759 306.617 306.795 307.153 307.224 307.975C308.046 309.583 307.939 310.512 306.938 310.512C305.83 310.512 305.116 309.655 302.292 305.152C299.505 300.649 298.004 299.112 297.111 299.648C296.217 300.22 295.717 301.435 295.109 304.794L294.573 307.832L294.645 304.08C294.752 299.827 295.288 298.362 296.968 297.683C299.005 296.825 301.649 298.934 304.579 303.722L305.759 305.652L306.045 304.294C306.438 302.4 306.938 301.578 308.01 301.185C309.368 300.685 311.048 301.364 312.549 303.008C313.942 304.544 316.694 309.726 316.694 310.798C316.694 312.156 315.586 312.371 314.729 311.156C314.511 310.841 313.885 309.89 313.138 308.755ZM293.501 307.868C293.536 306.292 293.537 306.295 294.276 308.917L294.323 309.083L294.895 311.048L294.18 310.191C293.716 309.655 293.465 308.868 293.501 307.868ZM327.237 394.314C331.06 393.349 333.49 391.455 333.49 389.454C333.49 388.132 334.384 387.417 335.349 388.025C335.992 388.418 336.206 388.311 337.278 387.096C339.816 384.237 340.781 382.378 340.924 380.055C340.995 378.84 340.888 377.411 340.673 376.839L340.28 375.839L337.85 378.126C334.098 381.664 330.024 383.2 327.951 381.842C326.915 381.163 326.808 380.484 327.665 379.805C328.273 379.341 328.273 379.377 327.773 379.984C327.308 380.556 327.344 380.699 327.951 381.128C328.309 381.413 328.916 381.628 329.274 381.628C331.632 381.628 335.42 378.269 337.064 374.731C338.029 372.694 339.101 367.476 338.672 367.047C338.565 366.94 336.635 367.476 334.384 368.191C329.131 369.942 323.341 373.266 322.948 374.731C322.627 376.089 321.769 376.982 320.768 376.982C319.803 376.982 319.696 376.696 319.196 372.694C318.803 369.478 317.909 367.619 315.944 366.154C314.872 365.404 312.656 365.261 311.87 365.904C310.512 367.012 310.119 373.98 311.119 378.698C311.441 380.127 311.691 382.057 311.691 382.95C311.691 384.272 311.87 384.701 312.62 385.273C313.442 385.952 313.514 386.202 313.442 388.525C313.335 391.42 313.514 391.634 317.23 393.528C318.981 394.422 319.875 394.636 322.233 394.707C323.949 394.779 325.95 394.636 327.237 394.314ZM336.421 383.736C335.706 382.593 336.063 382.664 336.993 383.808C337.457 384.38 337.6 384.773 337.35 384.666C337.1 384.558 336.671 384.129 336.421 383.736ZM346.999 380.913C346.498 385.881 345.069 388.096 341.817 388.99C339.065 389.704 339.03 389.669 340.638 387.131C343.032 383.343 343.318 380.055 341.603 376.589C340.709 374.802 340.709 374.659 341.281 373.623C341.638 372.944 341.924 371.264 342.067 369.299C342.246 366.19 342.282 366.083 343.139 365.975C345.712 365.689 346.141 365.296 345.105 364.117C344.604 363.545 344.676 363.51 346.427 363.795C347.928 364.046 348.571 364.403 349.822 365.618C351.394 367.155 351.716 367.155 350.823 365.546C350.001 364.117 350.179 364.046 352.073 365.225C354.432 366.654 355.29 367.834 355.29 369.513C355.29 373.266 352.431 375.839 348.142 375.946L348.134 375.946C346.284 375.982 346.25 375.982 347.142 376.41C347.892 376.732 348.035 376.946 347.749 377.232C347.535 377.447 347.177 379.126 346.999 380.913ZM325.95 370.55C328.344 368.62 330.381 367.476 333.526 366.261C335.742 365.439 339.816 364.296 341.817 363.938C344.033 363.581 343.032 363.152 339.137 362.902C334.384 362.58 332.347 361.723 330.953 359.507C330.381 358.614 329.917 357.542 329.917 357.077C329.917 356.326 330.024 356.291 331.596 356.469C332.561 356.612 334.205 357.041 335.277 357.434C335.902 357.663 336.951 358.038 338.071 358.438C338.874 358.725 339.713 359.024 340.459 359.293C340.971 359.481 341.479 359.665 341.95 359.837L341.95 359.837C343.09 360.251 344.009 360.585 344.211 360.686C344.604 360.865 345.069 360.257 345.927 358.435C347.428 355.326 348.643 353.432 350.751 350.823L352.431 348.75L351.43 348.536C351.264 348.492 350.906 348.403 350.416 348.281L350.416 348.281C349.322 348.01 347.571 347.575 345.819 347.106C343.246 346.463 340.102 345.82 338.815 345.713C336.671 345.498 336.385 345.534 336.206 346.106C336.099 346.499 333.812 348.643 331.132 350.895C328.451 353.146 324.842 356.577 323.091 358.506L319.946 362.044L321.126 363.259C322.483 364.653 323.127 366.511 323.448 369.942L323.663 372.372L325.95 370.55ZM346.677 360.901C346.856 360.901 347.07 361.151 347.177 361.401C347.32 361.758 347.213 361.866 346.856 361.723C346.32 361.508 346.177 360.901 346.677 360.901Z" fill="black"/>
</g>
<line id="Line 1" x1="29.2924" y1="437.293" x2="416.792" y2="49.2934" stroke="#999999" stroke-width="2" stroke-dasharray="5 2"/>
<path id="Line 2" d="M381.978 223.207C382.093 222.667 381.748 222.136 381.207 222.022C380.667 221.907 380.136 222.252 380.022 222.793L381.978 223.207ZM367.662 282.545C367.963 283.008 368.582 283.139 369.045 282.838L376.59 277.932C377.053 277.63 377.184 277.011 376.883 276.548C376.582 276.085 375.963 275.954 375.5 276.255L368.793 280.616L364.432 273.91C364.13 273.447 363.511 273.316 363.048 273.617C362.585 273.918 362.454 274.537 362.755 275L367.662 282.545ZM380.022 222.793L367.522 281.793L369.478 282.207L381.978 223.207L380.022 222.793Z" fill="#999999"/>
<g id="survey-1">
<g clip-path="url(#clip0)">
<g id="Frame 12" clip-path="url(#clip1)">
<rect width="150" height="110" transform="translate(29.5 20)" fill="white"/>
<rect id="Rectangle 7" x="44.5" y="35" width="113" height="10" fill="#666666"/>
<rect id="Rectangle 14" x="44.5" y="46" width="120" height="10" fill="#666666"/>
<rect id="Rectangle 9" x="44.5" y="57" width="55" height="10" fill="#666666"/>
<rect id="Rectangle 11" x="44.5" y="68" width="100" height="3" fill="white"/>
<g id="Frame 22_2">
<rect width="120" height="30" transform="translate(44.5 72)" fill="#666666"/>
<g id="ok_2">
<path id="Vector_2" d="M106.145 82.3346V79.2863C106.145 78.6799 105.904 78.0984 105.475 77.6696C105.047 77.2409 104.465 77 103.859 77L100.81 83.8588L98.5242 88.0503L100.81 92.2419H109.407C109.774 92.246 110.131 92.1172 110.411 91.8791C110.691 91.641 110.876 91.3097 110.931 90.9463L111.983 84.0875C112.016 83.869 112.001 83.646 111.94 83.4338C111.878 83.2216 111.771 83.0253 111.626 82.8586C111.481 82.6919 111.301 82.5587 111.1 82.4682C110.898 82.3777 110.679 82.3321 110.459 82.3346H106.145ZM100.81 92.2419H98.5242C98.1199 92.2419 97.7323 92.0813 97.4464 91.7954C97.1606 91.5096 97 91.1219 97 90.7177V85.383C97 84.9788 97.1606 84.5911 97.4464 84.3053C97.7323 84.0194 98.1199 83.8588 98.5242 83.8588H100.81" fill="white"/>
</g>
</g>
<rect id="Rectangle 16" x="109.5" y="103" width="55" height="3" fill="white"/>
<rect id="Rectangle 17" x="44.5" y="107" width="55" height="8" fill="#999999"/>
</g>
</g>
<path d="M29.5 20V18H27.5V20H29.5ZM179.5 20H181.5V18H179.5V20ZM179.5 130V132H181.5V130H179.5ZM29.5 130H27.5V132H29.5V130ZM29.5 22H179.5V18H29.5V22ZM177.5 20V130H181.5V20H177.5ZM179.5 128H29.5V132H179.5V128ZM31.5 130V20H27.5V130H31.5Z" fill="#999999"/>
</g>
<g id="survey-2">
<g clip-path="url(#clip2)">
<g id="Frame 12_2" clip-path="url(#clip3)">
<rect width="150" height="110" transform="translate(279.5 123)" fill="white"/>
<rect id="Rectangle 7_2" x="294.5" y="138" width="113" height="10" fill="#666666"/>
<rect id="Rectangle 14_2" x="294.5" y="149" width="120" height="10" fill="#666666"/>
<rect id="Rectangle 9_2" x="294.5" y="160" width="55" height="10" fill="#666666"/>
<rect id="Rectangle 11_2" x="294.5" y="171" width="100" height="3" fill="white"/>
<g id="Frame 22_3">
<rect width="120" height="30" transform="translate(294.5 175)" fill="#666666"/>
<g id="ok_3">
<path id="Vector_3" d="M356.145 185.335V182.286C356.145 181.68 355.904 181.098 355.476 180.67C355.047 180.241 354.465 180 353.859 180L350.811 186.859L348.524 191.05L350.811 195.242H359.407C359.775 195.246 360.131 195.117 360.411 194.879C360.691 194.641 360.876 194.31 360.931 193.946L361.983 187.088C362.016 186.869 362.001 186.646 361.94 186.434C361.878 186.222 361.771 186.025 361.626 185.859C361.481 185.692 361.302 185.559 361.1 185.468C360.898 185.378 360.68 185.332 360.459 185.335H356.145ZM350.811 195.242H348.524C348.12 195.242 347.732 195.081 347.447 194.795C347.161 194.51 347 194.122 347 193.718V188.383C347 187.979 347.161 187.591 347.447 187.305C347.732 187.019 348.12 186.859 348.524 186.859H350.811" fill="white"/>
</g>
</g>
<rect id="Rectangle 16_2" x="359.5" y="206" width="55" height="3" fill="white"/>
<rect id="Rectangle 17_2" x="294.5" y="210" width="55" height="8" fill="#999999"/>
</g>
</g>
<path d="M279.5 123V121H277.5V123H279.5ZM429.5 123H431.5V121H429.5V123ZM429.5 233V235H431.5V233H429.5ZM279.5 233H277.5V235H279.5V233ZM279.5 125H429.5V121H279.5V125ZM427.5 123V233H431.5V123H427.5ZM429.5 231H279.5V235H429.5V231ZM281.5 233V123H277.5V233H281.5Z" fill="#999999"/>
</g>
</g>
</g>
<defs>
<clipPath id="clip0">
<path d="M29.5 20H179.5V130H29.5V20Z" fill="white"/>
</clipPath>
<clipPath id="clip1">
<rect width="150" height="110" fill="white" transform="translate(29.5 20)"/>
</clipPath>
<clipPath id="clip2">
<path d="M279.5 123H429.5V233H279.5V123Z" fill="white"/>
</clipPath>
<clipPath id="clip3">
<rect width="150" height="110" fill="white" transform="translate(279.5 123)"/>
</clipPath>
</defs>
</svg>
