<svg width="415" height="413" viewBox="0 0 415 413" fill="none" xmlns="http://www.w3.org/2000/svg">
<g id="story1-4">
<g id="Group 12">
<line id="Line 1" x1="19.2929" y1="392.293" x2="392.293" y2="19.2929" stroke="#999999" stroke-width="2" stroke-dasharray="5 2"/>
<g id="survey-1">
<g id="Frame 12" clip-path="url(#clip0)">
<rect width="140" height="111" transform="translate(20 20)" fill="#EEEEEE"/>
<rect id="Rectangle 7" x="30" y="30" width="113" height="10" fill="#666666"/>
<rect id="Rectangle 14" x="30" y="41" width="120" height="10" fill="#666666"/>
<rect id="Rectangle 9" x="30" y="52" width="55" height="10" fill="#666666"/>
<rect id="Rectangle 20" x="30" y="63" width="55" height="10" fill="#666666"/>
<rect id="Rectangle 11" x="30" y="74" width="100" height="3" fill="#EEEEEE"/>
<g id="Frame 22">
<rect width="120" height="30" transform="translate(30 78)" fill="#666666"/>
<g id="ok">
<path id="Vector" d="M91.6451 88.3346V85.2863C91.6451 84.6799 91.4042 84.0984 90.9755 83.6696C90.5467 83.2409 89.9652 83 89.3588 83L86.3105 89.8588L84.0242 94.0503L86.3105 98.2419H94.9069C95.2744 98.246 95.6311 98.1172 95.9112 97.8791C96.1913 97.641 96.3759 97.3097 96.4311 96.9463L97.4827 90.0875C97.5159 89.869 97.5012 89.646 97.4396 89.4338C97.378 89.2216 97.271 89.0253 97.126 88.8586C96.981 88.6919 96.8015 88.5587 96.5999 88.4682C96.3983 88.3777 96.1795 88.3321 95.9586 88.3346H91.6451ZM86.3105 98.2419H84.0242C83.6199 98.2419 83.2323 98.0813 82.9464 97.7954C82.6606 97.5096 82.5 97.1219 82.5 96.7177V91.383C82.5 90.9788 82.6606 90.5911 82.9464 90.3053C83.2323 90.0194 83.6199 89.8588 84.0242 89.8588H86.3105" fill="white"/>
</g>
</g>
<rect id="Rectangle 16" x="95" y="109" width="55" height="3" fill="#EEEEEE"/>
<rect id="Rectangle 17" x="30" y="113" width="55" height="8" fill="#999999"/>
</g>
<path id="Vector_2" d="M76.875 131L90 146L103.125 131L76.875 131Z" fill="#EEEEEE"/>
</g>
<g id="survey-2" clip-path="url(#clip1)">
<g id="Frame 12_2" clip-path="url(#clip2)">
<rect width="140" height="111" transform="translate(255 90)" fill="#EEEEEE"/>
<rect id="Rectangle 7_2" x="265" y="100" width="113" height="10" fill="#666666"/>
<rect id="Rectangle 14_2" x="265" y="111" width="120" height="10" fill="#666666"/>
<rect id="Rectangle 9_2" x="265" y="122" width="55" height="10" fill="#666666"/>
<rect id="Rectangle 20_2" x="265" y="133" width="55" height="10" fill="#666666"/>
<rect id="Rectangle 11_2" x="265" y="144" width="100" height="3" fill="#EEEEEE"/>
<g id="Frame 22_2">
<rect width="120" height="30" transform="translate(265 148)" fill="#666666"/>
<g id="ok_2">
<path id="Vector_3" d="M326.645 158.335V155.286C326.645 154.68 326.404 154.098 325.976 153.67C325.547 153.241 324.965 153 324.359 153L321.311 159.859L319.024 164.05L321.311 168.242H329.907C330.275 168.246 330.631 168.117 330.911 167.879C331.191 167.641 331.376 167.31 331.431 166.946L332.483 160.088C332.516 159.869 332.501 159.646 332.44 159.434C332.378 159.222 332.271 159.025 332.126 158.859C331.981 158.692 331.802 158.559 331.6 158.468C331.398 158.378 331.18 158.332 330.959 158.335H326.645ZM321.311 168.242H319.024C318.62 168.242 318.232 168.081 317.947 167.795C317.661 167.51 317.5 167.122 317.5 166.718V161.383C317.5 160.979 317.661 160.591 317.947 160.305C318.232 160.019 318.62 159.859 319.024 159.859H321.311" fill="white"/>
</g>
</g>
<rect id="Rectangle 16_2" x="330" y="179" width="55" height="3" fill="#EEEEEE"/>
<rect id="Rectangle 17_2" x="265" y="183" width="55" height="8" fill="#999999"/>
</g>
<path id="Vector_4" d="M311.875 201L325 216L338.125 201L311.875 201Z" fill="#EEEEEE"/>
</g>
</g>
</g>
<defs>
<clipPath id="clip0">
<rect width="140" height="111" fill="white" transform="translate(20 20)"/>
</clipPath>
<clipPath id="clip1">
<rect width="140" height="126" fill="white" transform="translate(255 90)"/>
</clipPath>
<clipPath id="clip2">
<rect width="140" height="111" fill="white" transform="translate(255 90)"/>
</clipPath>
</defs>
</svg>
