<svg width="355" height="457" viewBox="0 0 355 457" fill="none" xmlns="http://www.w3.org/2000/svg">
<g id="story1-2">
<g id="talk-left">
<g id="Frame 14" clip-path="url(#clip0)">
<g id="avatar">
<rect width="50" height="50" transform="translate(20 20)" fill="#CCCCCC"/>
<path id="avatar image" d="M29.8945 41.3301C29.8945 41.6348 30.0059 41.875 30.2285 42.0508C30.4512 42.2266 30.7148 42.3145 31.0195 42.3145C31.3906 42.3145 31.75 42.2285 32.0977 42.0566C32.6836 41.7715 32.9766 41.3047 32.9766 40.6562V39.8066C32.8477 39.8887 32.6816 39.957 32.4785 40.0117C32.2754 40.0664 32.0762 40.1055 31.8809 40.1289L31.2422 40.2109C30.8594 40.2617 30.5723 40.3418 30.3809 40.4512C30.0566 40.6348 29.8945 40.9277 29.8945 41.3301ZM32.4492 39.1973C32.6914 39.166 32.8535 39.0645 32.9355 38.8926C32.9824 38.7988 33.0059 38.6641 33.0059 38.4883C33.0059 38.1289 32.877 37.8691 32.6191 37.709C32.3652 37.5449 32 37.4629 31.5234 37.4629C30.9727 37.4629 30.582 37.6113 30.3516 37.9082C30.2227 38.0723 30.1387 38.3164 30.0996 38.6406H29.1152C29.1348 37.8672 29.3848 37.3301 29.8652 37.0293C30.3496 36.7246 30.9102 36.5723 31.5469 36.5723C32.2852 36.5723 32.8848 36.7129 33.3457 36.9941C33.8027 37.2754 34.0312 37.7129 34.0312 38.3066V41.9219C34.0312 42.0312 34.0527 42.1191 34.0957 42.1855C34.1426 42.252 34.2383 42.2852 34.3828 42.2852C34.4297 42.2852 34.4824 42.2832 34.541 42.2793C34.5996 42.2715 34.6621 42.2617 34.7285 42.25V43.0293C34.5645 43.0762 34.4395 43.1055 34.3535 43.1172C34.2676 43.1289 34.1504 43.1348 34.002 43.1348C33.6387 43.1348 33.375 43.0059 33.2109 42.748C33.125 42.6113 33.0645 42.418 33.0293 42.168C32.8145 42.4492 32.5059 42.6934 32.1035 42.9004C31.7012 43.1074 31.2578 43.2109 30.7734 43.2109C30.1914 43.2109 29.7148 43.0352 29.3438 42.6836C28.9766 42.3281 28.793 41.8848 28.793 41.3535C28.793 40.7715 28.9746 40.3203 29.3379 40C29.7012 39.6797 30.1777 39.4824 30.7676 39.4082L32.4492 39.1973ZM36.2812 36.7246L37.957 41.834L39.709 36.7246H40.8633L38.4961 43H37.3711L35.0566 36.7246H36.2812ZM42.5742 41.3301C42.5742 41.6348 42.6855 41.875 42.9082 42.0508C43.1309 42.2266 43.3945 42.3145 43.6992 42.3145C44.0703 42.3145 44.4297 42.2285 44.7773 42.0566C45.3633 41.7715 45.6562 41.3047 45.6562 40.6562V39.8066C45.5273 39.8887 45.3613 39.957 45.1582 40.0117C44.9551 40.0664 44.7559 40.1055 44.5605 40.1289L43.9219 40.2109C43.5391 40.2617 43.252 40.3418 43.0605 40.4512C42.7363 40.6348 42.5742 40.9277 42.5742 41.3301ZM45.1289 39.1973C45.3711 39.166 45.5332 39.0645 45.6152 38.8926C45.6621 38.7988 45.6855 38.6641 45.6855 38.4883C45.6855 38.1289 45.5566 37.8691 45.2988 37.709C45.0449 37.5449 44.6797 37.4629 44.2031 37.4629C43.6523 37.4629 43.2617 37.6113 43.0312 37.9082C42.9023 38.0723 42.8184 38.3164 42.7793 38.6406H41.7949C41.8145 37.8672 42.0645 37.3301 42.5449 37.0293C43.0293 36.7246 43.5898 36.5723 44.2266 36.5723C44.9648 36.5723 45.5645 36.7129 46.0254 36.9941C46.4824 37.2754 46.7109 37.7129 46.7109 38.3066V41.9219C46.7109 42.0312 46.7324 42.1191 46.7754 42.1855C46.8223 42.252 46.918 42.2852 47.0625 42.2852C47.1094 42.2852 47.1621 42.2832 47.2207 42.2793C47.2793 42.2715 47.3418 42.2617 47.4082 42.25V43.0293C47.2441 43.0762 47.1191 43.1055 47.0332 43.1172C46.9473 43.1289 46.8301 43.1348 46.6816 43.1348C46.3184 43.1348 46.0547 43.0059 45.8906 42.748C45.8047 42.6113 45.7441 42.418 45.709 42.168C45.4941 42.4492 45.1855 42.6934 44.7832 42.9004C44.3809 43.1074 43.9375 43.2109 43.4531 43.2109C42.8711 43.2109 42.3945 43.0352 42.0234 42.6836C41.6562 42.3281 41.4727 41.8848 41.4727 41.3535C41.4727 40.7715 41.6543 40.3203 42.0176 40C42.3809 39.6797 42.8574 39.4824 43.4473 39.4082L45.1289 39.1973ZM48.6562 34.9727H49.7227V36.7246H50.7246V37.5859H49.7227V41.6816C49.7227 41.9004 49.7969 42.0469 49.9453 42.1211C50.0273 42.1641 50.1641 42.1855 50.3555 42.1855C50.4062 42.1855 50.4609 42.1855 50.5195 42.1855C50.5781 42.1816 50.6465 42.1758 50.7246 42.168V43C50.6035 43.0352 50.4766 43.0605 50.3438 43.0762C50.2148 43.0918 50.0742 43.0996 49.9219 43.0996C49.4297 43.0996 49.0957 42.9746 48.9199 42.7246C48.7441 42.4707 48.6562 42.1426 48.6562 41.7402V37.5859H47.8066V36.7246H48.6562V34.9727ZM52.5938 41.3301C52.5938 41.6348 52.7051 41.875 52.9277 42.0508C53.1504 42.2266 53.4141 42.3145 53.7188 42.3145C54.0898 42.3145 54.4492 42.2285 54.7969 42.0566C55.3828 41.7715 55.6758 41.3047 55.6758 40.6562V39.8066C55.5469 39.8887 55.3809 39.957 55.1777 40.0117C54.9746 40.0664 54.7754 40.1055 54.5801 40.1289L53.9414 40.2109C53.5586 40.2617 53.2715 40.3418 53.0801 40.4512C52.7559 40.6348 52.5938 40.9277 52.5938 41.3301ZM55.1484 39.1973C55.3906 39.166 55.5527 39.0645 55.6348 38.8926C55.6816 38.7988 55.7051 38.6641 55.7051 38.4883C55.7051 38.1289 55.5762 37.8691 55.3184 37.709C55.0645 37.5449 54.6992 37.4629 54.2227 37.4629C53.6719 37.4629 53.2812 37.6113 53.0508 37.9082C52.9219 38.0723 52.8379 38.3164 52.7988 38.6406H51.8145C51.834 37.8672 52.084 37.3301 52.5645 37.0293C53.0488 36.7246 53.6094 36.5723 54.2461 36.5723C54.9844 36.5723 55.584 36.7129 56.0449 36.9941C56.502 37.2754 56.7305 37.7129 56.7305 38.3066V41.9219C56.7305 42.0312 56.752 42.1191 56.7949 42.1855C56.8418 42.252 56.9375 42.2852 57.082 42.2852C57.1289 42.2852 57.1816 42.2832 57.2402 42.2793C57.2988 42.2715 57.3613 42.2617 57.4277 42.25V43.0293C57.2637 43.0762 57.1387 43.1055 57.0527 43.1172C56.9668 43.1289 56.8496 43.1348 56.7012 43.1348C56.3379 43.1348 56.0742 43.0059 55.9102 42.748C55.8242 42.6113 55.7637 42.418 55.7285 42.168C55.5137 42.4492 55.2051 42.6934 54.8027 42.9004C54.4004 43.1074 53.957 43.2109 53.4727 43.2109C52.8906 43.2109 52.4141 43.0352 52.043 42.6836C51.6758 42.3281 51.4922 41.8848 51.4922 41.3535C51.4922 40.7715 51.6738 40.3203 52.0371 40C52.4004 39.6797 52.877 39.4824 53.4668 39.4082L55.1484 39.1973ZM58.4941 36.7246H59.4961V37.8086C59.5781 37.5977 59.7793 37.3418 60.0996 37.041C60.4199 36.7363 60.7891 36.584 61.207 36.584C61.2266 36.584 61.2598 36.5859 61.3066 36.5898C61.3535 36.5938 61.4336 36.6016 61.5469 36.6133V37.7266C61.4844 37.7148 61.4258 37.707 61.3711 37.7031C61.3203 37.6992 61.2637 37.6973 61.2012 37.6973C60.6699 37.6973 60.2617 37.8691 59.9766 38.2129C59.6914 38.5527 59.5488 38.9453 59.5488 39.3906V43H58.4941V36.7246ZM29.4199 48.7539H30.4922V55H29.4199V48.7539ZM29.4199 46.3926H30.4922V47.5879H29.4199V46.3926ZM32.0918 48.7246H33.1348V49.6152C33.3848 49.3066 33.6113 49.082 33.8145 48.9414C34.1621 48.7031 34.5566 48.584 34.998 48.584C35.498 48.584 35.9004 48.707 36.2051 48.9531C36.377 49.0938 36.5332 49.3008 36.6738 49.5742C36.9082 49.2383 37.1836 48.9902 37.5 48.8301C37.8164 48.666 38.1719 48.584 38.5664 48.584C39.4102 48.584 39.9844 48.8887 40.2891 49.498C40.4531 49.8262 40.5352 50.2676 40.5352 50.8223V55H39.4395V50.6406C39.4395 50.2227 39.334 49.9355 39.123 49.7793C38.916 49.623 38.6621 49.5449 38.3613 49.5449C37.9473 49.5449 37.5898 49.6836 37.2891 49.9609C36.9922 50.2383 36.8438 50.7012 36.8438 51.3496V55H35.7715V50.9043C35.7715 50.4785 35.7207 50.168 35.6191 49.9727C35.459 49.6797 35.1602 49.5332 34.7227 49.5332C34.3242 49.5332 33.9609 49.6875 33.6328 49.9961C33.3086 50.3047 33.1465 50.8633 33.1465 51.6719V55H32.0918V48.7246ZM42.8965 53.3301C42.8965 53.6348 43.0078 53.875 43.2305 54.0508C43.4531 54.2266 43.7168 54.3145 44.0215 54.3145C44.3926 54.3145 44.752 54.2285 45.0996 54.0566C45.6855 53.7715 45.9785 53.3047 45.9785 52.6562V51.8066C45.8496 51.8887 45.6836 51.957 45.4805 52.0117C45.2773 52.0664 45.0781 52.1055 44.8828 52.1289L44.2441 52.2109C43.8613 52.2617 43.5742 52.3418 43.3828 52.4512C43.0586 52.6348 42.8965 52.9277 42.8965 53.3301ZM45.4512 51.1973C45.6934 51.166 45.8555 51.0645 45.9375 50.8926C45.9844 50.7988 46.0078 50.6641 46.0078 50.4883C46.0078 50.1289 45.8789 49.8691 45.6211 49.709C45.3672 49.5449 45.002 49.4629 44.5254 49.4629C43.9746 49.4629 43.584 49.6113 43.3535 49.9082C43.2246 50.0723 43.1406 50.3164 43.1016 50.6406H42.1172C42.1367 49.8672 42.3867 49.3301 42.8672 49.0293C43.3516 48.7246 43.9121 48.5723 44.5488 48.5723C45.2871 48.5723 45.8867 48.7129 46.3477 48.9941C46.8047 49.2754 47.0332 49.7129 47.0332 50.3066V53.9219C47.0332 54.0312 47.0547 54.1191 47.0977 54.1855C47.1445 54.252 47.2402 54.2852 47.3848 54.2852C47.4316 54.2852 47.4844 54.2832 47.543 54.2793C47.6016 54.2715 47.6641 54.2617 47.7305 54.25V55.0293C47.5664 55.0762 47.4414 55.1055 47.3555 55.1172C47.2695 55.1289 47.1523 55.1348 47.0039 55.1348C46.6406 55.1348 46.377 55.0059 46.2129 54.748C46.127 54.6113 46.0664 54.418 46.0312 54.168C45.8164 54.4492 45.5078 54.6934 45.1055 54.9004C44.7031 55.1074 44.2598 55.2109 43.7754 55.2109C43.1934 55.2109 42.7168 55.0352 42.3457 54.6836C41.9785 54.3281 41.7949 53.8848 41.7949 53.3535C41.7949 52.7715 41.9766 52.3203 42.3398 52C42.7031 51.6797 43.1797 51.4824 43.7695 51.4082L45.4512 51.1973ZM50.9824 48.6133C51.4746 48.6133 51.9043 48.7344 52.2715 48.9766C52.4707 49.1133 52.6738 49.3125 52.8809 49.5742V48.7832H53.8535V54.4902C53.8535 55.2871 53.7363 55.916 53.502 56.377C53.0645 57.2285 52.2383 57.6543 51.0234 57.6543C50.3477 57.6543 49.7793 57.502 49.3184 57.1973C48.8574 56.8965 48.5996 56.4238 48.5449 55.7793H49.6172C49.668 56.0605 49.7695 56.2773 49.9219 56.4297C50.1602 56.6641 50.5352 56.7812 51.0469 56.7812C51.8555 56.7812 52.3848 56.4961 52.6348 55.9258C52.7832 55.5898 52.8516 54.9902 52.8398 54.127C52.6289 54.4473 52.375 54.6855 52.0781 54.8418C51.7812 54.998 51.3887 55.0762 50.9004 55.0762C50.2207 55.0762 49.625 54.8359 49.1133 54.3555C48.6055 53.8711 48.3516 53.0723 48.3516 51.959C48.3516 50.9082 48.6074 50.0879 49.1191 49.498C49.6348 48.9082 50.2559 48.6133 50.9824 48.6133ZM52.8809 51.8359C52.8809 51.0586 52.7207 50.4824 52.4004 50.1074C52.0801 49.7324 51.6719 49.5449 51.1758 49.5449C50.4336 49.5449 49.9258 49.8926 49.6523 50.5879C49.5078 50.959 49.4355 51.4453 49.4355 52.0469C49.4355 52.7539 49.5781 53.293 49.8633 53.6641C50.1523 54.0312 50.5391 54.2148 51.0234 54.2148C51.7812 54.2148 52.3145 53.873 52.623 53.1895C52.7949 52.8027 52.8809 52.3516 52.8809 51.8359ZM58.0605 48.584C58.5059 48.584 58.9375 48.6895 59.3555 48.9004C59.7734 49.1074 60.0918 49.377 60.3105 49.709C60.5215 50.0254 60.6621 50.3945 60.7324 50.8164C60.7949 51.1055 60.8262 51.5664 60.8262 52.1992H56.2266C56.2461 52.8359 56.3965 53.3477 56.6777 53.7344C56.959 54.1172 57.3945 54.3086 57.9844 54.3086C58.5352 54.3086 58.9746 54.127 59.3027 53.7637C59.4902 53.5527 59.623 53.3086 59.7012 53.0312H60.7383C60.7109 53.2617 60.6191 53.5195 60.4629 53.8047C60.3105 54.0859 60.1387 54.3164 59.9473 54.4961C59.627 54.8086 59.2305 55.0195 58.7578 55.1289C58.5039 55.1914 58.2168 55.2227 57.8965 55.2227C57.1152 55.2227 56.4531 54.9395 55.9102 54.373C55.3672 53.8027 55.0957 53.0059 55.0957 51.9824C55.0957 50.9746 55.3691 50.1562 55.916 49.5273C56.4629 48.8984 57.1777 48.584 58.0605 48.584ZM59.7422 51.3613C59.6992 50.9043 59.5996 50.5391 59.4434 50.2656C59.1543 49.7578 58.6719 49.5039 57.9961 49.5039C57.5117 49.5039 57.1055 49.6797 56.7773 50.0312C56.4492 50.3789 56.2754 50.8223 56.2559 51.3613H59.7422Z" fill="#CCCCCC"/>
</g>
<path id="Vector" d="M85 36.25L75 45L85 53.75L85 36.25Z" fill="#EEEEEE"/>
</g>
<g id="Frame 12">
<rect width="245" height="89" transform="translate(85 20)" fill="#EEEEEE"/>
<rect id="Rectangle 7" x="95" y="30" width="215" height="10" fill="#666666"/>
<rect id="Rectangle 8" x="95" y="41" width="225" height="10" fill="#666666"/>
<rect id="Rectangle 14" x="95" y="52" width="215" height="10" fill="#666666"/>
<rect id="Rectangle 12" x="95" y="63" width="223" height="10" fill="#666666"/>
<rect id="Rectangle 9" x="95" y="74" width="65" height="10" fill="#666666"/>
<rect id="Rectangle 11" x="95" y="85" width="225" height="3" fill="#EEEEEE"/>
<g id="Frame 15">
<rect id="Rectangle 13" x="95" y="89" width="50" height="10" fill="#CCCCCC"/>
<rect id="Rectangle 16" x="150" y="89" width="50" height="10" fill="#CCCCCC"/>
</g>
</g>
</g>
<g id="talk-right">
<g id="Frame 12_2">
<rect width="250" height="78" transform="translate(20 124)" fill="#EEEEEE"/>
<rect id="Rectangle 7_2" x="45" y="134" width="215" height="10" fill="#666666"/>
<rect id="Rectangle 8_2" x="30" y="145" width="230" height="10" fill="#666666"/>
<rect id="Rectangle 14_2" x="45" y="156" width="215" height="10" fill="#666666"/>
<rect id="Rectangle 9_2" x="195" y="167" width="65" height="10" fill="#666666"/>
<rect id="Rectangle 11_2" x="30" y="178" width="230" height="3" fill="#EEEEEE"/>
<g id="Frame 15_2">
<rect id="Rectangle 13_2" x="155" y="182" width="50" height="10" fill="#CCCCCC"/>
<rect id="Rectangle 16_2" x="210" y="182" width="50" height="10" fill="#CCCCCC"/>
</g>
</g>
<g id="Frame 15_3">
<path id="Vector_2" d="M270 157.75L280 149L270 140.25V157.75Z" fill="#EEEEEE"/>
<g id="avatar_2">
<rect width="50" height="50" transform="translate(285 124)" fill="#CCCCCC"/>
<path id="avatar image_2" d="M294.895 145.33C294.895 145.635 295.006 145.875 295.229 146.051C295.451 146.227 295.715 146.314 296.02 146.314C296.391 146.314 296.75 146.229 297.098 146.057C297.684 145.771 297.977 145.305 297.977 144.656V143.807C297.848 143.889 297.682 143.957 297.479 144.012C297.275 144.066 297.076 144.105 296.881 144.129L296.242 144.211C295.859 144.262 295.572 144.342 295.381 144.451C295.057 144.635 294.895 144.928 294.895 145.33ZM297.449 143.197C297.691 143.166 297.854 143.064 297.936 142.893C297.982 142.799 298.006 142.664 298.006 142.488C298.006 142.129 297.877 141.869 297.619 141.709C297.365 141.545 297 141.463 296.523 141.463C295.973 141.463 295.582 141.611 295.352 141.908C295.223 142.072 295.139 142.316 295.1 142.641H294.115C294.135 141.867 294.385 141.33 294.865 141.029C295.35 140.725 295.91 140.572 296.547 140.572C297.285 140.572 297.885 140.713 298.346 140.994C298.803 141.275 299.031 141.713 299.031 142.307V145.922C299.031 146.031 299.053 146.119 299.096 146.186C299.143 146.252 299.238 146.285 299.383 146.285C299.43 146.285 299.482 146.283 299.541 146.279C299.6 146.271 299.662 146.262 299.729 146.25V147.029C299.564 147.076 299.439 147.105 299.354 147.117C299.268 147.129 299.15 147.135 299.002 147.135C298.639 147.135 298.375 147.006 298.211 146.748C298.125 146.611 298.064 146.418 298.029 146.168C297.814 146.449 297.506 146.693 297.104 146.9C296.701 147.107 296.258 147.211 295.773 147.211C295.191 147.211 294.715 147.035 294.344 146.684C293.977 146.328 293.793 145.885 293.793 145.354C293.793 144.771 293.975 144.32 294.338 144C294.701 143.68 295.178 143.482 295.768 143.408L297.449 143.197ZM301.281 140.725L302.957 145.834L304.709 140.725H305.863L303.496 147H302.371L300.057 140.725H301.281ZM307.574 145.33C307.574 145.635 307.686 145.875 307.908 146.051C308.131 146.227 308.395 146.314 308.699 146.314C309.07 146.314 309.43 146.229 309.777 146.057C310.363 145.771 310.656 145.305 310.656 144.656V143.807C310.527 143.889 310.361 143.957 310.158 144.012C309.955 144.066 309.756 144.105 309.561 144.129L308.922 144.211C308.539 144.262 308.252 144.342 308.061 144.451C307.736 144.635 307.574 144.928 307.574 145.33ZM310.129 143.197C310.371 143.166 310.533 143.064 310.615 142.893C310.662 142.799 310.686 142.664 310.686 142.488C310.686 142.129 310.557 141.869 310.299 141.709C310.045 141.545 309.68 141.463 309.203 141.463C308.652 141.463 308.262 141.611 308.031 141.908C307.902 142.072 307.818 142.316 307.779 142.641H306.795C306.814 141.867 307.064 141.33 307.545 141.029C308.029 140.725 308.59 140.572 309.227 140.572C309.965 140.572 310.564 140.713 311.025 140.994C311.482 141.275 311.711 141.713 311.711 142.307V145.922C311.711 146.031 311.732 146.119 311.775 146.186C311.822 146.252 311.918 146.285 312.062 146.285C312.109 146.285 312.162 146.283 312.221 146.279C312.279 146.271 312.342 146.262 312.408 146.25V147.029C312.244 147.076 312.119 147.105 312.033 147.117C311.947 147.129 311.83 147.135 311.682 147.135C311.318 147.135 311.055 147.006 310.891 146.748C310.805 146.611 310.744 146.418 310.709 146.168C310.494 146.449 310.186 146.693 309.783 146.9C309.381 147.107 308.938 147.211 308.453 147.211C307.871 147.211 307.395 147.035 307.023 146.684C306.656 146.328 306.473 145.885 306.473 145.354C306.473 144.771 306.654 144.32 307.018 144C307.381 143.68 307.857 143.482 308.447 143.408L310.129 143.197ZM313.656 138.973H314.723V140.725H315.725V141.586H314.723V145.682C314.723 145.9 314.797 146.047 314.945 146.121C315.027 146.164 315.164 146.186 315.355 146.186C315.406 146.186 315.461 146.186 315.52 146.186C315.578 146.182 315.646 146.176 315.725 146.168V147C315.604 147.035 315.477 147.061 315.344 147.076C315.215 147.092 315.074 147.1 314.922 147.1C314.43 147.1 314.096 146.975 313.92 146.725C313.744 146.471 313.656 146.143 313.656 145.74V141.586H312.807V140.725H313.656V138.973ZM317.594 145.33C317.594 145.635 317.705 145.875 317.928 146.051C318.15 146.227 318.414 146.314 318.719 146.314C319.09 146.314 319.449 146.229 319.797 146.057C320.383 145.771 320.676 145.305 320.676 144.656V143.807C320.547 143.889 320.381 143.957 320.178 144.012C319.975 144.066 319.775 144.105 319.58 144.129L318.941 144.211C318.559 144.262 318.271 144.342 318.08 144.451C317.756 144.635 317.594 144.928 317.594 145.33ZM320.148 143.197C320.391 143.166 320.553 143.064 320.635 142.893C320.682 142.799 320.705 142.664 320.705 142.488C320.705 142.129 320.576 141.869 320.318 141.709C320.064 141.545 319.699 141.463 319.223 141.463C318.672 141.463 318.281 141.611 318.051 141.908C317.922 142.072 317.838 142.316 317.799 142.641H316.814C316.834 141.867 317.084 141.33 317.564 141.029C318.049 140.725 318.609 140.572 319.246 140.572C319.984 140.572 320.584 140.713 321.045 140.994C321.502 141.275 321.73 141.713 321.73 142.307V145.922C321.73 146.031 321.752 146.119 321.795 146.186C321.842 146.252 321.938 146.285 322.082 146.285C322.129 146.285 322.182 146.283 322.24 146.279C322.299 146.271 322.361 146.262 322.428 146.25V147.029C322.264 147.076 322.139 147.105 322.053 147.117C321.967 147.129 321.85 147.135 321.701 147.135C321.338 147.135 321.074 147.006 320.91 146.748C320.824 146.611 320.764 146.418 320.729 146.168C320.514 146.449 320.205 146.693 319.803 146.9C319.4 147.107 318.957 147.211 318.473 147.211C317.891 147.211 317.414 147.035 317.043 146.684C316.676 146.328 316.492 145.885 316.492 145.354C316.492 144.771 316.674 144.32 317.037 144C317.4 143.68 317.877 143.482 318.467 143.408L320.148 143.197ZM323.494 140.725H324.496V141.809C324.578 141.598 324.779 141.342 325.1 141.041C325.42 140.736 325.789 140.584 326.207 140.584C326.227 140.584 326.26 140.586 326.307 140.59C326.354 140.594 326.434 140.602 326.547 140.613V141.727C326.484 141.715 326.426 141.707 326.371 141.703C326.32 141.699 326.264 141.697 326.201 141.697C325.67 141.697 325.262 141.869 324.977 142.213C324.691 142.553 324.549 142.945 324.549 143.391V147H323.494V140.725ZM294.42 152.754H295.492V159H294.42V152.754ZM294.42 150.393H295.492V151.588H294.42V150.393ZM297.092 152.725H298.135V153.615C298.385 153.307 298.611 153.082 298.814 152.941C299.162 152.703 299.557 152.584 299.998 152.584C300.498 152.584 300.9 152.707 301.205 152.953C301.377 153.094 301.533 153.301 301.674 153.574C301.908 153.238 302.184 152.99 302.5 152.83C302.816 152.666 303.172 152.584 303.566 152.584C304.41 152.584 304.984 152.889 305.289 153.498C305.453 153.826 305.535 154.268 305.535 154.822V159H304.439V154.641C304.439 154.223 304.334 153.936 304.123 153.779C303.916 153.623 303.662 153.545 303.361 153.545C302.947 153.545 302.59 153.684 302.289 153.961C301.992 154.238 301.844 154.701 301.844 155.35V159H300.771V154.904C300.771 154.479 300.721 154.168 300.619 153.973C300.459 153.68 300.16 153.533 299.723 153.533C299.324 153.533 298.961 153.688 298.633 153.996C298.309 154.305 298.146 154.863 298.146 155.672V159H297.092V152.725ZM307.896 157.33C307.896 157.635 308.008 157.875 308.23 158.051C308.453 158.227 308.717 158.314 309.021 158.314C309.393 158.314 309.752 158.229 310.1 158.057C310.686 157.771 310.979 157.305 310.979 156.656V155.807C310.85 155.889 310.684 155.957 310.48 156.012C310.277 156.066 310.078 156.105 309.883 156.129L309.244 156.211C308.861 156.262 308.574 156.342 308.383 156.451C308.059 156.635 307.896 156.928 307.896 157.33ZM310.451 155.197C310.693 155.166 310.855 155.064 310.938 154.893C310.984 154.799 311.008 154.664 311.008 154.488C311.008 154.129 310.879 153.869 310.621 153.709C310.367 153.545 310.002 153.463 309.525 153.463C308.975 153.463 308.584 153.611 308.354 153.908C308.225 154.072 308.141 154.316 308.102 154.641H307.117C307.137 153.867 307.387 153.33 307.867 153.029C308.352 152.725 308.912 152.572 309.549 152.572C310.287 152.572 310.887 152.713 311.348 152.994C311.805 153.275 312.033 153.713 312.033 154.307V157.922C312.033 158.031 312.055 158.119 312.098 158.186C312.145 158.252 312.24 158.285 312.385 158.285C312.432 158.285 312.484 158.283 312.543 158.279C312.602 158.271 312.664 158.262 312.73 158.25V159.029C312.566 159.076 312.441 159.105 312.355 159.117C312.27 159.129 312.152 159.135 312.004 159.135C311.641 159.135 311.377 159.006 311.213 158.748C311.127 158.611 311.066 158.418 311.031 158.168C310.816 158.449 310.508 158.693 310.105 158.9C309.703 159.107 309.26 159.211 308.775 159.211C308.193 159.211 307.717 159.035 307.346 158.684C306.979 158.328 306.795 157.885 306.795 157.354C306.795 156.771 306.977 156.32 307.34 156C307.703 155.68 308.18 155.482 308.77 155.408L310.451 155.197ZM315.982 152.613C316.475 152.613 316.904 152.734 317.271 152.977C317.471 153.113 317.674 153.312 317.881 153.574V152.783H318.854V158.49C318.854 159.287 318.736 159.916 318.502 160.377C318.064 161.229 317.238 161.654 316.023 161.654C315.348 161.654 314.779 161.502 314.318 161.197C313.857 160.896 313.6 160.424 313.545 159.779H314.617C314.668 160.061 314.77 160.277 314.922 160.43C315.16 160.664 315.535 160.781 316.047 160.781C316.855 160.781 317.385 160.496 317.635 159.926C317.783 159.59 317.852 158.99 317.84 158.127C317.629 158.447 317.375 158.686 317.078 158.842C316.781 158.998 316.389 159.076 315.9 159.076C315.221 159.076 314.625 158.836 314.113 158.355C313.605 157.871 313.352 157.072 313.352 155.959C313.352 154.908 313.607 154.088 314.119 153.498C314.635 152.908 315.256 152.613 315.982 152.613ZM317.881 155.836C317.881 155.059 317.721 154.482 317.4 154.107C317.08 153.732 316.672 153.545 316.176 153.545C315.434 153.545 314.926 153.893 314.652 154.588C314.508 154.959 314.436 155.445 314.436 156.047C314.436 156.754 314.578 157.293 314.863 157.664C315.152 158.031 315.539 158.215 316.023 158.215C316.781 158.215 317.314 157.873 317.623 157.189C317.795 156.803 317.881 156.352 317.881 155.836ZM323.061 152.584C323.506 152.584 323.938 152.689 324.355 152.9C324.773 153.107 325.092 153.377 325.311 153.709C325.521 154.025 325.662 154.395 325.732 154.816C325.795 155.105 325.826 155.566 325.826 156.199H321.227C321.246 156.836 321.396 157.348 321.678 157.734C321.959 158.117 322.395 158.309 322.984 158.309C323.535 158.309 323.975 158.127 324.303 157.764C324.49 157.553 324.623 157.309 324.701 157.031H325.738C325.711 157.262 325.619 157.52 325.463 157.805C325.311 158.086 325.139 158.316 324.947 158.496C324.627 158.809 324.23 159.02 323.758 159.129C323.504 159.191 323.217 159.223 322.896 159.223C322.115 159.223 321.453 158.939 320.91 158.373C320.367 157.803 320.096 157.006 320.096 155.982C320.096 154.975 320.369 154.156 320.916 153.527C321.463 152.898 322.178 152.584 323.061 152.584ZM324.742 155.361C324.699 154.904 324.6 154.539 324.443 154.266C324.154 153.758 323.672 153.504 322.996 153.504C322.512 153.504 322.105 153.68 321.777 154.031C321.449 154.379 321.275 154.822 321.256 155.361H324.742Z" fill="#CCCCCC"/>
</g>
</g>
</g>
<g id="talk-left_2">
<g id="Frame 14_2" clip-path="url(#clip1)">
<g id="avatar_3">
<rect width="50" height="50" transform="translate(20 217)" fill="#CCCCCC"/>
<path id="avatar image_3" d="M29.8945 238.33C29.8945 238.635 30.0059 238.875 30.2285 239.051C30.4512 239.227 30.7148 239.314 31.0195 239.314C31.3906 239.314 31.75 239.229 32.0977 239.057C32.6836 238.771 32.9766 238.305 32.9766 237.656V236.807C32.8477 236.889 32.6816 236.957 32.4785 237.012C32.2754 237.066 32.0762 237.105 31.8809 237.129L31.2422 237.211C30.8594 237.262 30.5723 237.342 30.3809 237.451C30.0566 237.635 29.8945 237.928 29.8945 238.33ZM32.4492 236.197C32.6914 236.166 32.8535 236.064 32.9355 235.893C32.9824 235.799 33.0059 235.664 33.0059 235.488C33.0059 235.129 32.877 234.869 32.6191 234.709C32.3652 234.545 32 234.463 31.5234 234.463C30.9727 234.463 30.582 234.611 30.3516 234.908C30.2227 235.072 30.1387 235.316 30.0996 235.641H29.1152C29.1348 234.867 29.3848 234.33 29.8652 234.029C30.3496 233.725 30.9102 233.572 31.5469 233.572C32.2852 233.572 32.8848 233.713 33.3457 233.994C33.8027 234.275 34.0312 234.713 34.0312 235.307V238.922C34.0312 239.031 34.0527 239.119 34.0957 239.186C34.1426 239.252 34.2383 239.285 34.3828 239.285C34.4297 239.285 34.4824 239.283 34.541 239.279C34.5996 239.271 34.6621 239.262 34.7285 239.25V240.029C34.5645 240.076 34.4395 240.105 34.3535 240.117C34.2676 240.129 34.1504 240.135 34.002 240.135C33.6387 240.135 33.375 240.006 33.2109 239.748C33.125 239.611 33.0645 239.418 33.0293 239.168C32.8145 239.449 32.5059 239.693 32.1035 239.9C31.7012 240.107 31.2578 240.211 30.7734 240.211C30.1914 240.211 29.7148 240.035 29.3438 239.684C28.9766 239.328 28.793 238.885 28.793 238.354C28.793 237.771 28.9746 237.32 29.3379 237C29.7012 236.68 30.1777 236.482 30.7676 236.408L32.4492 236.197ZM36.2812 233.725L37.957 238.834L39.709 233.725H40.8633L38.4961 240H37.3711L35.0566 233.725H36.2812ZM42.5742 238.33C42.5742 238.635 42.6855 238.875 42.9082 239.051C43.1309 239.227 43.3945 239.314 43.6992 239.314C44.0703 239.314 44.4297 239.229 44.7773 239.057C45.3633 238.771 45.6562 238.305 45.6562 237.656V236.807C45.5273 236.889 45.3613 236.957 45.1582 237.012C44.9551 237.066 44.7559 237.105 44.5605 237.129L43.9219 237.211C43.5391 237.262 43.252 237.342 43.0605 237.451C42.7363 237.635 42.5742 237.928 42.5742 238.33ZM45.1289 236.197C45.3711 236.166 45.5332 236.064 45.6152 235.893C45.6621 235.799 45.6855 235.664 45.6855 235.488C45.6855 235.129 45.5566 234.869 45.2988 234.709C45.0449 234.545 44.6797 234.463 44.2031 234.463C43.6523 234.463 43.2617 234.611 43.0312 234.908C42.9023 235.072 42.8184 235.316 42.7793 235.641H41.7949C41.8145 234.867 42.0645 234.33 42.5449 234.029C43.0293 233.725 43.5898 233.572 44.2266 233.572C44.9648 233.572 45.5645 233.713 46.0254 233.994C46.4824 234.275 46.7109 234.713 46.7109 235.307V238.922C46.7109 239.031 46.7324 239.119 46.7754 239.186C46.8223 239.252 46.918 239.285 47.0625 239.285C47.1094 239.285 47.1621 239.283 47.2207 239.279C47.2793 239.271 47.3418 239.262 47.4082 239.25V240.029C47.2441 240.076 47.1191 240.105 47.0332 240.117C46.9473 240.129 46.8301 240.135 46.6816 240.135C46.3184 240.135 46.0547 240.006 45.8906 239.748C45.8047 239.611 45.7441 239.418 45.709 239.168C45.4941 239.449 45.1855 239.693 44.7832 239.9C44.3809 240.107 43.9375 240.211 43.4531 240.211C42.8711 240.211 42.3945 240.035 42.0234 239.684C41.6562 239.328 41.4727 238.885 41.4727 238.354C41.4727 237.771 41.6543 237.32 42.0176 237C42.3809 236.68 42.8574 236.482 43.4473 236.408L45.1289 236.197ZM48.6562 231.973H49.7227V233.725H50.7246V234.586H49.7227V238.682C49.7227 238.9 49.7969 239.047 49.9453 239.121C50.0273 239.164 50.1641 239.186 50.3555 239.186C50.4062 239.186 50.4609 239.186 50.5195 239.186C50.5781 239.182 50.6465 239.176 50.7246 239.168V240C50.6035 240.035 50.4766 240.061 50.3438 240.076C50.2148 240.092 50.0742 240.1 49.9219 240.1C49.4297 240.1 49.0957 239.975 48.9199 239.725C48.7441 239.471 48.6562 239.143 48.6562 238.74V234.586H47.8066V233.725H48.6562V231.973ZM52.5938 238.33C52.5938 238.635 52.7051 238.875 52.9277 239.051C53.1504 239.227 53.4141 239.314 53.7188 239.314C54.0898 239.314 54.4492 239.229 54.7969 239.057C55.3828 238.771 55.6758 238.305 55.6758 237.656V236.807C55.5469 236.889 55.3809 236.957 55.1777 237.012C54.9746 237.066 54.7754 237.105 54.5801 237.129L53.9414 237.211C53.5586 237.262 53.2715 237.342 53.0801 237.451C52.7559 237.635 52.5938 237.928 52.5938 238.33ZM55.1484 236.197C55.3906 236.166 55.5527 236.064 55.6348 235.893C55.6816 235.799 55.7051 235.664 55.7051 235.488C55.7051 235.129 55.5762 234.869 55.3184 234.709C55.0645 234.545 54.6992 234.463 54.2227 234.463C53.6719 234.463 53.2812 234.611 53.0508 234.908C52.9219 235.072 52.8379 235.316 52.7988 235.641H51.8145C51.834 234.867 52.084 234.33 52.5645 234.029C53.0488 233.725 53.6094 233.572 54.2461 233.572C54.9844 233.572 55.584 233.713 56.0449 233.994C56.502 234.275 56.7305 234.713 56.7305 235.307V238.922C56.7305 239.031 56.752 239.119 56.7949 239.186C56.8418 239.252 56.9375 239.285 57.082 239.285C57.1289 239.285 57.1816 239.283 57.2402 239.279C57.2988 239.271 57.3613 239.262 57.4277 239.25V240.029C57.2637 240.076 57.1387 240.105 57.0527 240.117C56.9668 240.129 56.8496 240.135 56.7012 240.135C56.3379 240.135 56.0742 240.006 55.9102 239.748C55.8242 239.611 55.7637 239.418 55.7285 239.168C55.5137 239.449 55.2051 239.693 54.8027 239.9C54.4004 240.107 53.957 240.211 53.4727 240.211C52.8906 240.211 52.4141 240.035 52.043 239.684C51.6758 239.328 51.4922 238.885 51.4922 238.354C51.4922 237.771 51.6738 237.32 52.0371 237C52.4004 236.68 52.877 236.482 53.4668 236.408L55.1484 236.197ZM58.4941 233.725H59.4961V234.809C59.5781 234.598 59.7793 234.342 60.0996 234.041C60.4199 233.736 60.7891 233.584 61.207 233.584C61.2266 233.584 61.2598 233.586 61.3066 233.59C61.3535 233.594 61.4336 233.602 61.5469 233.613V234.727C61.4844 234.715 61.4258 234.707 61.3711 234.703C61.3203 234.699 61.2637 234.697 61.2012 234.697C60.6699 234.697 60.2617 234.869 59.9766 235.213C59.6914 235.553 59.5488 235.945 59.5488 236.391V240H58.4941V233.725ZM29.4199 245.754H30.4922V252H29.4199V245.754ZM29.4199 243.393H30.4922V244.588H29.4199V243.393ZM32.0918 245.725H33.1348V246.615C33.3848 246.307 33.6113 246.082 33.8145 245.941C34.1621 245.703 34.5566 245.584 34.998 245.584C35.498 245.584 35.9004 245.707 36.2051 245.953C36.377 246.094 36.5332 246.301 36.6738 246.574C36.9082 246.238 37.1836 245.99 37.5 245.83C37.8164 245.666 38.1719 245.584 38.5664 245.584C39.4102 245.584 39.9844 245.889 40.2891 246.498C40.4531 246.826 40.5352 247.268 40.5352 247.822V252H39.4395V247.641C39.4395 247.223 39.334 246.936 39.123 246.779C38.916 246.623 38.6621 246.545 38.3613 246.545C37.9473 246.545 37.5898 246.684 37.2891 246.961C36.9922 247.238 36.8438 247.701 36.8438 248.35V252H35.7715V247.904C35.7715 247.479 35.7207 247.168 35.6191 246.973C35.459 246.68 35.1602 246.533 34.7227 246.533C34.3242 246.533 33.9609 246.688 33.6328 246.996C33.3086 247.305 33.1465 247.863 33.1465 248.672V252H32.0918V245.725ZM42.8965 250.33C42.8965 250.635 43.0078 250.875 43.2305 251.051C43.4531 251.227 43.7168 251.314 44.0215 251.314C44.3926 251.314 44.752 251.229 45.0996 251.057C45.6855 250.771 45.9785 250.305 45.9785 249.656V248.807C45.8496 248.889 45.6836 248.957 45.4805 249.012C45.2773 249.066 45.0781 249.105 44.8828 249.129L44.2441 249.211C43.8613 249.262 43.5742 249.342 43.3828 249.451C43.0586 249.635 42.8965 249.928 42.8965 250.33ZM45.4512 248.197C45.6934 248.166 45.8555 248.064 45.9375 247.893C45.9844 247.799 46.0078 247.664 46.0078 247.488C46.0078 247.129 45.8789 246.869 45.6211 246.709C45.3672 246.545 45.002 246.463 44.5254 246.463C43.9746 246.463 43.584 246.611 43.3535 246.908C43.2246 247.072 43.1406 247.316 43.1016 247.641H42.1172C42.1367 246.867 42.3867 246.33 42.8672 246.029C43.3516 245.725 43.9121 245.572 44.5488 245.572C45.2871 245.572 45.8867 245.713 46.3477 245.994C46.8047 246.275 47.0332 246.713 47.0332 247.307V250.922C47.0332 251.031 47.0547 251.119 47.0977 251.186C47.1445 251.252 47.2402 251.285 47.3848 251.285C47.4316 251.285 47.4844 251.283 47.543 251.279C47.6016 251.271 47.6641 251.262 47.7305 251.25V252.029C47.5664 252.076 47.4414 252.105 47.3555 252.117C47.2695 252.129 47.1523 252.135 47.0039 252.135C46.6406 252.135 46.377 252.006 46.2129 251.748C46.127 251.611 46.0664 251.418 46.0312 251.168C45.8164 251.449 45.5078 251.693 45.1055 251.9C44.7031 252.107 44.2598 252.211 43.7754 252.211C43.1934 252.211 42.7168 252.035 42.3457 251.684C41.9785 251.328 41.7949 250.885 41.7949 250.354C41.7949 249.771 41.9766 249.32 42.3398 249C42.7031 248.68 43.1797 248.482 43.7695 248.408L45.4512 248.197ZM50.9824 245.613C51.4746 245.613 51.9043 245.734 52.2715 245.977C52.4707 246.113 52.6738 246.312 52.8809 246.574V245.783H53.8535V251.49C53.8535 252.287 53.7363 252.916 53.502 253.377C53.0645 254.229 52.2383 254.654 51.0234 254.654C50.3477 254.654 49.7793 254.502 49.3184 254.197C48.8574 253.896 48.5996 253.424 48.5449 252.779H49.6172C49.668 253.061 49.7695 253.277 49.9219 253.43C50.1602 253.664 50.5352 253.781 51.0469 253.781C51.8555 253.781 52.3848 253.496 52.6348 252.926C52.7832 252.59 52.8516 251.99 52.8398 251.127C52.6289 251.447 52.375 251.686 52.0781 251.842C51.7812 251.998 51.3887 252.076 50.9004 252.076C50.2207 252.076 49.625 251.836 49.1133 251.355C48.6055 250.871 48.3516 250.072 48.3516 248.959C48.3516 247.908 48.6074 247.088 49.1191 246.498C49.6348 245.908 50.2559 245.613 50.9824 245.613ZM52.8809 248.836C52.8809 248.059 52.7207 247.482 52.4004 247.107C52.0801 246.732 51.6719 246.545 51.1758 246.545C50.4336 246.545 49.9258 246.893 49.6523 247.588C49.5078 247.959 49.4355 248.445 49.4355 249.047C49.4355 249.754 49.5781 250.293 49.8633 250.664C50.1523 251.031 50.5391 251.215 51.0234 251.215C51.7812 251.215 52.3145 250.873 52.623 250.189C52.7949 249.803 52.8809 249.352 52.8809 248.836ZM58.0605 245.584C58.5059 245.584 58.9375 245.689 59.3555 245.9C59.7734 246.107 60.0918 246.377 60.3105 246.709C60.5215 247.025 60.6621 247.395 60.7324 247.816C60.7949 248.105 60.8262 248.566 60.8262 249.199H56.2266C56.2461 249.836 56.3965 250.348 56.6777 250.734C56.959 251.117 57.3945 251.309 57.9844 251.309C58.5352 251.309 58.9746 251.127 59.3027 250.764C59.4902 250.553 59.623 250.309 59.7012 250.031H60.7383C60.7109 250.262 60.6191 250.52 60.4629 250.805C60.3105 251.086 60.1387 251.316 59.9473 251.496C59.627 251.809 59.2305 252.02 58.7578 252.129C58.5039 252.191 58.2168 252.223 57.8965 252.223C57.1152 252.223 56.4531 251.939 55.9102 251.373C55.3672 250.803 55.0957 250.006 55.0957 248.982C55.0957 247.975 55.3691 247.156 55.916 246.527C56.4629 245.898 57.1777 245.584 58.0605 245.584ZM59.7422 248.361C59.6992 247.904 59.5996 247.539 59.4434 247.266C59.1543 246.758 58.6719 246.504 57.9961 246.504C57.5117 246.504 57.1055 246.68 56.7773 247.031C56.4492 247.379 56.2754 247.822 56.2559 248.361H59.7422Z" fill="#CCCCCC"/>
</g>
<path id="Vector_3" d="M85 233.25L75 242L85 250.75L85 233.25Z" fill="#EEEEEE"/>
</g>
<g id="Frame 12_3" clip-path="url(#clip2)">
<rect width="245" height="56" transform="translate(85 217)" fill="#EEEEEE"/>
<rect id="Rectangle 15" x="95" y="227" width="206" height="10" fill="#666666"/>
<rect id="Rectangle 9_3" x="95" y="238" width="65" height="10" fill="#666666"/>
<rect id="Rectangle 11_3" x="95" y="249" width="225" height="3" fill="#EEEEEE"/>
<g id="Frame 15_4">
<rect id="Rectangle 13_3" x="95" y="253" width="50" height="10" fill="#CCCCCC"/>
<rect id="Rectangle 16_3" x="150" y="253" width="50" height="10" fill="#CCCCCC"/>
</g>
</g>
</g>
<g id="talk-right_2">
<g id="Frame 12_4" clip-path="url(#clip3)">
<rect width="250" height="67" transform="translate(20 288)" fill="#EEEEEE"/>
<rect id="Rectangle 7_3" x="45" y="298" width="215" height="10" fill="#666666"/>
<rect id="Rectangle 14_3" x="45" y="309" width="215" height="10" fill="#666666"/>
<rect id="Rectangle 9_4" x="195" y="320" width="65" height="10" fill="#666666"/>
<rect id="Rectangle 11_4" x="30" y="331" width="230" height="3" fill="#EEEEEE"/>
<g id="Frame 15_5">
<rect id="Rectangle 13_4" x="155" y="335" width="50" height="10" fill="#CCCCCC"/>
<rect id="Rectangle 16_4" x="210" y="335" width="50" height="10" fill="#CCCCCC"/>
</g>
</g>
<g id="Frame 15_6">
<path id="Vector_4" d="M270 321.75L280 313L270 304.25V321.75Z" fill="#EEEEEE"/>
<g id="avatar_4">
<rect width="50" height="50" transform="translate(285 288)" fill="#CCCCCC"/>
<path id="avatar image_4" d="M294.895 309.33C294.895 309.635 295.006 309.875 295.229 310.051C295.451 310.227 295.715 310.314 296.02 310.314C296.391 310.314 296.75 310.229 297.098 310.057C297.684 309.771 297.977 309.305 297.977 308.656V307.807C297.848 307.889 297.682 307.957 297.479 308.012C297.275 308.066 297.076 308.105 296.881 308.129L296.242 308.211C295.859 308.262 295.572 308.342 295.381 308.451C295.057 308.635 294.895 308.928 294.895 309.33ZM297.449 307.197C297.691 307.166 297.854 307.064 297.936 306.893C297.982 306.799 298.006 306.664 298.006 306.488C298.006 306.129 297.877 305.869 297.619 305.709C297.365 305.545 297 305.463 296.523 305.463C295.973 305.463 295.582 305.611 295.352 305.908C295.223 306.072 295.139 306.316 295.1 306.641H294.115C294.135 305.867 294.385 305.33 294.865 305.029C295.35 304.725 295.91 304.572 296.547 304.572C297.285 304.572 297.885 304.713 298.346 304.994C298.803 305.275 299.031 305.713 299.031 306.307V309.922C299.031 310.031 299.053 310.119 299.096 310.186C299.143 310.252 299.238 310.285 299.383 310.285C299.43 310.285 299.482 310.283 299.541 310.279C299.6 310.271 299.662 310.262 299.729 310.25V311.029C299.564 311.076 299.439 311.105 299.354 311.117C299.268 311.129 299.15 311.135 299.002 311.135C298.639 311.135 298.375 311.006 298.211 310.748C298.125 310.611 298.064 310.418 298.029 310.168C297.814 310.449 297.506 310.693 297.104 310.9C296.701 311.107 296.258 311.211 295.773 311.211C295.191 311.211 294.715 311.035 294.344 310.684C293.977 310.328 293.793 309.885 293.793 309.354C293.793 308.771 293.975 308.32 294.338 308C294.701 307.68 295.178 307.482 295.768 307.408L297.449 307.197ZM301.281 304.725L302.957 309.834L304.709 304.725H305.863L303.496 311H302.371L300.057 304.725H301.281ZM307.574 309.33C307.574 309.635 307.686 309.875 307.908 310.051C308.131 310.227 308.395 310.314 308.699 310.314C309.07 310.314 309.43 310.229 309.777 310.057C310.363 309.771 310.656 309.305 310.656 308.656V307.807C310.527 307.889 310.361 307.957 310.158 308.012C309.955 308.066 309.756 308.105 309.561 308.129L308.922 308.211C308.539 308.262 308.252 308.342 308.061 308.451C307.736 308.635 307.574 308.928 307.574 309.33ZM310.129 307.197C310.371 307.166 310.533 307.064 310.615 306.893C310.662 306.799 310.686 306.664 310.686 306.488C310.686 306.129 310.557 305.869 310.299 305.709C310.045 305.545 309.68 305.463 309.203 305.463C308.652 305.463 308.262 305.611 308.031 305.908C307.902 306.072 307.818 306.316 307.779 306.641H306.795C306.814 305.867 307.064 305.33 307.545 305.029C308.029 304.725 308.59 304.572 309.227 304.572C309.965 304.572 310.564 304.713 311.025 304.994C311.482 305.275 311.711 305.713 311.711 306.307V309.922C311.711 310.031 311.732 310.119 311.775 310.186C311.822 310.252 311.918 310.285 312.062 310.285C312.109 310.285 312.162 310.283 312.221 310.279C312.279 310.271 312.342 310.262 312.408 310.25V311.029C312.244 311.076 312.119 311.105 312.033 311.117C311.947 311.129 311.83 311.135 311.682 311.135C311.318 311.135 311.055 311.006 310.891 310.748C310.805 310.611 310.744 310.418 310.709 310.168C310.494 310.449 310.186 310.693 309.783 310.9C309.381 311.107 308.938 311.211 308.453 311.211C307.871 311.211 307.395 311.035 307.023 310.684C306.656 310.328 306.473 309.885 306.473 309.354C306.473 308.771 306.654 308.32 307.018 308C307.381 307.68 307.857 307.482 308.447 307.408L310.129 307.197ZM313.656 302.973H314.723V304.725H315.725V305.586H314.723V309.682C314.723 309.9 314.797 310.047 314.945 310.121C315.027 310.164 315.164 310.186 315.355 310.186C315.406 310.186 315.461 310.186 315.52 310.186C315.578 310.182 315.646 310.176 315.725 310.168V311C315.604 311.035 315.477 311.061 315.344 311.076C315.215 311.092 315.074 311.1 314.922 311.1C314.43 311.1 314.096 310.975 313.92 310.725C313.744 310.471 313.656 310.143 313.656 309.74V305.586H312.807V304.725H313.656V302.973ZM317.594 309.33C317.594 309.635 317.705 309.875 317.928 310.051C318.15 310.227 318.414 310.314 318.719 310.314C319.09 310.314 319.449 310.229 319.797 310.057C320.383 309.771 320.676 309.305 320.676 308.656V307.807C320.547 307.889 320.381 307.957 320.178 308.012C319.975 308.066 319.775 308.105 319.58 308.129L318.941 308.211C318.559 308.262 318.271 308.342 318.08 308.451C317.756 308.635 317.594 308.928 317.594 309.33ZM320.148 307.197C320.391 307.166 320.553 307.064 320.635 306.893C320.682 306.799 320.705 306.664 320.705 306.488C320.705 306.129 320.576 305.869 320.318 305.709C320.064 305.545 319.699 305.463 319.223 305.463C318.672 305.463 318.281 305.611 318.051 305.908C317.922 306.072 317.838 306.316 317.799 306.641H316.814C316.834 305.867 317.084 305.33 317.564 305.029C318.049 304.725 318.609 304.572 319.246 304.572C319.984 304.572 320.584 304.713 321.045 304.994C321.502 305.275 321.73 305.713 321.73 306.307V309.922C321.73 310.031 321.752 310.119 321.795 310.186C321.842 310.252 321.938 310.285 322.082 310.285C322.129 310.285 322.182 310.283 322.24 310.279C322.299 310.271 322.361 310.262 322.428 310.25V311.029C322.264 311.076 322.139 311.105 322.053 311.117C321.967 311.129 321.85 311.135 321.701 311.135C321.338 311.135 321.074 311.006 320.91 310.748C320.824 310.611 320.764 310.418 320.729 310.168C320.514 310.449 320.205 310.693 319.803 310.9C319.4 311.107 318.957 311.211 318.473 311.211C317.891 311.211 317.414 311.035 317.043 310.684C316.676 310.328 316.492 309.885 316.492 309.354C316.492 308.771 316.674 308.32 317.037 308C317.4 307.68 317.877 307.482 318.467 307.408L320.148 307.197ZM323.494 304.725H324.496V305.809C324.578 305.598 324.779 305.342 325.1 305.041C325.42 304.736 325.789 304.584 326.207 304.584C326.227 304.584 326.26 304.586 326.307 304.59C326.354 304.594 326.434 304.602 326.547 304.613V305.727C326.484 305.715 326.426 305.707 326.371 305.703C326.32 305.699 326.264 305.697 326.201 305.697C325.67 305.697 325.262 305.869 324.977 306.213C324.691 306.553 324.549 306.945 324.549 307.391V311H323.494V304.725ZM294.42 316.754H295.492V323H294.42V316.754ZM294.42 314.393H295.492V315.588H294.42V314.393ZM297.092 316.725H298.135V317.615C298.385 317.307 298.611 317.082 298.814 316.941C299.162 316.703 299.557 316.584 299.998 316.584C300.498 316.584 300.9 316.707 301.205 316.953C301.377 317.094 301.533 317.301 301.674 317.574C301.908 317.238 302.184 316.99 302.5 316.83C302.816 316.666 303.172 316.584 303.566 316.584C304.41 316.584 304.984 316.889 305.289 317.498C305.453 317.826 305.535 318.268 305.535 318.822V323H304.439V318.641C304.439 318.223 304.334 317.936 304.123 317.779C303.916 317.623 303.662 317.545 303.361 317.545C302.947 317.545 302.59 317.684 302.289 317.961C301.992 318.238 301.844 318.701 301.844 319.35V323H300.771V318.904C300.771 318.479 300.721 318.168 300.619 317.973C300.459 317.68 300.16 317.533 299.723 317.533C299.324 317.533 298.961 317.688 298.633 317.996C298.309 318.305 298.146 318.863 298.146 319.672V323H297.092V316.725ZM307.896 321.33C307.896 321.635 308.008 321.875 308.23 322.051C308.453 322.227 308.717 322.314 309.021 322.314C309.393 322.314 309.752 322.229 310.1 322.057C310.686 321.771 310.979 321.305 310.979 320.656V319.807C310.85 319.889 310.684 319.957 310.48 320.012C310.277 320.066 310.078 320.105 309.883 320.129L309.244 320.211C308.861 320.262 308.574 320.342 308.383 320.451C308.059 320.635 307.896 320.928 307.896 321.33ZM310.451 319.197C310.693 319.166 310.855 319.064 310.938 318.893C310.984 318.799 311.008 318.664 311.008 318.488C311.008 318.129 310.879 317.869 310.621 317.709C310.367 317.545 310.002 317.463 309.525 317.463C308.975 317.463 308.584 317.611 308.354 317.908C308.225 318.072 308.141 318.316 308.102 318.641H307.117C307.137 317.867 307.387 317.33 307.867 317.029C308.352 316.725 308.912 316.572 309.549 316.572C310.287 316.572 310.887 316.713 311.348 316.994C311.805 317.275 312.033 317.713 312.033 318.307V321.922C312.033 322.031 312.055 322.119 312.098 322.186C312.145 322.252 312.24 322.285 312.385 322.285C312.432 322.285 312.484 322.283 312.543 322.279C312.602 322.271 312.664 322.262 312.73 322.25V323.029C312.566 323.076 312.441 323.105 312.355 323.117C312.27 323.129 312.152 323.135 312.004 323.135C311.641 323.135 311.377 323.006 311.213 322.748C311.127 322.611 311.066 322.418 311.031 322.168C310.816 322.449 310.508 322.693 310.105 322.9C309.703 323.107 309.26 323.211 308.775 323.211C308.193 323.211 307.717 323.035 307.346 322.684C306.979 322.328 306.795 321.885 306.795 321.354C306.795 320.771 306.977 320.32 307.34 320C307.703 319.68 308.18 319.482 308.77 319.408L310.451 319.197ZM315.982 316.613C316.475 316.613 316.904 316.734 317.271 316.977C317.471 317.113 317.674 317.312 317.881 317.574V316.783H318.854V322.49C318.854 323.287 318.736 323.916 318.502 324.377C318.064 325.229 317.238 325.654 316.023 325.654C315.348 325.654 314.779 325.502 314.318 325.197C313.857 324.896 313.6 324.424 313.545 323.779H314.617C314.668 324.061 314.77 324.277 314.922 324.43C315.16 324.664 315.535 324.781 316.047 324.781C316.855 324.781 317.385 324.496 317.635 323.926C317.783 323.59 317.852 322.99 317.84 322.127C317.629 322.447 317.375 322.686 317.078 322.842C316.781 322.998 316.389 323.076 315.9 323.076C315.221 323.076 314.625 322.836 314.113 322.355C313.605 321.871 313.352 321.072 313.352 319.959C313.352 318.908 313.607 318.088 314.119 317.498C314.635 316.908 315.256 316.613 315.982 316.613ZM317.881 319.836C317.881 319.059 317.721 318.482 317.4 318.107C317.08 317.732 316.672 317.545 316.176 317.545C315.434 317.545 314.926 317.893 314.652 318.588C314.508 318.959 314.436 319.445 314.436 320.047C314.436 320.754 314.578 321.293 314.863 321.664C315.152 322.031 315.539 322.215 316.023 322.215C316.781 322.215 317.314 321.873 317.623 321.189C317.795 320.803 317.881 320.352 317.881 319.836ZM323.061 316.584C323.506 316.584 323.938 316.689 324.355 316.9C324.773 317.107 325.092 317.377 325.311 317.709C325.521 318.025 325.662 318.395 325.732 318.816C325.795 319.105 325.826 319.566 325.826 320.199H321.227C321.246 320.836 321.396 321.348 321.678 321.734C321.959 322.117 322.395 322.309 322.984 322.309C323.535 322.309 323.975 322.127 324.303 321.764C324.49 321.553 324.623 321.309 324.701 321.031H325.738C325.711 321.262 325.619 321.52 325.463 321.805C325.311 322.086 325.139 322.316 324.947 322.496C324.627 322.809 324.23 323.02 323.758 323.129C323.504 323.191 323.217 323.223 322.896 323.223C322.115 323.223 321.453 322.939 320.91 322.373C320.367 321.803 320.096 321.006 320.096 319.982C320.096 318.975 320.369 318.156 320.916 317.527C321.463 316.898 322.178 316.584 323.061 316.584ZM324.742 319.361C324.699 318.904 324.6 318.539 324.443 318.266C324.154 317.758 323.672 317.504 322.996 317.504C322.512 317.504 322.105 317.68 321.777 318.031C321.449 318.379 321.275 318.822 321.256 319.361H324.742Z" fill="#CCCCCC"/>
</g>
</g>
</g>
<g id="talk-left_3">
<g id="Frame 14_3" clip-path="url(#clip4)">
<g id="avatar_5">
<rect width="50" height="50" transform="translate(20 370)" fill="#CCCCCC"/>
<path id="avatar image_5" d="M29.8945 391.33C29.8945 391.635 30.0059 391.875 30.2285 392.051C30.4512 392.227 30.7148 392.314 31.0195 392.314C31.3906 392.314 31.75 392.229 32.0977 392.057C32.6836 391.771 32.9766 391.305 32.9766 390.656V389.807C32.8477 389.889 32.6816 389.957 32.4785 390.012C32.2754 390.066 32.0762 390.105 31.8809 390.129L31.2422 390.211C30.8594 390.262 30.5723 390.342 30.3809 390.451C30.0566 390.635 29.8945 390.928 29.8945 391.33ZM32.4492 389.197C32.6914 389.166 32.8535 389.064 32.9355 388.893C32.9824 388.799 33.0059 388.664 33.0059 388.488C33.0059 388.129 32.877 387.869 32.6191 387.709C32.3652 387.545 32 387.463 31.5234 387.463C30.9727 387.463 30.582 387.611 30.3516 387.908C30.2227 388.072 30.1387 388.316 30.0996 388.641H29.1152C29.1348 387.867 29.3848 387.33 29.8652 387.029C30.3496 386.725 30.9102 386.572 31.5469 386.572C32.2852 386.572 32.8848 386.713 33.3457 386.994C33.8027 387.275 34.0312 387.713 34.0312 388.307V391.922C34.0312 392.031 34.0527 392.119 34.0957 392.186C34.1426 392.252 34.2383 392.285 34.3828 392.285C34.4297 392.285 34.4824 392.283 34.541 392.279C34.5996 392.271 34.6621 392.262 34.7285 392.25V393.029C34.5645 393.076 34.4395 393.105 34.3535 393.117C34.2676 393.129 34.1504 393.135 34.002 393.135C33.6387 393.135 33.375 393.006 33.2109 392.748C33.125 392.611 33.0645 392.418 33.0293 392.168C32.8145 392.449 32.5059 392.693 32.1035 392.9C31.7012 393.107 31.2578 393.211 30.7734 393.211C30.1914 393.211 29.7148 393.035 29.3438 392.684C28.9766 392.328 28.793 391.885 28.793 391.354C28.793 390.771 28.9746 390.32 29.3379 390C29.7012 389.68 30.1777 389.482 30.7676 389.408L32.4492 389.197ZM36.2812 386.725L37.957 391.834L39.709 386.725H40.8633L38.4961 393H37.3711L35.0566 386.725H36.2812ZM42.5742 391.33C42.5742 391.635 42.6855 391.875 42.9082 392.051C43.1309 392.227 43.3945 392.314 43.6992 392.314C44.0703 392.314 44.4297 392.229 44.7773 392.057C45.3633 391.771 45.6562 391.305 45.6562 390.656V389.807C45.5273 389.889 45.3613 389.957 45.1582 390.012C44.9551 390.066 44.7559 390.105 44.5605 390.129L43.9219 390.211C43.5391 390.262 43.252 390.342 43.0605 390.451C42.7363 390.635 42.5742 390.928 42.5742 391.33ZM45.1289 389.197C45.3711 389.166 45.5332 389.064 45.6152 388.893C45.6621 388.799 45.6855 388.664 45.6855 388.488C45.6855 388.129 45.5566 387.869 45.2988 387.709C45.0449 387.545 44.6797 387.463 44.2031 387.463C43.6523 387.463 43.2617 387.611 43.0312 387.908C42.9023 388.072 42.8184 388.316 42.7793 388.641H41.7949C41.8145 387.867 42.0645 387.33 42.5449 387.029C43.0293 386.725 43.5898 386.572 44.2266 386.572C44.9648 386.572 45.5645 386.713 46.0254 386.994C46.4824 387.275 46.7109 387.713 46.7109 388.307V391.922C46.7109 392.031 46.7324 392.119 46.7754 392.186C46.8223 392.252 46.918 392.285 47.0625 392.285C47.1094 392.285 47.1621 392.283 47.2207 392.279C47.2793 392.271 47.3418 392.262 47.4082 392.25V393.029C47.2441 393.076 47.1191 393.105 47.0332 393.117C46.9473 393.129 46.8301 393.135 46.6816 393.135C46.3184 393.135 46.0547 393.006 45.8906 392.748C45.8047 392.611 45.7441 392.418 45.709 392.168C45.4941 392.449 45.1855 392.693 44.7832 392.9C44.3809 393.107 43.9375 393.211 43.4531 393.211C42.8711 393.211 42.3945 393.035 42.0234 392.684C41.6562 392.328 41.4727 391.885 41.4727 391.354C41.4727 390.771 41.6543 390.32 42.0176 390C42.3809 389.68 42.8574 389.482 43.4473 389.408L45.1289 389.197ZM48.6562 384.973H49.7227V386.725H50.7246V387.586H49.7227V391.682C49.7227 391.9 49.7969 392.047 49.9453 392.121C50.0273 392.164 50.1641 392.186 50.3555 392.186C50.4062 392.186 50.4609 392.186 50.5195 392.186C50.5781 392.182 50.6465 392.176 50.7246 392.168V393C50.6035 393.035 50.4766 393.061 50.3438 393.076C50.2148 393.092 50.0742 393.1 49.9219 393.1C49.4297 393.1 49.0957 392.975 48.9199 392.725C48.7441 392.471 48.6562 392.143 48.6562 391.74V387.586H47.8066V386.725H48.6562V384.973ZM52.5938 391.33C52.5938 391.635 52.7051 391.875 52.9277 392.051C53.1504 392.227 53.4141 392.314 53.7188 392.314C54.0898 392.314 54.4492 392.229 54.7969 392.057C55.3828 391.771 55.6758 391.305 55.6758 390.656V389.807C55.5469 389.889 55.3809 389.957 55.1777 390.012C54.9746 390.066 54.7754 390.105 54.5801 390.129L53.9414 390.211C53.5586 390.262 53.2715 390.342 53.0801 390.451C52.7559 390.635 52.5938 390.928 52.5938 391.33ZM55.1484 389.197C55.3906 389.166 55.5527 389.064 55.6348 388.893C55.6816 388.799 55.7051 388.664 55.7051 388.488C55.7051 388.129 55.5762 387.869 55.3184 387.709C55.0645 387.545 54.6992 387.463 54.2227 387.463C53.6719 387.463 53.2812 387.611 53.0508 387.908C52.9219 388.072 52.8379 388.316 52.7988 388.641H51.8145C51.834 387.867 52.084 387.33 52.5645 387.029C53.0488 386.725 53.6094 386.572 54.2461 386.572C54.9844 386.572 55.584 386.713 56.0449 386.994C56.502 387.275 56.7305 387.713 56.7305 388.307V391.922C56.7305 392.031 56.752 392.119 56.7949 392.186C56.8418 392.252 56.9375 392.285 57.082 392.285C57.1289 392.285 57.1816 392.283 57.2402 392.279C57.2988 392.271 57.3613 392.262 57.4277 392.25V393.029C57.2637 393.076 57.1387 393.105 57.0527 393.117C56.9668 393.129 56.8496 393.135 56.7012 393.135C56.3379 393.135 56.0742 393.006 55.9102 392.748C55.8242 392.611 55.7637 392.418 55.7285 392.168C55.5137 392.449 55.2051 392.693 54.8027 392.9C54.4004 393.107 53.957 393.211 53.4727 393.211C52.8906 393.211 52.4141 393.035 52.043 392.684C51.6758 392.328 51.4922 391.885 51.4922 391.354C51.4922 390.771 51.6738 390.32 52.0371 390C52.4004 389.68 52.877 389.482 53.4668 389.408L55.1484 389.197ZM58.4941 386.725H59.4961V387.809C59.5781 387.598 59.7793 387.342 60.0996 387.041C60.4199 386.736 60.7891 386.584 61.207 386.584C61.2266 386.584 61.2598 386.586 61.3066 386.59C61.3535 386.594 61.4336 386.602 61.5469 386.613V387.727C61.4844 387.715 61.4258 387.707 61.3711 387.703C61.3203 387.699 61.2637 387.697 61.2012 387.697C60.6699 387.697 60.2617 387.869 59.9766 388.213C59.6914 388.553 59.5488 388.945 59.5488 389.391V393H58.4941V386.725ZM29.4199 398.754H30.4922V405H29.4199V398.754ZM29.4199 396.393H30.4922V397.588H29.4199V396.393ZM32.0918 398.725H33.1348V399.615C33.3848 399.307 33.6113 399.082 33.8145 398.941C34.1621 398.703 34.5566 398.584 34.998 398.584C35.498 398.584 35.9004 398.707 36.2051 398.953C36.377 399.094 36.5332 399.301 36.6738 399.574C36.9082 399.238 37.1836 398.99 37.5 398.83C37.8164 398.666 38.1719 398.584 38.5664 398.584C39.4102 398.584 39.9844 398.889 40.2891 399.498C40.4531 399.826 40.5352 400.268 40.5352 400.822V405H39.4395V400.641C39.4395 400.223 39.334 399.936 39.123 399.779C38.916 399.623 38.6621 399.545 38.3613 399.545C37.9473 399.545 37.5898 399.684 37.2891 399.961C36.9922 400.238 36.8438 400.701 36.8438 401.35V405H35.7715V400.904C35.7715 400.479 35.7207 400.168 35.6191 399.973C35.459 399.68 35.1602 399.533 34.7227 399.533C34.3242 399.533 33.9609 399.688 33.6328 399.996C33.3086 400.305 33.1465 400.863 33.1465 401.672V405H32.0918V398.725ZM42.8965 403.33C42.8965 403.635 43.0078 403.875 43.2305 404.051C43.4531 404.227 43.7168 404.314 44.0215 404.314C44.3926 404.314 44.752 404.229 45.0996 404.057C45.6855 403.771 45.9785 403.305 45.9785 402.656V401.807C45.8496 401.889 45.6836 401.957 45.4805 402.012C45.2773 402.066 45.0781 402.105 44.8828 402.129L44.2441 402.211C43.8613 402.262 43.5742 402.342 43.3828 402.451C43.0586 402.635 42.8965 402.928 42.8965 403.33ZM45.4512 401.197C45.6934 401.166 45.8555 401.064 45.9375 400.893C45.9844 400.799 46.0078 400.664 46.0078 400.488C46.0078 400.129 45.8789 399.869 45.6211 399.709C45.3672 399.545 45.002 399.463 44.5254 399.463C43.9746 399.463 43.584 399.611 43.3535 399.908C43.2246 400.072 43.1406 400.316 43.1016 400.641H42.1172C42.1367 399.867 42.3867 399.33 42.8672 399.029C43.3516 398.725 43.9121 398.572 44.5488 398.572C45.2871 398.572 45.8867 398.713 46.3477 398.994C46.8047 399.275 47.0332 399.713 47.0332 400.307V403.922C47.0332 404.031 47.0547 404.119 47.0977 404.186C47.1445 404.252 47.2402 404.285 47.3848 404.285C47.4316 404.285 47.4844 404.283 47.543 404.279C47.6016 404.271 47.6641 404.262 47.7305 404.25V405.029C47.5664 405.076 47.4414 405.105 47.3555 405.117C47.2695 405.129 47.1523 405.135 47.0039 405.135C46.6406 405.135 46.377 405.006 46.2129 404.748C46.127 404.611 46.0664 404.418 46.0312 404.168C45.8164 404.449 45.5078 404.693 45.1055 404.9C44.7031 405.107 44.2598 405.211 43.7754 405.211C43.1934 405.211 42.7168 405.035 42.3457 404.684C41.9785 404.328 41.7949 403.885 41.7949 403.354C41.7949 402.771 41.9766 402.32 42.3398 402C42.7031 401.68 43.1797 401.482 43.7695 401.408L45.4512 401.197ZM50.9824 398.613C51.4746 398.613 51.9043 398.734 52.2715 398.977C52.4707 399.113 52.6738 399.312 52.8809 399.574V398.783H53.8535V404.49C53.8535 405.287 53.7363 405.916 53.502 406.377C53.0645 407.229 52.2383 407.654 51.0234 407.654C50.3477 407.654 49.7793 407.502 49.3184 407.197C48.8574 406.896 48.5996 406.424 48.5449 405.779H49.6172C49.668 406.061 49.7695 406.277 49.9219 406.43C50.1602 406.664 50.5352 406.781 51.0469 406.781C51.8555 406.781 52.3848 406.496 52.6348 405.926C52.7832 405.59 52.8516 404.99 52.8398 404.127C52.6289 404.447 52.375 404.686 52.0781 404.842C51.7812 404.998 51.3887 405.076 50.9004 405.076C50.2207 405.076 49.625 404.836 49.1133 404.355C48.6055 403.871 48.3516 403.072 48.3516 401.959C48.3516 400.908 48.6074 400.088 49.1191 399.498C49.6348 398.908 50.2559 398.613 50.9824 398.613ZM52.8809 401.836C52.8809 401.059 52.7207 400.482 52.4004 400.107C52.0801 399.732 51.6719 399.545 51.1758 399.545C50.4336 399.545 49.9258 399.893 49.6523 400.588C49.5078 400.959 49.4355 401.445 49.4355 402.047C49.4355 402.754 49.5781 403.293 49.8633 403.664C50.1523 404.031 50.5391 404.215 51.0234 404.215C51.7812 404.215 52.3145 403.873 52.623 403.189C52.7949 402.803 52.8809 402.352 52.8809 401.836ZM58.0605 398.584C58.5059 398.584 58.9375 398.689 59.3555 398.9C59.7734 399.107 60.0918 399.377 60.3105 399.709C60.5215 400.025 60.6621 400.395 60.7324 400.816C60.7949 401.105 60.8262 401.566 60.8262 402.199H56.2266C56.2461 402.836 56.3965 403.348 56.6777 403.734C56.959 404.117 57.3945 404.309 57.9844 404.309C58.5352 404.309 58.9746 404.127 59.3027 403.764C59.4902 403.553 59.623 403.309 59.7012 403.031H60.7383C60.7109 403.262 60.6191 403.52 60.4629 403.805C60.3105 404.086 60.1387 404.316 59.9473 404.496C59.627 404.809 59.2305 405.02 58.7578 405.129C58.5039 405.191 58.2168 405.223 57.8965 405.223C57.1152 405.223 56.4531 404.939 55.9102 404.373C55.3672 403.803 55.0957 403.006 55.0957 401.982C55.0957 400.975 55.3691 400.156 55.916 399.527C56.4629 398.898 57.1777 398.584 58.0605 398.584ZM59.7422 401.361C59.6992 400.904 59.5996 400.539 59.4434 400.266C59.1543 399.758 58.6719 399.504 57.9961 399.504C57.5117 399.504 57.1055 399.68 56.7773 400.031C56.4492 400.379 56.2754 400.822 56.2559 401.361H59.7422Z" fill="#CCCCCC"/>
</g>
<path id="Vector_5" d="M85 386.25L75 395L85 403.75L85 386.25Z" fill="#EEEEEE"/>
</g>
<g id="Frame 12_5" clip-path="url(#clip5)">
<rect width="245" height="67" transform="translate(85 370)" fill="#EEEEEE"/>
<rect id="Rectangle 7_4" x="95" y="380" width="215" height="10" fill="#666666"/>
<rect id="Rectangle 12_2" x="95" y="391" width="223" height="10" fill="#666666"/>
<rect id="Rectangle 15_2" x="95" y="402" width="206" height="10" fill="#666666"/>
<rect id="Rectangle 11_5" x="95" y="413" width="225" height="3" fill="#EEEEEE"/>
<g id="Frame 15_7">
<rect id="Rectangle 13_5" x="95" y="417" width="50" height="10" fill="#CCCCCC"/>
<rect id="Rectangle 16_5" x="150" y="417" width="50" height="10" fill="#CCCCCC"/>
</g>
</g>
</g>
</g>
<defs>
<clipPath id="clip0">
<rect width="65" height="50" fill="white" transform="translate(20 20)"/>
</clipPath>
<clipPath id="clip1">
<rect width="65" height="50" fill="white" transform="translate(20 217)"/>
</clipPath>
<clipPath id="clip2">
<rect width="245" height="56" fill="white" transform="translate(85 217)"/>
</clipPath>
<clipPath id="clip3">
<rect width="250" height="67" fill="white" transform="translate(20 288)"/>
</clipPath>
<clipPath id="clip4">
<rect width="65" height="50" fill="white" transform="translate(20 370)"/>
</clipPath>
<clipPath id="clip5">
<rect width="245" height="67" fill="white" transform="translate(85 370)"/>
</clipPath>
</defs>
</svg>
